<?xml version="1.0" standalone="no"?>
<!DOCTYPE svg PUBLIC "-//W3C//DTD SVG 20010904//EN"
 "http://www.w3.org/TR/2001/REC-SVG-20010904/DTD/svg10.dtd">
<svg version="1.0" xmlns="http://www.w3.org/2000/svg"
 width="923.000000pt" height="557.000000pt" viewBox="0 0 923.000000 557.000000"
 preserveAspectRatio="xMidYMid meet">

<g transform="translate(0.000000,557.000000) scale(0.100000,-0.100000)"
fill="#000000" stroke="none">
<path d="M775 5345 c-213 -33 -396 -110 -527 -222 -74 -63 -114 -114 -152
-193 -29 -60 -31 -73 -31 -170 0 -97 2 -110 31 -170 62 -130 164 -224 329
-305 168 -83 350 -125 543 -125 l92 0 0 -30 c0 -27 3 -30 30 -30 23 0 30 5 31
20 1 11 2 25 3 32 0 7 33 17 81 24 125 18 230 51 350 109 162 79 272 182 333
313 24 50 27 69 27 162 0 93 -3 112 -27 162 -102 219 -371 380 -712 427 -101
14 -300 12 -401 -4z m344 -6 c280 -26 515 -128 659 -284 134 -147 163 -314 82
-476 -90 -177 -290 -304 -600 -380 -38 -10 -123 -14 -275 -14 -208 0 -226 2
-323 28 -265 70 -462 204 -545 370 -54 109 -56 237 -4 351 30 64 138 181 215
232 129 86 337 156 515 173 132 12 149 12 276 0z"/>
<path d="M498 5083 c7 -3 12 -25 12 -58 0 -33 -5 -55 -12 -58 -7 -3 3 -5 22
-5 19 0 29 2 23 5 -7 2 -13 16 -13 30 0 22 4 25 25 21 20 -4 25 -1 24 16 0 11
-3 15 -6 9 -2 -7 -13 -13 -24 -13 -14 0 -19 7 -19 26 0 23 3 26 30 22 17 -3
30 -1 30 4 0 4 -24 8 -52 7 -29 0 -47 -3 -40 -6z"/>
<path d="M793 5058 c-9 -16 -4 -80 8 -92 6 -6 14 -5 22 3 10 11 10 13 0 7 -9
-5 -13 3 -13 28 0 19 4 36 9 38 5 2 3 9 -4 15 -11 10 -16 10 -22 1z"/>
<path d="M615 5039 c-4 -6 -4 -13 0 -17 3 -3 10 0 14 7 5 8 14 10 21 6 9 -6 5
-12 -14 -22 -29 -15 -32 -43 -6 -51 12 -4 13 -2 3 10 -10 11 -10 17 -1 26 18
18 30 14 26 -10 -2 -11 3 -23 9 -25 12 -4 11 32 -3 75 -4 15 -40 16 -49 1z"/>
<path d="M712 5038 c-7 -7 -12 -24 -12 -39 0 -33 34 -49 56 -27 12 12 10 14
-13 13 -22 0 -29 5 -31 23 -4 26 25 42 38 21 5 -7 12 -10 15 -7 11 10 -4 28
-24 28 -9 0 -22 -5 -29 -12z"/>
<path d="M850 5036 c-28 -35 11 -93 48 -70 35 22 22 84 -18 84 -10 0 -23 -7
-30 -14z m50 -15 c13 -25 2 -53 -19 -49 -22 4 -29 68 -7 68 8 0 20 -9 26 -19z"/>
<path d="M947 5013 c4 -24 2 -38 -8 -44 -10 -6 -5 -9 15 -9 23 0 27 3 18 12
-20 20 -15 58 8 58 11 0 20 4 20 9 0 5 -13 9 -29 9 -28 -1 -29 -3 -24 -35z"/>
<path d="M1009 5029 c-15 -28 3 -69 30 -69 28 0 36 18 9 22 -35 5 -34 28 1 28
33 0 39 8 19 28 -19 19 -46 14 -59 -9z m46 1 c3 -5 -3 -10 -14 -10 -12 0 -21
5 -21 10 0 6 6 10 14 10 8 0 18 -4 21 -10z"/>
<path d="M1096 5035 c-3 -9 4 -21 19 -31 32 -21 32 -38 0 -30 -14 4 -25 2 -25
-4 0 -5 11 -10 25 -10 35 0 45 29 17 48 -28 18 -29 36 -2 29 11 -3 20 -1 20 4
0 15 -47 10 -54 -6z"/>
<path d="M820 4845 c0 -18 -5 -25 -20 -25 -47 0 -50 -80 -4 -88 18 -4 18 -3 1
10 -22 17 -20 63 3 63 10 0 16 -12 18 -37 5 -66 22 -41 22 32 0 40 -4 70 -10
70 -5 0 -10 -11 -10 -25z"/>
<path d="M1052 4823 c-8 -8 -9 -13 -2 -13 5 0 10 -18 10 -40 0 -31 4 -40 17
-40 13 0 14 3 5 12 -14 14 -16 65 -3 70 5 2 4 8 -3 14 -8 8 -15 7 -24 -3z"/>
<path d="M508 4769 c3 -31 0 -54 -8 -64 -11 -13 -8 -15 16 -14 16 0 23 3 17 6
-20 7 -15 33 6 33 26 0 43 24 39 57 -3 25 -7 28 -39 29 l-36 1 5 -48z m57 -8
c-9 -29 -39 -23 -43 8 -2 13 2 27 10 32 19 12 41 -14 33 -40z"/>
<path d="M607 4789 c3 -17 0 -35 -7 -44 -11 -13 -8 -15 16 -14 16 0 23 3 17 6
-7 2 -13 18 -13 34 0 23 5 29 21 29 11 0 18 4 15 9 -3 5 -17 9 -30 9 -22 0
-24 -4 -19 -29z"/>
<path d="M676 4804 c-19 -18 -20 -28 -6 -55 15 -28 58 -25 71 5 22 49 -28 88
-65 50z m49 -29 c0 -39 -31 -48 -41 -11 -7 30 2 48 24 44 11 -2 17 -13 17 -33z"/>
<path d="M857 4812 c6 -4 13 -23 15 -42 3 -32 6 -35 36 -37 32 -1 32 -1 32 43
0 29 -4 44 -12 44 -8 0 -13 -14 -13 -37 0 -20 -6 -38 -12 -40 -9 -3 -13 8 -13
36 0 36 -3 41 -22 41 -14 0 -18 -3 -11 -8z"/>
<path d="M970 4806 c-27 -34 8 -87 46 -71 17 7 17 8 -6 14 -27 8 -38 37 -21
54 9 9 14 8 21 -3 5 -8 12 -11 15 -8 11 11 -5 28 -24 28 -10 0 -24 -7 -31 -14z"/>
<path d="M1116 4790 c4 -18 1 -36 -6 -45 -11 -13 -8 -15 16 -14 16 0 23 3 17
6 -8 2 -13 22 -13 44 0 21 -4 39 -10 39 -5 0 -7 -13 -4 -30z"/>
<path d="M1177 4775 c13 -25 26 -45 28 -45 1 0 5 9 8 20 3 11 1 18 -3 15 -8
-5 -26 33 -22 48 1 4 -7 7 -17 7 -18 0 -18 -3 6 -45z"/>
<path d="M1225 4810 c4 -6 11 -8 16 -5 14 9 11 15 -7 15 -8 0 -12 -5 -9 -10z"/>
<path d="M1270 4806 c-28 -35 11 -93 48 -70 35 22 22 84 -18 84 -10 0 -23 -7
-30 -14z m48 -34 c2 -23 -1 -32 -12 -32 -20 0 -38 34 -30 55 11 28 39 13 42
-23z"/>
<path d="M1367 4813 c-13 -13 -7 -32 13 -38 11 -3 20 -13 20 -22 0 -10 -6 -14
-20 -10 -11 3 -20 1 -20 -5 0 -16 55 -4 58 13 1 9 -8 20 -23 27 -30 14 -34 37
-5 29 11 -3 20 -1 20 4 0 10 -33 12 -43 2z"/>
<path d="M7050 4760 l0 -410 310 0 310 0 -46 -87 -45 -88 31 -3 c27 -3 30 -7
30 -38 0 -32 2 -34 35 -34 33 0 35 2 35 35 0 32 2 35 30 35 17 0 30 2 30 5 0
3 -18 41 -40 85 -22 44 -40 82 -40 85 0 3 128 5 285 5 l285 0 -2 -1477 -3
-1478 -27 2 c-16 1 -28 -2 -28 -8 0 -5 18 -45 40 -89 22 -44 40 -84 40 -90 0
-7 -143 -10 -428 -10 l-429 0 -180 -238 c-98 -130 -183 -243 -187 -250 -5 -9
56 -98 180 -263 l188 -249 560 0 561 1 187 250 187 251 -189 251 -189 251
-110 -3 c-61 -1 -115 0 -121 4 -6 3 8 42 35 95 25 50 42 91 38 91 -5 1 -16 0
-26 0 -9 -1 -19 4 -21 11 -3 7 -7 673 -9 1481 l-4 1467 403 0 404 0 0 410 0
410 -1040 0 -1040 0 0 -410z m1998 345 l-47 -45 -920 3 -920 2 -35 34 c-20 19
-36 39 -36 43 0 4 451 8 1003 8 l1002 0 -47 -45z m-1898 -345 l0 -296 -40 -39
-40 -39 0 374 0 374 40 -39 40 -39 0 -296z m1950 -2 l0 -362 -35 34 -35 34 0
295 0 295 32 33 c18 18 33 33 35 33 2 0 3 -163 3 -362z m-90 2 l0 -290 -920 0
c-869 0 -920 1 -920 18 0 9 -1 140 -3 290 l-2 272 923 0 922 0 0 -290z m45
-350 l39 -40 -1002 0 c-551 0 -1002 3 -1002 7 0 4 14 22 32 40 l32 33 931 0
931 0 39 -40z m-339 -3466 l183 -242 -185 -246 -185 -246 -547 3 -547 2 -182
240 c-100 132 -181 244 -180 248 1 4 83 116 182 248 l180 239 549 -2 549 -3
183 -241z"/>
<path d="M7418 4833 c8 -3 12 -29 12 -78 0 -49 -4 -75 -12 -78 -7 -3 17 -6 53
-6 55 -1 68 2 74 17 5 14 4 15 -6 5 -7 -7 -28 -13 -46 -13 -31 0 -33 2 -33 36
0 35 1 36 30 32 19 -3 30 0 30 7 0 7 -11 10 -30 7 -29 -4 -30 -3 -30 32 0 33
2 36 28 36 15 0 33 -5 40 -12 9 -9 12 -8 12 5 0 14 -10 17 -67 16 -38 0 -62
-3 -55 -6z"/>
<path d="M7588 4764 c3 -56 0 -79 -10 -85 -8 -6 -1 -9 21 -9 31 0 33 1 17 13
-13 10 -17 24 -14 67 l3 55 34 -70 33 -70 33 70 33 70 1 -62 c1 -40 -3 -63
-11 -66 -7 -3 5 -5 27 -5 22 0 34 2 28 5 -9 3 -13 29 -13 78 0 49 4 75 13 78
6 3 -1 6 -16 6 -24 1 -31 -6 -54 -59 -14 -33 -29 -60 -32 -60 -4 0 -20 27 -36
60 -42 87 -61 82 -57 -16z"/>
<path d="M7808 4833 c8 -3 12 -29 12 -78 0 -49 -4 -75 -12 -78 -7 -3 5 -5 27
-5 22 0 34 2 28 5 -7 2 -13 20 -13 39 0 31 3 34 28 34 34 0 52 16 52 47 0 30
-28 43 -87 42 -26 0 -42 -3 -35 -6z m87 -38 c0 -23 -5 -31 -22 -33 -20 -3 -23
1 -23 33 0 32 3 36 23 33 17 -2 22 -10 22 -33z"/>
<path d="M7958 4833 c8 -3 12 -29 12 -78 0 -49 -4 -75 -12 -78 -7 -3 5 -5 27
-5 22 0 34 2 28 5 -14 5 -18 73 -4 73 4 0 21 -18 36 -40 l28 -40 92 0 c79 0
94 3 100 18 5 14 4 15 -6 5 -7 -7 -28 -13 -46 -13 -31 0 -33 2 -33 36 0 35 1
36 30 32 19 -3 30 0 30 7 0 7 -11 10 -30 7 -29 -4 -30 -3 -30 32 0 33 2 36 30
36 17 0 33 -7 39 -17 9 -16 10 -16 11 5 0 21 -4 22 -67 21 -38 0 -62 -3 -55
-6 8 -3 12 -29 12 -79 0 -71 -1 -74 -23 -74 -23 0 -77 47 -77 67 0 6 7 13 15
17 22 8 19 53 -4 66 -11 5 -41 10 -68 9 -26 0 -42 -3 -35 -6z m90 -32 c4 -23
-11 -41 -35 -41 -8 0 -13 14 -13 36 0 31 3 35 23 32 14 -2 23 -11 25 -27z"/>
<path d="M8312 4828 c-25 -25 -14 -56 30 -80 52 -28 61 -54 22 -64 -21 -6 -31
-2 -46 16 -18 22 -18 22 -18 2 0 -26 57 -40 89 -23 37 20 27 56 -25 86 -30 17
-44 32 -42 43 5 27 50 21 65 -8 l13 -25 0 30 c0 28 -3 30 -38 33 -21 1 -43 -3
-50 -10z"/>
<path d="M8490 4775 c-17 -38 -39 -78 -47 -87 -15 -17 -14 -18 18 -18 24 0 30
3 20 9 -8 5 -11 16 -8 26 5 12 17 15 44 13 32 -3 38 -7 37 -25 0 -19 5 -23 29
-23 23 0 27 3 18 13 -6 8 -26 47 -45 88 l-35 74 -31 -70z m45 -22 c5 -20 3
-23 -19 -23 -30 0 -29 0 -16 36 11 29 23 24 35 -13z"/>
<path d="M8652 4828 c-22 -22 -14 -56 17 -73 47 -24 64 -45 50 -61 -17 -21
-46 -17 -63 8 l-16 22 0 -21 c0 -40 92 -43 105 -4 9 28 -2 44 -43 66 -24 13
-37 27 -37 40 0 31 46 27 62 -5 l13 -25 0 30 c0 28 -3 30 -38 33 -21 1 -43 -3
-50 -10z"/>
<path d="M7750 910 c0 -5 5 -10 10 -10 6 0 10 5 10 10 0 6 -4 10 -10 10 -5 0
-10 -4 -10 -10z"/>
<path d="M7598 899 c7 -8 12 -38 12 -70 0 -37 -5 -59 -12 -62 -7 -3 10 -6 38
-6 60 -1 89 16 80 47 -4 12 -12 22 -17 22 -5 0 -4 9 3 20 22 34 -1 55 -63 58
-43 3 -52 1 -41 -9z m82 -14 c18 -21 5 -45 -25 -45 -21 0 -25 5 -25 30 0 23 5
30 19 30 10 0 24 -7 31 -15z m-2 -64 c23 -14 10 -46 -21 -49 -24 -3 -27 0 -27
27 0 32 19 41 48 22z"/>
<path d="M7748 815 c-3 -53 -2 -55 22 -54 14 0 19 3 13 6 -8 3 -13 24 -13 54
0 67 -17 62 -22 -6z"/>
<path d="M7810 851 c-14 -26 -13 -64 2 -79 16 -16 43 -15 57 2 9 11 7 12 -13
9 -17 -4 -27 1 -35 16 -11 19 -9 21 24 21 36 0 46 15 23 38 -18 18 -46 14 -58
-7z m48 -9 c2 -7 -7 -12 -23 -12 -24 0 -26 2 -15 15 14 17 31 16 38 -3z"/>
<path d="M7909 860 c-1 -3 0 -20 1 -38 1 -18 -4 -40 -10 -48 -10 -12 -8 -14
16 -14 22 0 25 3 16 12 -16 16 -15 63 1 77 29 24 53 -49 25 -77 -9 -9 -6 -12
16 -12 22 0 26 3 18 13 -6 7 -12 30 -14 52 -3 38 -5 40 -35 40 -18 1 -33 -2
-34 -5z"/>
<path d="M8022 858 c-7 -7 -12 -26 -12 -43 0 -49 42 -74 69 -41 10 12 8 13 -8
9 -21 -5 -51 11 -51 28 0 5 16 9 35 9 22 0 35 5 35 13 0 18 -21 37 -40 37 -9
0 -21 -5 -28 -12z m46 -15 c2 -8 -6 -13 -22 -13 -19 0 -24 4 -19 15 6 18 34
16 41 -2z"/>
<path d="M8117 863 c-15 -14 -6 -41 18 -57 28 -19 24 -41 -6 -33 -11 3 -19 1
-19 -5 0 -5 12 -8 28 -6 38 4 43 43 8 60 -14 6 -26 17 -26 25 0 16 22 17 38 1
9 -9 12 -8 12 5 0 17 -39 25 -53 10z"/>
<path d="M8265 819 c29 -56 26 -89 -8 -89 -16 0 -18 -3 -9 -12 17 -17 36 4 60
67 11 28 23 58 27 68 5 12 3 17 -9 17 -9 0 -13 -6 -10 -14 3 -8 0 -25 -7 -37
l-12 -23 -14 27 c-8 15 -11 32 -8 37 3 6 -3 10 -15 10 -20 0 -20 -1 5 -51z"/>
<path d="M7970 650 c0 -5 5 -10 10 -10 6 0 10 5 10 10 0 6 -4 10 -10 10 -5 0
-10 -4 -10 -10z"/>
<path d="M8130 650 c0 -5 5 -10 10 -10 6 0 10 5 10 10 0 6 -4 10 -10 10 -5 0
-10 -4 -10 -10z"/>
<path d="M7607 603 c-15 -14 -6 -41 18 -57 28 -19 24 -41 -6 -33 -11 3 -19 1
-19 -5 0 -5 12 -8 28 -6 38 4 43 43 8 60 -31 14 -36 43 -6 35 11 -3 20 -1 20
4 0 10 -33 12 -43 2z"/>
<path d="M7692 598 c-7 -7 -12 -26 -12 -43 0 -49 42 -74 69 -41 10 12 8 13 -8
9 -21 -5 -51 11 -51 28 0 5 16 9 35 9 22 0 35 5 35 13 0 18 -21 37 -40 37 -9
0 -21 -5 -28 -12z m46 -15 c2 -8 -6 -13 -22 -13 -19 0 -24 4 -19 15 6 18 34
16 41 -2z"/>
<path d="M7779 606 c0 -1 -1 -25 -2 -54 -2 -49 -1 -52 23 -52 19 0 21 3 12 12
-7 7 -12 26 -12 44 0 26 4 33 26 37 23 4 29 -1 49 -47 l23 -51 16 39 c19 46
20 60 2 27 l-13 -24 -13 22 c-6 12 -9 29 -6 37 4 12 -5 14 -49 13 -30 -1 -55
-3 -56 -3z"/>
<path d="M7925 600 c4 -6 11 -8 16 -5 14 9 11 15 -7 15 -8 0 -12 -5 -9 -10z"/>
<path d="M7968 555 c-3 -53 -2 -55 22 -54 14 0 19 3 13 6 -8 3 -13 24 -13 54
0 67 -17 62 -22 -6z"/>
<path d="M8036 594 c-19 -18 -21 -65 -4 -82 16 -16 43 -15 56 1 8 10 5 13 -16
12 -22 0 -28 5 -30 29 -4 36 11 54 33 36 17 -14 31 -8 20 9 -9 16 -41 13 -59
-5z"/>
<path d="M8128 555 c-2 -44 0 -55 12 -55 12 0 14 11 12 55 -2 30 -8 55 -12 55
-4 0 -10 -25 -12 -55z"/>
<path d="M8196 594 c-18 -18 -20 -47 -6 -75 22 -40 80 -11 80 40 0 48 -42 68
-74 35z m48 -10 c18 -46 -1 -87 -29 -64 -15 13 -20 61 -8 73 11 12 31 7 37 -9z"/>
<path d="M8293 593 c-4 -11 3 -23 20 -37 35 -28 36 -50 2 -42 -14 4 -25 2 -25
-4 0 -16 46 -12 61 6 11 14 9 20 -20 44 -23 18 -30 29 -22 34 6 4 18 2 26 -4
12 -10 15 -9 15 4 0 22 -49 21 -57 -1z"/>
<path d="M6659 5038 c-1 -7 -2 -20 -3 -28 -1 -13 -273 -15 -2368 -18 l-2368
-2 0 -35 0 -35 2365 2 c2472 3 2385 4 2369 -37 -4 -8 -1 -15 5 -15 14 0 181
83 181 90 0 5 -165 90 -175 90 -3 0 -6 -6 -6 -12z"/>
<path d="M4008 4749 l-47 -21 -3 -67 c-3 -60 -5 -66 -25 -69 -18 -3 -23 -10
-23 -33 0 -24 4 -29 25 -29 l25 0 0 -170 0 -170 43 21 c61 32 136 27 281 -16
137 -40 209 -44 274 -15 l42 19 0 179 0 179 83 -43 c45 -24 87 -44 93 -44 15
0 25 76 17 138 l-6 51 -88 -45 c-49 -24 -91 -44 -94 -44 -3 0 -5 36 -5 81 0
73 -2 80 -17 74 -103 -44 -142 -43 -299 6 -134 41 -214 46 -276 18z m265 -33
c163 -48 209 -51 290 -20 16 6 17 -13 15 -242 l-3 -249 -29 -14 c-50 -24 -140
-16 -270 23 -130 39 -205 45 -261 22 l-35 -15 0 250 0 250 33 14 c54 24 134
18 260 -19z"/>
<path d="M4146 4525 c-22 -23 -21 -29 19 -64 19 -17 35 -37 35 -46 0 -18 -31
-20 -48 -3 -9 9 -12 9 -12 0 0 -34 75 -25 86 10 5 18 -1 29 -30 54 -20 17 -36
36 -36 43 0 15 33 14 49 -1 11 -11 13 -10 9 2 -6 21 -52 24 -72 5z"/>
<path d="M4256 4525 c-22 -23 -21 -29 19 -64 19 -17 35 -37 35 -46 0 -18 -31
-20 -48 -3 -9 9 -12 9 -12 0 0 -34 75 -25 86 10 5 18 -1 29 -30 54 -20 17 -36
36 -36 43 0 15 33 14 49 -1 11 -11 13 -10 9 2 -6 21 -52 24 -72 5z"/>
<path d="M2010 4610 l-95 -47 93 -47 c50 -25 94 -46 97 -46 3 0 5 13 5 29 0
17 4 32 9 36 10 5 8 38 -2 65 -3 8 -7 25 -9 36 -3 21 -7 20 -98 -26z"/>
<path d="M2190 4564 c0 -32 2 -34 35 -34 32 0 35 2 35 30 0 17 -3 31 -7 31
-62 10 -63 9 -63 -27z"/>
<path d="M2338 4592 c-12 -2 -18 -13 -18 -33 0 -27 3 -29 35 -29 33 0 35 2 35
33 0 33 -8 38 -52 29z"/>
<path d="M2459 4590 c-8 -62 -9 -60 27 -60 32 0 34 2 34 34 0 30 -2 33 -30 32
-16 -1 -30 -3 -31 -6z"/>
<path d="M2596 4593 c-3 -3 -6 -19 -6 -35 0 -25 4 -28 31 -28 28 0 30 2 27 32
-2 23 -9 32 -24 34 -12 2 -24 1 -28 -3z"/>
<path d="M2850 4564 c0 -32 2 -34 35 -34 32 0 35 2 35 30 0 17 -6 31 -12 31
-7 1 -23 3 -35 4 -20 2 -23 -2 -23 -31z"/>
<path d="M2985 4592 c-3 -3 -5 -18 -5 -34 0 -25 3 -28 36 -28 34 0 35 1 32 33
-3 27 -7 32 -30 33 -15 1 -30 -1 -33 -4z"/>
<path d="M3123 4591 c-5 -3 -10 -18 -11 -33 -3 -26 -1 -28 33 -28 35 0 36 1
33 32 -2 24 -8 32 -25 33 -12 1 -26 -1 -30 -4z"/>
<path d="M3255 4592 c-3 -3 -5 -18 -5 -34 0 -25 4 -28 31 -28 28 0 30 2 27 32
-2 24 -8 32 -26 33 -12 1 -24 -1 -27 -3z"/>
<path d="M3385 4592 c-3 -3 -5 -18 -5 -34 0 -25 3 -28 35 -28 33 0 35 2 33 30
-1 17 -5 30 -8 31 -29 4 -51 5 -55 1z"/>
<path d="M3517 4593 c-4 -3 -7 -19 -7 -35 0 -25 3 -28 36 -28 34 0 35 1 32 32
-2 25 -8 32 -29 35 -14 2 -29 0 -32 -4z"/>
<path d="M3658 4593 c-12 -3 -18 -14 -18 -34 0 -27 3 -29 35 -29 33 0 35 2 35
33 0 34 -11 40 -52 30z"/>
<path d="M4874 4591 c-5 -3 -10 -18 -11 -33 -2 -26 1 -28 32 -28 33 0 35 2 35
34 0 29 -3 34 -24 34 -13 0 -28 -3 -32 -7z"/>
<path d="M5000 4563 c0 -30 3 -33 30 -33 27 0 30 3 30 34 0 30 -2 33 -30 32
-27 -1 -30 -4 -30 -33z"/>
<path d="M5143 4593 c-7 -3 -13 -18 -13 -34 0 -26 3 -29 35 -29 30 0 35 3 35
23 0 37 -22 52 -57 40z"/>
<path d="M5260 4563 c0 -31 2 -33 35 -33 32 0 35 2 35 30 0 17 -3 30 -7 31
-61 6 -63 6 -63 -28z"/>
<path d="M5400 4592 c-5 -2 -10 -17 -10 -33 0 -26 3 -29 35 -29 33 0 35 2 35
33 0 28 -3 32 -25 32 -14 0 -29 -1 -35 -3z"/>
<path d="M5525 4582 c-14 -37 -6 -52 30 -52 32 0 35 2 35 30 0 17 -3 30 -7 31
-5 0 -18 2 -30 3 -12 1 -25 -4 -28 -12z"/>
<path d="M5660 4564 c0 -31 3 -34 30 -34 27 0 30 3 30 33 0 29 -3 32 -30 33
-28 1 -30 -2 -30 -32z"/>
<path d="M5790 4564 c0 -32 2 -34 34 -34 31 0 34 2 32 30 0 17 -3 31 -6 31 -3
1 -17 3 -32 5 -26 3 -28 0 -28 -32z"/>
<path d="M5938 4592 c-12 -2 -18 -13 -18 -33 0 -27 3 -29 36 -29 34 0 35 1 32
32 -3 31 -15 38 -50 30z"/>
<path d="M6060 4592 c-5 -2 -10 -17 -10 -33 0 -26 3 -29 35 -29 33 0 35 2 35
34 0 30 -3 34 -25 32 -14 0 -29 -2 -35 -4z"/>
<path d="M6193 4586 c-4 -5 -7 -20 -9 -33 -2 -20 2 -23 32 -23 32 0 34 2 34
35 0 31 -3 35 -26 33 -14 -2 -28 -7 -31 -12z"/>
<path d="M6450 4563 c0 -31 2 -33 35 -33 32 0 35 2 35 30 0 17 -3 30 -7 31
-61 8 -63 7 -63 -28z"/>
<path d="M6585 4592 c-3 -3 -5 -18 -5 -34 0 -25 3 -28 35 -28 32 0 35 2 35 30
0 17 -3 30 -7 31 -5 0 -18 2 -31 3 -12 2 -24 0 -27 -2z"/>
<path d="M2720 4561 c0 -29 3 -31 35 -31 33 0 35 2 32 28 -3 22 -9 28 -35 30
-30 3 -32 1 -32 -27z"/>
<path d="M3779 4588 c0 -2 -3 -15 -5 -30 -4 -26 -2 -28 31 -28 32 0 35 2 35
30 0 27 -3 30 -30 30 -16 0 -30 -1 -31 -2z"/>
<path d="M6320 4560 c0 -27 3 -30 30 -30 27 0 30 3 30 30 0 27 -3 30 -30 30
-27 0 -30 -3 -30 -30z"/>
<path d="M1722 4351 c8 -21 104 -161 110 -161 4 0 13 11 20 24 l13 25 857
-497 c855 -494 858 -496 843 -519 -13 -19 -15 -86 -15 -438 l0 -415 935 0 934
0 3 97 3 97 54 -83 54 -82 16 26 c9 14 21 24 27 23 6 -2 201 -113 434 -248
l423 -244 -39 -19 c-54 -25 -130 -18 -282 27 -68 20 -136 36 -151 36 -38 0
-129 -28 -138 -43 -4 -6 -7 -129 -8 -273 l0 -261 40 18 c62 29 139 24 278 -17
146 -42 216 -47 272 -19 l40 20 3 258 c1 141 4 257 6 257 5 0 818 -469 824
-475 2 -2 -4 -14 -12 -28 -16 -24 -16 -25 15 -31 47 -9 181 -7 177 3 -8 21
-104 161 -110 161 -4 0 -13 -11 -20 -24 l-13 -25 -857 497 -858 496 16 24 c9
13 14 26 12 28 -3 2 -50 7 -106 10 l-102 7 0 304 0 303 -830 0 -830 0 -57 86
-57 85 -15 -25 c-9 -15 -19 -26 -22 -26 -8 0 -1689 968 -1702 980 -5 4 -2 19
7 33 16 24 16 24 -15 31 -47 9 -181 7 -177 -3z m3658 -1190 c0 -5 -18 -25 -40
-45 l-40 -36 -813 0 -813 0 -44 45 -44 45 897 0 c513 0 897 -4 897 -9z m-1730
-381 l0 -296 -40 -39 -40 -39 0 374 0 374 40 -39 40 -39 0 -296z m1750 -2 l0
-362 -40 39 -40 39 0 285 0 285 37 38 c20 21 38 38 40 38 2 0 3 -163 3 -362z
m-100 280 c1 -14 1 -547 0 -560 0 -5 -367 -8 -815 -8 l-815 0 0 290 0 290 815
0 c645 0 815 -3 815 -12z m47 -620 c18 -18 33 -36 33 -40 0 -4 -403 -8 -896
-8 l-895 0 33 40 33 40 830 0 829 0 33 -32z m775 -494 c159 -47 213 -50 291
-19 16 7 17 -9 17 -243 l0 -251 -56 -18 c-53 -16 -60 -16 -132 0 -43 9 -115
28 -161 42 -95 29 -156 32 -208 10 -19 -8 -37 -15 -39 -15 -2 0 -4 112 -4 249
l0 249 38 15 c58 25 120 20 254 -19z"/>
<path d="M3988 2853 c8 -3 12 -29 12 -78 0 -49 -4 -75 -12 -78 -7 -3 17 -6 53
-6 55 -1 68 2 74 17 5 14 4 15 -6 5 -7 -7 -28 -13 -46 -13 -31 0 -33 2 -33 36
0 35 1 36 30 32 19 -3 30 0 30 7 0 7 -11 10 -30 7 -29 -4 -30 -3 -30 32 0 33
2 36 30 36 17 0 33 -7 39 -17 9 -16 10 -16 11 5 0 21 -4 22 -67 21 -38 0 -62
-3 -55 -6z"/>
<path d="M4166 2847 c-27 -20 -16 -48 29 -78 49 -33 54 -64 10 -64 -21 0 -33
7 -42 25 l-13 25 0 -30 c0 -28 2 -30 44 -33 78 -5 92 55 21 95 -42 23 -53 55
-22 61 10 2 27 -4 38 -14 16 -15 19 -15 19 -2 0 28 -53 37 -84 15z"/>
<path d="M4291 2843 c0 -11 3 -13 6 -5 2 6 16 12 29 12 23 0 24 -3 24 -70 0
-55 -3 -71 -17 -79 -14 -8 -8 -10 27 -10 25 1 37 3 28 6 -15 4 -18 16 -18 79
0 65 2 74 18 74 10 0 23 -5 30 -12 9 -9 12 -8 12 5 0 14 -11 17 -70 17 -60 0
-70 -2 -69 -17z"/>
<path d="M4476 2785 c-20 -44 -43 -83 -49 -87 -7 -4 3 -8 23 -8 24 0 31 3 21
9 -8 5 -11 16 -8 26 5 12 17 15 44 13 32 -3 38 -7 37 -25 0 -20 5 -23 35 -23
30 0 33 2 18 13 -9 6 -31 46 -49 86 l-34 75 -38 -79z m54 -22 c0 -7 -11 -13
-25 -13 -29 0 -29 0 -13 35 11 25 13 26 25 9 7 -10 13 -24 13 -31z"/>
<path d="M4628 2854 c8 -4 12 -30 12 -79 0 -49 -4 -75 -12 -78 -7 -3 10 -6 39
-6 65 -1 98 14 113 50 13 31 9 63 -13 93 -12 16 -29 21 -83 23 -38 1 -63 0
-56 -3z m111 -30 c12 -15 21 -38 21 -52 0 -35 -37 -72 -72 -72 -28 0 -28 0
-28 68 0 38 3 72 7 75 15 16 53 5 72 -19z"/>
<path d="M4855 2848 c-76 -41 -50 -158 35 -158 37 0 90 47 90 79 0 67 -68 111
-125 79z m79 -20 c34 -48 9 -128 -39 -128 -13 0 -31 10 -39 22 -34 48 -9 128
39 128 13 0 31 -10 39 -22z"/>
<path d="M6011 1764 c-26 -19 -27 -46 -1 -69 11 -10 20 -29 20 -42 0 -26 -9
-29 -29 -10 -11 10 -13 9 -9 -2 7 -23 43 -31 67 -15 26 19 27 46 1 69 -11 10
-20 29 -20 43 0 24 1 25 20 7 16 -15 20 -15 20 -3 0 25 -44 39 -69 22z m19
-26 c0 -16 -3 -19 -11 -11 -6 6 -8 16 -5 22 11 17 16 13 16 -11z m22 -100 c-9
-9 -12 -7 -12 12 0 19 3 21 12 12 9 -9 9 -15 0 -24z"/>
<path d="M6121 1764 c-26 -19 -27 -46 -1 -69 11 -10 20 -29 20 -42 0 -26 -9
-29 -29 -10 -11 10 -13 9 -9 -2 7 -23 43 -31 67 -15 26 19 27 49 1 71 -11 10
-20 28 -20 42 0 23 1 24 20 6 16 -15 20 -15 20 -3 0 25 -44 39 -69 22z m19
-26 c0 -16 -3 -19 -11 -11 -6 6 -8 16 -5 22 11 17 16 13 16 -11z m22 -100 c-9
-9 -12 -7 -12 12 0 19 3 21 12 12 9 -9 9 -15 0 -24z"/>
<path d="M636 4072 c-25 -50 -46 -94 -46 -97 0 -3 14 -5 30 -5 l30 0 0 -1380
0 -1380 -297 0 -298 0 0 -410 0 -410 1038 0 1037 0 0 410 0 410 -516 0 c-284
0 -514 3 -512 8 2 4 20 42 41 84 42 87 44 100 20 97 -36 -3 -43 2 -43 31 0 27
-3 30 -30 30 -27 0 -30 -3 -30 -30 0 -25 -4 -30 -24 -30 -14 0 -27 -4 -31 -10
-3 -5 12 -45 35 -89 22 -44 40 -83 40 -86 0 -3 -82 -5 -182 -5 l-183 0 3 862
c1 475 2 1096 2 1380 l0 517 29 3 29 3 -48 95 -47 95 -47 -93z m1454 -2891 c0
-5 -18 -25 -40 -45 l-41 -36 -915 0 -916 1 -47 44 -46 45 1003 0 c573 0 1002
-4 1002 -9z m-1940 -381 l0 -296 -40 -39 -40 -39 0 374 0 374 40 -39 40 -39 0
-296z m1960 -2 l0 -362 -40 39 -40 39 0 285 0 285 37 38 c20 21 38 38 40 38 2
0 3 -163 3 -362z m-98 6 c2 -157 1 -288 -1 -290 -2 -2 -418 -4 -923 -4 l-918
0 0 290 0 290 920 0 919 0 3 -286z m45 -346 c18 -18 33 -36 33 -40 0 -4 -451
-8 -1002 -8 l-1002 0 39 40 39 40 930 0 930 0 33 -32z"/>
<path d="M333 869 c13 -8 17 -24 17 -74 0 -50 -4 -66 -17 -74 -14 -8 -8 -10
27 -10 35 0 41 2 28 10 -11 6 -18 22 -18 41 0 28 2 30 30 26 25 -4 30 -1 29
16 0 12 -3 15 -6 9 -2 -7 -16 -13 -29 -13 -21 0 -24 5 -24 35 0 32 3 35 28 35
15 0 33 -5 40 -12 9 -9 12 -8 12 5 0 14 -11 17 -67 17 -51 -1 -64 -3 -50 -11z"/>
<path d="M494 794 l-40 -84 25 0 c20 0 22 3 12 9 -23 15 5 41 44 41 35 0 56
-27 33 -42 -8 -5 3 -8 27 -8 22 0 35 4 28 8 -7 4 -28 42 -47 85 -20 42 -37 77
-38 76 -2 0 -21 -38 -44 -85z m66 -16 c0 -5 -14 -8 -30 -8 l-31 0 17 32 16 32
14 -25 c7 -13 13 -27 14 -31z"/>
<path d="M658 804 c3 -56 0 -79 -10 -85 -8 -6 -1 -8 22 -8 19 0 29 3 23 6 -9
3 -13 25 -13 61 l1 57 33 -63 32 -64 32 69 32 68 0 -62 c0 -40 -4 -63 -12 -66
-7 -3 5 -5 27 -5 22 0 34 2 28 5 -9 3 -13 29 -13 78 0 49 4 75 13 78 6 3 0 6
-14 6 -21 1 -30 -8 -54 -59 -16 -33 -32 -60 -36 -60 -3 0 -18 27 -32 60 -18
41 -32 60 -44 60 -16 0 -18 -9 -15 -76z"/>
<path d="M888 873 c8 -3 12 -29 12 -78 0 -49 -4 -75 -12 -78 -7 -3 5 -5 27 -5
22 0 34 2 28 5 -9 3 -13 29 -13 78 0 49 4 75 13 78 6 3 -6 5 -28 5 -22 0 -34
-2 -27 -5z"/>
<path d="M973 869 c13 -8 17 -24 17 -74 0 -50 -4 -66 -17 -74 -14 -8 0 -10 53
-11 57 0 73 3 78 16 9 25 7 27 -10 9 -10 -10 -29 -15 -48 -13 -31 3 -31 3 -34
68 -2 52 0 67 14 77 15 11 12 13 -27 13 -35 -1 -40 -3 -26 -11z"/>
<path d="M1138 873 c8 -3 12 -29 12 -78 0 -49 -4 -75 -12 -78 -7 -3 5 -5 27
-5 22 0 34 2 28 5 -9 3 -13 29 -13 78 0 49 4 75 13 78 6 3 -6 5 -28 5 -22 0
-34 -2 -27 -5z"/>
<path d="M1270 815 c-17 -38 -39 -78 -47 -87 -15 -17 -14 -18 18 -18 24 0 30
3 20 9 -8 5 -11 16 -8 26 5 12 17 15 44 13 32 -3 38 -7 37 -25 0 -19 5 -23 29
-23 23 0 27 3 18 13 -6 8 -26 47 -45 88 l-35 74 -31 -70z m45 -22 c5 -20 3
-23 -19 -23 -30 0 -29 0 -16 36 11 29 23 24 35 -13z"/>
<path d="M1432 868 c-22 -22 -14 -56 17 -73 47 -24 64 -45 50 -61 -15 -19 -38
-18 -61 3 -16 14 -18 14 -18 0 0 -18 49 -32 79 -22 22 7 35 34 26 56 -3 8 -22
23 -43 34 -24 13 -37 27 -37 40 0 31 46 27 62 -5 l13 -25 0 30 c0 28 -3 30
-38 33 -21 1 -43 -3 -50 -10z"/>
<path d="M1060 4004 c0 -31 3 -34 29 -34 22 0 30 5 33 24 7 33 -2 44 -34 44
-25 0 -28 -4 -28 -34z"/>
<path d="M7646 4033 c-3 -4 -6 -19 -6 -35 0 -25 3 -28 36 -28 34 0 35 1 32 32
-2 27 -7 33 -30 35 -14 1 -29 -1 -32 -4z"/>
<path d="M1510 3967 c0 -4 24 -47 53 -96 l53 -91 21 28 c17 22 23 25 34 15 19
-18 26 -16 45 13 16 24 16 26 -5 40 -19 14 -20 17 -6 37 8 12 15 24 15 28 0 3
-33 9 -72 13 -40 4 -88 9 -105 13 -18 3 -33 3 -33 0z"/>
<path d="M1060 3870 c0 -27 3 -30 30 -30 27 0 30 3 30 30 0 27 -3 30 -30 30
-27 0 -30 -3 -30 -30z"/>
<path d="M7640 3870 c0 -28 3 -30 35 -30 32 0 35 2 35 30 0 28 -3 30 -35 30
-32 0 -35 -2 -35 -30z"/>
<path d="M1770 3795 c-12 -22 -11 -27 6 -40 28 -21 39 -18 53 11 6 15 10 28 9
29 -6 5 -47 25 -51 25 -2 0 -10 -11 -17 -25z"/>
<path d="M1060 3738 c0 -29 3 -33 30 -35 28 -2 30 0 30 32 0 32 -2 35 -30 35
-27 0 -30 -3 -30 -32z"/>
<path d="M7640 3741 c0 -35 12 -45 46 -37 19 5 24 13 24 36 0 28 -3 30 -35 30
-32 0 -35 -2 -35 -29z"/>
<path d="M1881 3723 c-11 -23 -10 -29 5 -40 25 -18 37 -16 53 9 12 19 11 24
-9 40 -29 24 -35 23 -49 -9z"/>
<path d="M1994 3655 c-16 -24 -16 -27 2 -40 26 -20 41 -18 54 5 12 23 7 35
-20 50 -16 8 -22 6 -36 -15z"/>
<path d="M1060 3605 c0 -32 2 -35 30 -35 28 0 30 3 30 35 0 32 -2 35 -30 35
-28 0 -30 -3 -30 -35z"/>
<path d="M7640 3605 c0 -33 2 -35 35 -35 33 0 35 2 35 35 0 33 -2 35 -35 35
-33 0 -35 -2 -35 -35z"/>
<path d="M2104 3585 c-13 -20 -14 -29 -5 -38 8 -8 11 -90 11 -275 0 -207 3
-263 13 -259 92 38 117 42 195 24 43 -9 115 -28 161 -42 102 -31 157 -32 222
-4 l49 21 0 269 0 269 -42 -23 c-64 -33 -138 -29 -283 16 -94 30 -134 37 -186
36 -47 -1 -72 3 -91 15 -26 17 -27 17 -44 -9z m316 -57 c118 -37 220 -46 273
-25 l37 16 0 -250 0 -250 -36 -15 c-59 -25 -131 -19 -263 21 -136 40 -219 47
-270 21 l-31 -17 0 250 c0 249 0 250 23 262 61 33 129 30 267 -13z"/>
<path d="M2296 3335 c-22 -23 -21 -29 19 -64 19 -17 35 -37 35 -46 0 -18 -31
-20 -48 -3 -9 9 -12 9 -12 0 0 -34 75 -25 86 10 5 18 -1 29 -30 54 -20 17 -36
36 -36 43 0 15 33 14 49 -1 11 -11 13 -10 9 2 -6 21 -52 24 -72 5z"/>
<path d="M2406 3335 c-22 -23 -21 -29 19 -64 19 -17 35 -37 35 -46 0 -18 -31
-20 -48 -3 -9 9 -12 9 -12 0 0 -34 75 -25 86 10 5 18 -1 29 -30 54 -20 17 -36
36 -36 43 0 15 33 14 49 -1 11 -11 13 -10 9 2 -6 21 -52 24 -72 5z"/>
<path d="M1060 3475 c0 -32 2 -35 30 -35 28 0 30 3 30 35 0 32 -2 35 -30 35
-28 0 -30 -3 -30 -35z"/>
<path d="M7640 3475 c0 -33 2 -35 35 -35 33 0 35 2 35 35 0 33 -2 35 -35 35
-33 0 -35 -2 -35 -35z"/>
<path d="M1060 3343 c0 -30 3 -33 30 -33 27 0 30 3 30 33 0 30 -3 33 -30 33
-27 0 -30 -3 -30 -33z"/>
<path d="M7647 3374 c-4 -4 -7 -20 -7 -36 0 -25 3 -28 36 -28 34 0 35 1 32 33
-2 26 -8 33 -28 35 -14 2 -29 0 -33 -4z"/>
<path d="M1060 3210 c0 -27 -3 -30 -30 -30 -16 0 -30 -4 -30 -10 0 -13 83
-180 90 -180 3 0 27 43 53 95 l47 95 -35 0 c-32 0 -35 2 -35 30 0 27 -3 30
-30 30 -27 0 -30 -3 -30 -30z"/>
<path d="M7640 3210 c0 -28 3 -30 35 -30 32 0 35 2 35 30 0 28 -3 30 -35 30
-32 0 -35 -2 -35 -30z"/>
<path d="M7350 3180 c-19 -4 -48 -13 -63 -21 l-29 -15 -1 -267 c-1 -147 -1
-267 -1 -267 1 0 21 9 45 20 63 28 129 25 250 -11 57 -18 108 -35 112 -39 5
-4 -12 -48 -37 -98 -43 -85 -44 -91 -26 -97 11 -3 24 -3 30 0 6 4 10 -8 10
-29 0 -34 2 -36 34 -36 32 0 35 3 38 33 3 28 7 32 31 31 15 -1 27 3 27 8 0 4
-20 48 -44 97 l-45 88 57 -1 c33 -1 77 7 105 17 l47 19 0 268 0 269 -42 -19
c-64 -29 -134 -25 -267 14 -125 38 -176 45 -231 36z m220 -49 c123 -39 191
-47 253 -28 l47 15 0 -248 0 -248 -32 -13 c-55 -23 -152 -16 -263 19 -151 47
-206 50 -287 17 -17 -7 -18 9 -18 244 0 138 1 251 3 251 1 0 20 7 42 15 55 21
138 13 255 -24z"/>
<path d="M7451 2954 c-26 -19 -27 -46 -1 -69 11 -10 20 -29 20 -42 0 -26 -9
-29 -29 -10 -11 10 -13 9 -9 -2 7 -23 43 -31 67 -15 26 19 27 49 1 71 -11 10
-20 28 -20 42 0 23 1 24 20 6 16 -15 20 -15 20 -3 0 25 -44 39 -69 22z m19
-26 c0 -16 -3 -19 -11 -11 -6 6 -8 16 -5 22 11 17 16 13 16 -11z m22 -100 c-9
-9 -12 -7 -12 12 0 19 3 21 12 12 9 -9 9 -15 0 -24z"/>
<path d="M7561 2954 c-26 -19 -27 -46 -1 -69 11 -10 20 -29 20 -42 0 -26 -9
-29 -29 -10 -11 10 -13 9 -9 -2 7 -23 43 -31 67 -15 26 19 27 49 1 71 -11 10
-20 28 -20 42 0 23 1 24 20 6 16 -15 20 -15 20 -3 0 25 -44 39 -69 22z m19
-26 c0 -16 -3 -19 -11 -11 -6 6 -8 16 -5 22 11 17 16 13 16 -11z m22 -100 c-9
-9 -12 -7 -12 12 0 19 3 21 12 12 9 -9 9 -15 0 -24z"/>
<path d="M2772 3160 c-17 -28 -15 -36 12 -53 23 -16 25 -15 41 10 17 26 17 27
-5 45 -28 23 -32 23 -48 -2z"/>
<path d="M2881 3083 c-11 -23 -10 -29 5 -40 25 -18 37 -16 53 9 12 19 11 24
-9 40 -29 24 -35 23 -49 -9z"/>
<path d="M2994 3015 c-17 -27 -17 -28 7 -46 24 -18 24 -18 42 3 21 25 19 36
-10 55 -20 13 -23 12 -39 -12z"/>
<path d="M965 2983 c-11 -3 -35 -12 -52 -20 l-33 -15 0 -269 0 -269 40 20 c54
28 139 26 237 -4 173 -54 237 -60 312 -30 l41 16 0 269 0 270 -32 -18 c-54
-29 -164 -23 -281 15 -98 31 -193 46 -232 35z m145 -28 c266 -73 263 -72 368
-40 l22 7 0 -246 0 -245 -32 -18 c-52 -28 -145 -22 -267 16 -122 38 -191 47
-246 32 -57 -15 -59 -14 -58 19 1 17 2 127 2 245 l1 216 33 14 c42 19 110 19
177 0z"/>
<path d="M1071 2754 c-27 -19 -27 -50 -1 -66 12 -8 20 -24 20 -40 0 -32 -14
-36 -30 -10 -10 16 -11 16 -8 -2 2 -10 13 -22 24 -27 49 -18 89 57 44 81 -12
7 -20 21 -20 37 0 26 0 26 21 7 21 -19 21 -19 18 0 -6 27 -42 38 -68 20z m15
-31 c-10 -10 -19 5 -10 18 6 11 8 11 12 0 2 -7 1 -15 -2 -18z m26 -95 c-9 -9
-12 -7 -12 12 0 19 3 21 12 12 9 -9 9 -15 0 -24z"/>
<path d="M1181 2754 c-27 -19 -27 -50 -1 -66 12 -8 20 -24 20 -40 0 -32 -14
-36 -30 -10 -10 16 -11 16 -8 -2 2 -10 13 -22 24 -27 49 -18 89 57 44 81 -12
7 -20 21 -20 37 0 26 0 26 21 7 21 -19 21 -19 18 0 -6 27 -42 38 -68 20z m19
-26 c0 -16 -3 -19 -11 -11 -6 6 -8 16 -5 22 11 17 16 13 16 -11z m22 -100 c-9
-9 -12 -7 -12 12 0 19 3 21 12 12 9 -9 9 -15 0 -24z"/>
<path d="M3105 2943 c-17 -25 -17 -27 6 -44 31 -24 34 -24 48 7 13 28 9 39
-19 54 -14 8 -21 4 -35 -17z"/>
<path d="M3190 2890 c-29 -44 -51 -82 -49 -84 6 -5 203 -26 207 -22 2 2 -21
45 -51 95 l-54 91 -53 -80z"/>
<path d="M1060 2356 c0 -33 2 -36 29 -36 22 0 30 5 33 24 6 32 -1 40 -34 44
-26 3 -28 1 -28 -32z"/>
<path d="M1060 2220 c0 -27 3 -30 30 -30 27 0 30 3 30 30 0 27 -3 30 -30 30
-27 0 -30 -3 -30 -30z"/>
<path d="M7640 2220 c0 -28 3 -30 35 -30 32 0 35 2 35 30 0 28 -3 30 -35 30
-32 0 -35 -2 -35 -30z"/>
<path d="M5014 2174 c3 -8 29 -48 57 -91 48 -70 53 -75 65 -58 8 10 14 22 14
27 0 4 11 2 25 -4 21 -10 28 -8 40 8 16 21 20 44 8 44 -5 0 -14 4 -22 9 -11 7
-10 13 4 34 16 26 16 26 -17 31 -18 3 -66 7 -106 9 -59 4 -72 2 -68 -9z"/>
<path d="M1062 2088 c3 -28 7 -33 31 -34 24 -1 27 2 27 32 0 31 -3 34 -31 34
-28 0 -30 -2 -27 -32z"/>
<path d="M7640 2090 c0 -23 5 -31 24 -36 34 -8 46 2 46 37 0 27 -3 29 -35 29
-32 0 -35 -2 -35 -30z"/>
<path d="M5276 2030 c-15 -27 -15 -28 9 -44 32 -21 32 -21 49 12 14 26 13 28
-13 44 -27 15 -29 15 -45 -12z"/>
<path d="M1060 1955 c0 -32 2 -35 30 -35 28 0 30 3 30 35 0 32 -2 35 -30 35
-28 0 -30 -3 -30 -35z"/>
<path d="M5392 1965 c-15 -33 -16 -30 12 -48 23 -16 25 -15 41 10 17 25 17 27
-6 44 -31 24 -34 24 -47 -6z"/>
<path d="M7640 1955 c0 -33 2 -35 35 -35 33 0 35 2 35 35 0 33 -2 35 -35 35
-33 0 -35 -2 -35 -35z"/>
<path d="M5501 1894 c-6 -15 -10 -28 -9 -29 2 -1 14 -8 27 -15 21 -11 26 -10
38 6 18 25 16 42 -6 54 -29 15 -37 13 -50 -16z"/>
<path d="M1060 1825 c0 -32 2 -35 30 -35 28 0 30 3 30 35 0 32 -2 35 -30 35
-28 0 -30 -3 -30 -35z"/>
<path d="M5618 1829 c-17 -29 -17 -29 12 -44 27 -14 30 -14 44 7 22 30 20 35
-12 52 -26 14 -28 13 -44 -15z"/>
<path d="M7640 1825 c0 -33 2 -35 35 -35 33 0 35 2 35 35 0 33 -2 35 -35 35
-33 0 -35 -2 -35 -35z"/>
<path d="M5731 1763 c-11 -23 -10 -29 5 -40 25 -18 42 -16 54 6 15 29 13 37
-15 49 -33 15 -30 16 -44 -15z"/>
<path d="M1060 1694 c0 -31 2 -34 31 -34 28 0 30 2 27 32 -3 28 -7 33 -30 35
-26 2 -28 -1 -28 -33z"/>
<path d="M7647 1724 c-4 -4 -7 -20 -7 -36 0 -25 3 -28 36 -28 34 0 35 1 32 33
-2 26 -8 33 -28 35 -14 2 -29 0 -33 -4z"/>
<path d="M1060 1560 c0 -27 3 -30 30 -30 27 0 30 3 30 30 0 27 -3 30 -30 30
-27 0 -30 -3 -30 -30z"/>
<path d="M7640 1560 c0 -28 3 -30 35 -30 32 0 35 2 35 30 0 28 -3 30 -35 30
-32 0 -35 -2 -35 -30z"/>
<path d="M7640 1431 c0 -35 12 -45 46 -37 19 5 24 13 24 36 0 28 -3 30 -35 30
-32 0 -35 -2 -35 -29z"/>
<path d="M4418 1383 c-21 -8 -38 -20 -38 -27 0 -6 -1 -82 -2 -168 0 -86 -4
-162 -8 -168 -5 -8 -32 1 -88 29 -45 23 -84 41 -87 41 -3 0 -5 -13 -5 -30 0
-16 -4 -30 -9 -30 -10 0 -8 -57 3 -67 3 -3 6 -19 6 -35 l0 -28 90 45 c50 25
91 42 91 38 1 -5 2 -39 3 -78 1 -40 6 -69 11 -68 6 1 30 10 55 19 59 21 126
14 255 -27 121 -39 209 -44 273 -15 l42 19 0 63 c0 61 1 63 28 66 22 2 28 8
30 36 3 30 1 32 -27 32 l-31 0 0 170 0 170 -41 -20 c-62 -32 -135 -28 -276 14
-133 40 -213 45 -275 19z m268 -34 c122 -38 204 -46 262 -26 l42 15 0 -250 0
-249 -35 -15 c-55 -22 -124 -17 -257 22 -142 41 -195 47 -258 28 -25 -8 -46
-14 -47 -14 -2 0 -3 110 -3 244 0 265 -2 256 60 275 50 15 122 6 236 -30z"/>
<path d="M4571 1164 c-26 -19 -27 -46 -1 -69 11 -10 20 -29 20 -42 0 -26 -9
-29 -29 -10 -11 10 -13 9 -9 -2 7 -23 43 -31 67 -15 26 19 27 49 1 71 -11 10
-20 28 -20 42 0 23 1 24 20 6 16 -15 20 -15 20 -3 0 25 -44 39 -69 22z m19
-26 c0 -16 -3 -19 -11 -11 -6 6 -8 16 -5 22 11 17 16 13 16 -11z m22 -100 c-9
-9 -12 -7 -12 12 0 19 3 21 12 12 9 -9 9 -15 0 -24z"/>
<path d="M4681 1164 c-26 -19 -27 -46 -1 -69 11 -10 20 -29 20 -42 0 -26 -9
-29 -29 -10 -11 10 -13 9 -9 -2 7 -23 43 -31 67 -15 26 19 27 46 1 69 -11 10
-20 29 -20 43 0 24 1 25 20 7 16 -15 20 -15 20 -3 0 25 -44 39 -69 22z m19
-26 c0 -16 -3 -19 -11 -11 -6 6 -8 16 -5 22 11 17 16 13 16 -11z m22 -100 c-9
-9 -12 -7 -12 12 0 19 3 21 12 12 9 -9 9 -15 0 -24z"/>
<path d="M6420 1371 c-15 -29 -13 -37 15 -49 22 -10 27 -9 41 14 16 23 16 26
-2 39 -26 20 -41 18 -54 -4z"/>
<path d="M6535 1303 c-17 -25 -17 -27 6 -44 31 -24 34 -24 48 7 13 28 9 39
-19 54 -14 8 -21 4 -35 -17z"/>
<path d="M6650 1241 c-15 -29 -13 -39 12 -52 18 -10 24 -8 40 11 24 29 23 35
-7 48 -33 15 -32 15 -45 -7z"/>
<path d="M6759 1168 c-10 -18 -8 -24 11 -40 29 -24 35 -23 49 9 11 23 10 29
-5 40 -26 19 -42 16 -55 -9z"/>
<path d="M6920 1155 c-7 -14 -17 -25 -21 -25 -5 0 -15 -13 -24 -30 -9 -16 -13
-30 -9 -30 3 0 -1 -12 -11 -26 -9 -14 -15 -27 -13 -29 9 -7 208 -15 208 -8 0
7 -100 156 -113 169 -2 2 -10 -7 -17 -21z"/>
<path d="M6653 1073 c0 -38 -4 -43 -32 -43 -31 0 -45 -20 -36 -51 4 -13 16
-19 36 -19 24 0 29 -4 29 -25 0 -35 20 -32 120 19 l85 44 -93 46 c-50 25 -96
46 -100 46 -5 0 -9 -8 -9 -17z"/>
<path d="M2330 995 c0 -32 2 -35 30 -35 28 0 30 3 30 35 0 32 -2 35 -30 35
-28 0 -30 -3 -30 -35z"/>
<path d="M2460 995 c0 -32 2 -35 30 -35 17 0 30 3 31 8 0 4 3 19 5 35 4 25 2
27 -31 27 -33 0 -35 -2 -35 -35z"/>
<path d="M2592 998 c3 -29 6 -33 33 -33 27 0 30 4 33 33 3 31 2 32 -33 32 -35
0 -36 -1 -33 -32z"/>
<path d="M2720 1000 c0 -17 5 -30 13 -31 6 0 22 -2 35 -3 19 -2 22 2 22 31 0
31 -2 33 -35 33 -32 0 -35 -2 -35 -30z"/>
<path d="M2854 998 c1 -30 4 -33 31 -33 27 0 30 4 33 33 3 30 2 32 -31 32 -31
0 -33 -2 -33 -32z"/>
<path d="M2990 1000 c0 -16 3 -30 8 -31 4 0 17 -2 30 -5 19 -3 22 0 22 31 0
32 -2 35 -30 35 -27 0 -30 -3 -30 -30z"/>
<path d="M3120 1001 c0 -36 7 -41 43 -34 23 5 27 10 25 34 -2 26 -6 29 -35 29
-30 0 -33 -3 -33 -29z"/>
<path d="M3250 994 c0 -34 1 -35 33 -32 28 3 32 7 35 36 3 31 2 32 -32 32 -35
0 -36 -1 -36 -36z"/>
<path d="M3382 998 c3 -29 6 -33 36 -34 30 -1 32 1 32 32 0 32 -2 34 -36 34
-34 0 -35 -1 -32 -32z"/>
<path d="M3512 998 c3 -30 6 -33 36 -34 30 -1 32 1 32 33 0 31 -2 33 -36 33
-34 0 -35 -1 -32 -32z"/>
<path d="M3650 997 c0 -30 3 -33 30 -33 27 0 30 3 30 33 0 30 -3 33 -30 33
-27 0 -30 -3 -30 -33z"/>
<path d="M3780 997 c0 -32 2 -34 33 -33 29 1 32 4 33 34 1 30 -1 32 -32 32
-32 0 -34 -2 -34 -33z"/>
<path d="M3910 996 c0 -31 2 -33 33 -32 29 1 32 5 35 34 3 31 2 32 -32 32 -34
0 -36 -2 -36 -34z"/>
<path d="M4042 998 c3 -29 7 -33 36 -36 31 -3 32 -2 32 32 0 35 -1 36 -36 36
-34 0 -35 -1 -32 -32z"/>
<path d="M5132 998 c3 -29 6 -33 36 -34 30 -1 32 1 32 32 0 32 -2 34 -36 34
-34 0 -35 -1 -32 -32z"/>
<path d="M5265 1019 c-4 -5 -4 -21 -1 -34 5 -19 12 -24 29 -21 12 3 25 5 30 5
4 1 7 15 7 31 0 27 -3 30 -29 30 -17 0 -33 -5 -36 -11z"/>
<path d="M5400 996 c0 -31 2 -34 30 -32 27 1 30 4 30 33 0 30 -3 33 -30 33
-27 0 -30 -3 -30 -34z"/>
<path d="M5530 1002 c0 -24 5 -31 25 -36 35 -9 46 0 42 32 -3 22 -9 28 -35 30
-29 3 -32 1 -32 -26z"/>
<path d="M5662 998 c5 -51 68 -49 68 3 0 27 -3 29 -36 29 -34 0 -35 -1 -32
-32z"/>
<path d="M5790 1000 c0 -16 3 -31 8 -31 61 -10 62 -9 62 27 0 32 -2 34 -35 34
-32 0 -35 -2 -35 -30z"/>
<path d="M5929 1028 c-1 -2 -3 -15 -4 -30 -3 -20 2 -27 18 -32 41 -11 47 -7
47 29 0 32 -2 35 -30 35 -16 0 -31 -1 -31 -2z"/>
<path d="M6060 997 c0 -29 3 -32 30 -33 28 -2 30 1 30 32 0 31 -3 34 -30 34
-27 0 -30 -3 -30 -33z"/>
<path d="M6192 998 c2 -25 8 -32 29 -35 29 -4 44 17 34 48 -4 13 -16 19 -36
19 -28 0 -30 -2 -27 -32z"/>
<path d="M6320 1000 c0 -16 3 -31 8 -31 48 -8 57 -3 60 29 3 31 2 32 -32 32
-33 0 -36 -2 -36 -30z"/>
<path d="M6452 998 c3 -29 6 -33 33 -33 27 0 30 4 33 33 3 31 2 32 -33 32 -35
0 -36 -1 -33 -32z"/>
<path d="M2420 650 l-95 -47 93 -47 c50 -25 94 -46 97 -46 3 0 5 14 5 30 l0
30 2271 0 2270 0 -3 30 -3 30 -2245 0 c-1235 0 -2255 3 -2267 6 -15 4 -23 15
-25 34 l-3 28 -95 -48z"/>
</g>
</svg>
