<?xml version="1.0" standalone="no"?>
<!DOCTYPE svg PUBLIC "-//W3C//DTD SVG 20010904//EN"
 "http://www.w3.org/TR/2001/REC-SVG-20010904/DTD/svg10.dtd">
<svg version="1.0" xmlns="http://www.w3.org/2000/svg"
 width="1261.000000pt" height="234.000000pt" viewBox="0 0 1261.000000 234.000000"
 preserveAspectRatio="xMidYMid meet">

<g transform="translate(0.000000,234.000000) scale(0.100000,-0.100000)"
fill="#000000" stroke="none">
<path d="M400 2251 c-72 -23 -106 -42 -158 -86 -54 -47 -97 -110 -125 -183
-21 -56 -22 -66 -25 -762 -2 -439 1 -729 7 -770 29 -185 178 -332 366 -360 48
-7 1302 -10 3980 -8 l3910 3 60 24 c139 56 229 151 271 290 7 25 14 60 15 76
1 19 5 11 10 -25 26 -153 136 -286 287 -343 l57 -22 1514 -3 c907 -1 1542 1
1583 7 171 24 308 138 358 300 19 60 20 94 20 790 0 637 -2 734 -16 782 -39
133 -148 244 -284 288 -63 21 -68 21 -1611 21 -1505 0 -1549 -1 -1610 -19 -81
-26 -157 -79 -210 -147 -45 -59 -88 -164 -90 -222 -2 -33 -2 -34 -6 -7 -14
108 -57 197 -131 269 -65 64 -96 83 -173 106 -66 20 -102 20 -4005 19 -3744 0
-3942 -1 -3994 -18z m7984 -16 c154 -47 283 -198 294 -343 l4 -57 -22 43 c-30
58 -83 99 -144 112 -35 8 -305 10 -876 8 l-826 -3 -49 -36 c-50 -35 -65 -56
-86 -114 l-11 -30 -12 36 c-24 69 -78 120 -146 139 -45 13 -1870 13 -1924 1
-52 -13 -106 -58 -133 -111 -23 -43 -23 -50 -23 -410 0 -228 4 -379 11 -404
15 -55 84 -120 141 -134 34 -9 300 -12 971 -12 1027 0 981 -3 1051 67 21 22
42 56 50 82 l13 46 13 -40 c18 -56 56 -103 104 -128 l41 -22 850 0 850 0 43
23 c43 23 102 92 102 121 0 9 4 21 8 28 4 6 6 -139 4 -323 -3 -365 -4 -372
-66 -479 -35 -59 -130 -137 -203 -167 l-58 -23 -3910 -3 c-2740 -2 -3931 1
-3980 8 -177 27 -315 163 -345 340 -7 45 -10 285 -8 770 l3 705 23 57 c46 115
155 217 268 251 43 14 503 16 3989 16 3464 1 3946 -1 3989 -14z m3886 -22 c85
-41 161 -117 202 -201 l33 -67 0 -765 0 -766 -38 -76 c-60 -122 -165 -203
-297 -228 -72 -14 -3028 -14 -3100 0 -130 25 -242 110 -301 228 l-34 67 0 770
0 770 28 59 c53 115 136 189 255 227 54 17 126 18 1622 16 l1565 -2 65 -32z
m-5735 -252 c51 -23 91 -70 105 -122 7 -26 10 -166 8 -403 l-3 -364 -30 -43
c-16 -23 -50 -53 -74 -66 l-44 -23 -946 0 -947 0 -44 23 c-24 12 -58 39 -74
60 l-31 39 -3 384 c-2 342 -1 388 14 420 21 44 65 86 106 101 25 8 278 12 978
12 896 1 947 0 985 -18z m2015 -3 c24 -13 58 -40 74 -61 l31 -39 3 -384 c3
-363 2 -386 -17 -421 -24 -48 -56 -78 -103 -98 -33 -13 -140 -15 -863 -15
-723 0 -830 2 -863 15 -49 21 -81 52 -103 100 -17 37 -19 71 -19 403 0 305 2
369 15 400 21 49 52 81 100 103 38 18 84 19 870 19 l831 0 44 -22z"/>
<path d="M366 1990 c-41 -13 -90 -49 -114 -84 -38 -56 -43 -115 -40 -477 3
-291 6 -349 19 -379 20 -44 59 -83 107 -107 35 -17 83 -18 861 -21 940 -3 900
-6 969 74 59 66 65 112 60 509 -4 360 -5 370 -64 428 -66 66 -4 62 -929 64
-462 1 -853 -2 -869 -7z m1752 -43 c23 -15 52 -46 64 -70 23 -42 23 -46 23
-417 l0 -375 -25 -45 c-19 -34 -38 -52 -80 -73 l-54 -27 -842 2 -841 3 -41 29
c-26 18 -51 47 -67 79 l-25 51 0 351 c0 237 4 363 11 386 18 53 58 99 103 120
39 18 78 19 887 16 l845 -2 42 -28z"/>
<path d="M860 1880 c0 -5 5 -10 10 -10 6 0 10 5 10 10 0 6 -4 10 -10 10 -5 0
-10 -4 -10 -10z"/>
<path d="M1475 1880 c-3 -5 -1 -10 4 -10 6 0 11 5 11 10 0 6 -2 10 -4 10 -3 0
-8 -4 -11 -10z"/>
<path d="M431 1866 c-31 -37 9 -103 47 -80 36 23 23 94 -18 94 -10 0 -23 -6
-29 -14z m54 -36 c0 -18 -6 -26 -23 -28 -13 -2 -25 3 -28 12 -10 26 4 48 28
44 17 -2 23 -10 23 -28z"/>
<path d="M530 1818 c0 -21 5 -38 10 -38 6 0 10 14 10 30 0 17 5 30 10 30 6 0
10 4 10 8 0 4 -9 8 -20 8 -16 0 -20 -7 -20 -38z"/>
<path d="M598 1853 c-2 -5 -3 -28 -3 -53 0 -48 21 -64 50 -40 21 17 19 30 -4
30 -27 0 -35 17 -12 23 10 2 20 14 24 26 4 18 1 21 -23 21 -16 0 -30 -3 -32
-7z m34 -18 c0 -5 -5 -11 -11 -13 -6 -2 -11 4 -11 13 0 9 5 15 11 13 6 -2 11
-8 11 -13z m8 -65 c0 -5 -9 -10 -20 -10 -11 0 -20 5 -20 10 0 6 9 10 20 10 11
0 20 -4 20 -10z"/>
<path d="M705 1847 c17 -13 17 -14 -4 -20 -13 -3 -21 -13 -21 -26 0 -16 6 -20
28 -18 23 2 28 6 26 29 -2 34 -11 48 -32 48 -14 0 -13 -2 3 -13z m13 -39 c-6
-18 -28 -21 -28 -4 0 9 7 16 16 16 9 0 14 -5 12 -12z"/>
<path d="M772 1816 c1 -38 2 -38 5 -8 5 42 35 40 45 -3 6 -26 6 -25 5 10 -2
36 -5 40 -29 41 -26 1 -28 -1 -26 -40z"/>
<path d="M860 1820 c0 -22 5 -40 10 -40 6 0 10 18 10 40 0 22 -4 40 -10 40 -5
0 -10 -18 -10 -40z"/>
<path d="M913 1849 c16 -9 16 -12 2 -32 -21 -30 -19 -37 13 -36 16 1 20 3 10
6 -22 5 -22 12 -3 37 21 28 19 36 -12 36 -24 -1 -26 -2 -10 -11z"/>
<path d="M985 1851 c-3 -6 0 -8 8 -5 8 3 18 1 21 -4 3 -6 -6 -13 -20 -16 -35
-9 -28 -41 9 -42 26 -1 28 1 25 35 -3 36 -28 55 -43 32z m33 -43 c-6 -18 -28
-21 -28 -4 0 9 7 16 16 16 9 0 14 -5 12 -12z"/>
<path d="M1072 1848 c-17 -17 -15 -55 4 -62 23 -9 34 -7 34 4 0 6 -7 10 -15
10 -8 0 -15 9 -15 20 0 11 7 20 15 20 8 0 15 5 15 10 0 14 -23 13 -38 -2z"/>
<path d="M1143 1820 c0 -25 2 -35 4 -22 2 12 2 32 0 45 -2 12 -4 2 -4 -23z"/>
<path d="M1193 1853 c-22 -8 -16 -61 8 -68 28 -9 41 6 37 41 -3 28 -20 38 -45
27z m37 -33 c0 -11 -6 -20 -14 -20 -18 0 -29 16 -21 30 11 18 35 11 35 -10z"/>
<path d="M1270 1818 c0 -21 5 -38 10 -38 6 0 10 14 10 30 0 20 5 30 15 30 10
0 15 -10 15 -30 0 -16 5 -30 10 -30 14 0 12 57 -2 67 -7 4 -23 8 -35 8 -20 1
-23 -4 -23 -37z"/>
<path d="M1407 1853 c-13 -13 -7 -32 13 -38 11 -4 18 -11 14 -16 -3 -6 -12 -8
-20 -5 -8 3 -14 1 -14 -4 0 -6 9 -10 20 -10 27 0 38 29 17 45 -21 15 -22 29
-1 21 8 -3 12 -2 9 4 -7 11 -28 13 -38 3z"/>
<path d="M1475 1825 c1 -50 15 -56 15 -7 0 23 -4 42 -8 42 -5 0 -8 -16 -7 -35z"/>
<path d="M1521 1815 c2 -28 3 -32 6 -13 2 14 11 32 18 38 16 13 20 8 29 -40 2
-14 3 -7 3 15 -2 36 -4 40 -29 40 -26 1 -28 -2 -27 -40z"/>
<path d="M422 1663 c-4 -10 -5 -36 -1 -58 5 -35 6 -36 8 -9 0 16 6 35 13 42 9
9 9 12 -2 12 -9 0 -8 5 6 15 17 13 17 14 2 15 -10 0 -21 -8 -26 -17z"/>
<path d="M470 1670 c0 -5 5 -10 11 -10 5 0 7 5 4 10 -3 6 -8 10 -11 10 -2 0
-4 -4 -4 -10z"/>
<path d="M850 1661 c0 -11 -6 -18 -16 -17 -9 0 -21 -7 -28 -16 -15 -25 4 -53
38 -53 25 -1 26 1 26 52 0 29 -4 53 -10 53 -5 0 -10 -8 -10 -19z m-2 -68 c-16
-15 -18 -15 -24 0 -3 9 -3 25 0 34 6 15 8 15 24 0 15 -16 15 -18 0 -34z"/>
<path d="M1020 1625 c0 -30 5 -55 10 -55 6 0 10 25 10 55 0 30 -4 55 -10 55
-5 0 -10 -25 -10 -55z"/>
<path d="M470 1610 c0 -22 5 -40 10 -40 6 0 10 18 10 40 0 22 -4 40 -10 40 -5
0 -10 -18 -10 -40z"/>
<path d="M522 1605 c1 -36 2 -37 5 -7 3 23 9 32 23 32 14 0 20 -9 23 -32 4
-27 4 -25 3 7 -1 37 -3 40 -28 40 -26 1 -28 -2 -26 -40z"/>
<path d="M623 1643 c-30 -12 -7 -74 27 -72 10 0 7 4 -7 11 -30 15 -29 28 2 28
28 0 34 24 9 34 -9 3 -16 6 -17 5 -1 0 -8 -3 -14 -6z m32 -13 c3 -5 -3 -10
-15 -10 -12 0 -18 5 -15 10 3 6 10 10 15 10 5 0 12 -4 15 -10z"/>
<path d="M694 1639 c-4 -7 4 -20 17 -30 l24 -18 -25 -10 c-25 -10 -25 -10 -2
-10 29 -1 41 28 19 44 -18 13 -24 31 -8 20 5 -3 12 -1 16 5 3 5 -3 10 -14 10
-11 0 -23 -5 -27 -11z"/>
<path d="M900 1630 c-15 -27 4 -60 33 -59 l22 0 -22 9 c-31 12 -29 30 2 30 27
0 32 9 13 28 -18 18 -36 15 -48 -8z m35 0 c3 -5 -1 -10 -10 -10 -9 0 -13 5
-10 10 3 6 8 10 10 10 2 0 7 -4 10 -10z"/>
<path d="M1060 1621 c0 -33 13 -46 48 -46 19 -1 22 4 22 37 0 46 -18 51 -22 6
-2 -18 -7 -33 -13 -33 -5 0 -11 15 -13 33 -4 40 -22 43 -22 3z"/>
<path d="M1161 1628 c-15 -39 24 -80 44 -48 3 6 -3 10 -14 10 -14 0 -21 6 -21
20 0 11 6 20 14 20 8 0 18 5 21 10 3 6 -3 10 -15 10 -12 0 -24 -9 -29 -22z"/>
<path d="M1235 1608 c0 -21 3 -38 8 -38 4 0 7 14 7 30 0 20 5 30 15 30 8 0 15
3 15 8 0 4 -10 7 -23 7 -20 0 -23 -5 -22 -37z"/>
<path d="M1301 1628 c-9 -24 2 -58 19 -58 25 0 40 15 40 40 0 26 -15 40 -41
40 -5 0 -13 -10 -18 -22z m44 -18 c0 -8 -8 -16 -17 -18 -13 -2 -18 3 -18 18 0
15 5 20 18 18 9 -2 17 -10 17 -18z"/>
<path d="M680 1452 c0 -13 -7 -18 -22 -18 -18 1 -24 -5 -26 -28 -2 -16 1 -33
7 -39 16 -16 26 0 12 17 -15 18 -6 36 16 36 11 0 14 -7 11 -25 -3 -14 -1 -28
3 -31 5 -3 9 20 9 50 0 31 -2 56 -5 56 -3 0 -5 -8 -5 -18z"/>
<path d="M720 1460 c0 -5 5 -10 10 -10 6 0 10 5 10 10 0 6 -4 10 -10 10 -5 0
-10 -4 -10 -10z"/>
<path d="M840 1460 c0 -5 5 -10 11 -10 5 0 7 5 4 10 -3 6 -8 10 -11 10 -2 0
-4 -4 -4 -10z"/>
<path d="M1163 1415 c0 -33 2 -45 4 -27 2 18 2 45 0 60 -2 15 -4 0 -4 -33z"/>
<path d="M417 1444 c-9 -10 10 -78 23 -82 12 -4 13 -2 3 9 -18 18 -16 46 3 57
14 8 14 10 -4 14 -12 3 -23 4 -25 2z"/>
<path d="M481 1395 c2 -31 3 -34 6 -12 3 16 11 31 19 34 21 8 17 19 -6 19 -17
0 -20 -6 -19 -41z"/>
<path d="M550 1430 c0 -6 5 -8 10 -5 6 3 16 3 22 -1 9 -6 5 -10 -12 -14 -28
-7 -35 -40 -10 -48 12 -4 13 -3 3 10 -14 16 -8 28 15 28 8 0 12 -6 9 -15 -4
-8 -2 -17 4 -21 7 -4 9 8 7 32 -2 32 -7 40 -25 42 -13 2 -23 -2 -23 -8z"/>
<path d="M725 1400 c0 -22 3 -40 8 -40 4 0 7 18 7 40 0 22 -4 40 -8 40 -4 0
-8 -18 -7 -40z"/>
<path d="M777 1433 c-4 -3 -7 -19 -7 -35 0 -31 24 -48 43 -29 8 8 5 11 -11 11
-30 0 -29 33 1 48 21 10 21 11 1 11 -11 1 -24 -2 -27 -6z"/>
<path d="M840 1400 c0 -22 5 -40 10 -40 6 0 10 18 10 40 0 22 -4 40 -10 40 -5
0 -10 -18 -10 -40z"/>
<path d="M890 1425 c-10 -12 -10 -21 -1 -41 13 -28 38 -29 55 -1 22 35 -27 74
-54 42z m39 -36 c-12 -22 -29 -16 -29 10 0 25 11 33 26 20 10 -8 11 -16 3 -30z"/>
<path d="M982 1395 c1 -36 2 -37 5 -7 3 23 9 32 23 32 14 0 20 -9 23 -32 4
-27 4 -25 3 7 -1 37 -3 40 -28 40 -26 1 -28 -2 -26 -40z"/>
<path d="M1080 1430 c0 -6 5 -8 10 -5 6 3 16 3 22 -1 9 -6 5 -10 -12 -14 -37
-9 -34 -45 3 -45 26 -1 28 2 25 35 -2 28 -8 36 -25 38 -13 2 -23 -2 -23 -8z
m30 -38 c0 -13 -12 -22 -22 -16 -10 6 -1 24 13 24 5 0 9 -4 9 -8z"/>
<path d="M1200 1369 c0 -5 5 -7 10 -4 6 3 10 8 10 11 0 2 -4 4 -10 4 -5 0 -10
-5 -10 -11z"/>
<path d="M804 1253 c1 -12 -5 -17 -16 -15 -22 3 -38 -27 -28 -53 4 -13 16 -20
34 -20 25 -1 26 1 26 52 0 29 -4 53 -9 53 -5 0 -8 -8 -7 -17z m4 -50 c-5 -26
-38 -29 -38 -4 0 15 6 21 21 21 14 0 19 -5 17 -17z"/>
<path d="M1240 1251 c0 -11 -6 -18 -16 -17 -9 0 -21 -7 -28 -16 -15 -24 4 -53
35 -53 22 0 24 4 24 53 0 28 -3 52 -7 52 -5 0 -8 -8 -8 -19z m0 -51 c0 -26
-15 -33 -30 -15 -10 12 -10 18 0 30 15 18 30 11 30 -15z"/>
<path d="M1630 1260 c0 -5 5 -10 10 -10 6 0 10 5 10 10 0 6 -4 10 -10 10 -5 0
-10 -4 -10 -10z"/>
<path d="M420 1210 c0 -46 2 -50 24 -50 32 0 53 25 37 44 -9 10 -9 16 -1 21
17 11 -8 35 -36 35 -22 0 -24 -4 -24 -50z m50 20 c0 -5 -9 -10 -20 -10 -11 0
-20 5 -20 10 0 6 9 10 20 10 11 0 20 -4 20 -10z m-2 -38 c2 -7 -6 -12 -17 -12
-21 0 -27 11 -14 24 9 9 26 2 31 -12z"/>
<path d="M520 1231 c0 -6 6 -8 14 -5 8 3 17 1 20 -4 3 -6 -6 -13 -20 -16 -28
-7 -30 -36 -4 -44 12 -4 13 -3 3 10 -14 16 -8 28 15 28 8 0 12 -6 9 -15 -4 -8
-2 -17 4 -21 7 -4 9 8 7 32 -2 32 -7 40 -25 42 -13 2 -23 -1 -23 -7z"/>
<path d="M607 1233 c-13 -13 -7 -32 13 -38 11 -4 18 -11 14 -16 -3 -6 -12 -8
-20 -5 -8 3 -14 1 -14 -4 0 -6 9 -10 20 -10 29 0 38 30 14 47 -16 12 -17 15
-4 23 13 8 13 10 -1 10 -9 0 -19 -3 -22 -7z"/>
<path d="M680 1231 c0 -6 6 -8 14 -5 8 3 17 1 20 -4 3 -6 -6 -13 -20 -16 -28
-7 -30 -36 -4 -44 12 -4 13 -3 3 10 -14 16 -8 28 15 28 8 0 12 -6 9 -15 -4 -8
-2 -17 4 -21 7 -4 9 8 7 32 -2 32 -7 40 -25 42 -13 2 -23 -1 -23 -7z"/>
<path d="M860 1230 c0 -6 5 -8 10 -5 6 3 16 3 22 -1 9 -6 5 -10 -12 -14 -37
-9 -34 -45 3 -45 26 -1 28 2 25 35 -2 28 -8 36 -25 38 -13 2 -23 -2 -23 -8z
m34 -39 c3 -5 -1 -11 -9 -15 -15 -6 -29 7 -18 18 9 9 21 8 27 -3z"/>
<path d="M982 1228 c-26 -26 -6 -69 32 -67 20 0 20 1 -1 9 -31 12 -29 30 2 30
14 0 25 4 25 8 0 12 -22 32 -35 32 -6 0 -16 -5 -23 -12z m33 -8 c3 -5 -1 -10
-10 -10 -9 0 -13 5 -10 10 3 6 8 10 10 10 2 0 7 -4 10 -10z"/>
<path d="M1060 1198 c0 -21 5 -38 10 -38 6 0 10 14 10 30 0 20 5 30 15 30 10
0 15 -10 15 -30 0 -16 5 -30 10 -30 12 0 13 49 2 67 -4 6 -19 10 -35 10 -24
-2 -27 -6 -27 -39z"/>
<path d="M1288 1215 c-10 -21 -9 -29 5 -43 31 -31 75 19 47 53 -19 22 -39 18
-52 -10z m45 -9 c6 -16 -16 -40 -26 -29 -4 3 -7 15 -7 25 0 21 25 24 33 4z"/>
<path d="M1389 1230 c-11 -6 -14 -18 -10 -42 l5 -33 6 33 c7 43 24 46 28 5 2
-18 8 -33 13 -33 6 0 9 17 7 37 -3 40 -20 51 -49 33z"/>
<path d="M1480 1229 c0 -5 4 -8 9 -4 5 3 12 1 15 -4 3 -5 -3 -11 -14 -14 -20
-5 -27 -31 -12 -41 5 -3 18 -3 29 0 31 8 20 74 -13 74 -8 0 -14 -5 -14 -11z
m28 -41 c-6 -18 -28 -21 -28 -4 0 9 7 16 16 16 9 0 14 -5 12 -12z"/>
<path d="M1558 1215 c-8 -19 -8 -28 2 -40 14 -17 40 -20 40 -5 0 6 -7 10 -15
10 -8 0 -15 9 -15 20 0 11 7 20 15 20 8 0 15 5 15 10 0 20 -31 9 -42 -15z"/>
<path d="M1630 1200 c0 -22 5 -40 10 -40 6 0 10 18 10 40 0 22 -4 40 -10 40
-5 0 -10 -18 -10 -40z"/>
<path d="M1680 1221 c-13 -26 4 -64 27 -59 25 5 40 35 27 56 -16 25 -41 26
-54 3z m40 -21 c0 -11 -7 -20 -15 -20 -8 0 -15 9 -15 20 0 11 7 20 15 20 8 0
15 -9 15 -20z"/>
<path d="M1764 1198 c0 -46 14 -51 18 -5 2 17 8 32 13 32 6 0 11 -15 13 -32 2
-18 8 -33 13 -33 6 0 9 17 7 38 -3 34 -6 37 -33 37 -28 1 -30 -2 -31 -37z"/>
<path d="M1864 1226 c-12 -31 0 -61 26 -63 25 -3 25 -3 3 7 -31 13 -29 30 2
30 27 0 32 9 13 28 -16 16 -37 15 -44 -2z m36 -6 c0 -5 -7 -10 -16 -10 -8 0
-12 5 -9 10 3 6 10 10 16 10 5 0 9 -4 9 -10z"/>
<path d="M1944 1228 c-4 -6 2 -19 15 -29 22 -18 13 -37 -11 -23 -10 5 -10 4
-1 -6 15 -16 43 -6 43 15 0 9 -7 18 -15 21 -8 4 -15 11 -15 16 0 6 7 8 15 4 8
-3 15 -1 15 4 0 14 -37 12 -46 -2z"/>
<path d="M2017 1173 c-4 -3 -7 -11 -7 -17 0 -6 5 -5 12 2 6 6 9 14 7 17 -3 3
-9 2 -12 -2z"/>
<path d="M2402 1990 c-42 -10 -101 -57 -127 -101 -19 -32 -20 -55 -23 -406 -2
-250 1 -386 8 -414 16 -57 83 -122 142 -137 64 -16 1779 -17 1843 -1 60 15
119 68 142 127 16 42 18 82 18 397 0 193 -4 367 -8 388 -9 43 -64 109 -111
135 -28 16 -108 17 -941 19 -500 0 -925 -2 -943 -7z m1879 -33 c29 -16 54 -40
74 -72 l30 -48 0 -376 c0 -337 -2 -379 -17 -407 -27 -49 -72 -89 -115 -102
-30 -9 -271 -12 -935 -12 l-894 0 -44 23 c-24 12 -58 39 -74 60 l-31 39 0 396
0 397 25 38 c15 22 45 47 74 62 l50 25 906 0 907 0 44 -23z"/>
<path d="M3175 1800 c-3 -5 -1 -10 4 -10 6 0 11 5 11 10 0 6 -2 10 -4 10 -3 0
-8 -4 -11 -10z"/>
<path d="M3245 1800 c-3 -6 1 -7 9 -4 18 7 21 14 7 14 -6 0 -13 -4 -16 -10z"/>
<path d="M3693 1795 c-11 -18 -4 -95 8 -95 5 0 9 15 9 34 0 19 6 37 13 39 9 4
8 6 -2 6 -11 1 -11 4 -1 16 10 12 10 15 -3 15 -9 0 -20 -7 -24 -15z"/>
<path d="M3740 1800 c0 -5 5 -10 10 -10 6 0 10 5 10 10 0 6 -4 10 -10 10 -5 0
-10 -4 -10 -10z"/>
<path d="M4128 1788 c4 -17 2 -20 -13 -15 -27 11 -44 -9 -36 -41 6 -21 14 -27
34 -27 26 -1 27 1 27 52 0 29 -4 53 -9 53 -5 0 -7 -10 -3 -22z m-1 -44 c6 -16
-15 -37 -29 -28 -4 3 -8 14 -8 25 0 23 28 26 37 3z"/>
<path d="M2466 1784 c-9 -8 -16 -24 -16 -34 0 -22 25 -50 45 -50 20 0 45 28
45 50 0 22 -25 50 -45 50 -7 0 -21 -7 -29 -16z m54 -34 c0 -25 -4 -30 -25 -30
-21 0 -25 5 -25 30 0 25 4 30 25 30 21 0 25 -5 25 -30z"/>
<path d="M2571 1735 c2 -31 3 -34 6 -12 3 16 11 31 19 34 21 8 17 19 -6 19
-17 0 -20 -6 -19 -41z"/>
<path d="M2636 1771 c-3 -5 -4 -23 -2 -40 2 -18 -1 -31 -7 -31 -6 0 -4 -7 5
-16 10 -10 23 -14 37 -9 30 9 26 31 -6 40 -27 7 -27 8 -7 15 12 5 24 18 27 29
4 17 1 21 -18 21 -13 0 -26 -4 -29 -9z m34 -16 c0 -8 -4 -15 -9 -15 -13 0 -22
16 -14 24 11 11 23 6 23 -9z m5 -65 c-3 -5 -13 -10 -21 -10 -8 0 -14 5 -14 10
0 6 9 10 21 10 11 0 17 -4 14 -10z"/>
<path d="M2744 1767 c18 -13 18 -14 -8 -21 -37 -9 -32 -41 7 -42 26 -1 28 1
25 35 -2 27 -8 37 -23 39 -20 4 -20 3 -1 -11z m14 -39 c-6 -18 -28 -21 -28 -4
0 9 7 16 16 16 9 0 14 -5 12 -12z"/>
<path d="M2805 1743 c3 -44 15 -56 15 -15 0 22 5 32 15 32 10 0 15 -10 15 -30
0 -16 5 -30 11 -30 6 0 9 16 7 38 -3 34 -6 37 -34 37 -28 1 -30 -2 -29 -32z"/>
<path d="M2903 1740 c0 -25 2 -35 4 -22 2 12 2 32 0 45 -2 12 -4 2 -4 -23z"/>
<path d="M2953 1773 c21 -5 21 -12 2 -37 -21 -28 -19 -36 13 -35 16 1 20 3 10
6 -22 5 -22 13 -3 39 21 28 18 34 -12 33 -17 -1 -21 -3 -10 -6z"/>
<path d="M3020 1770 c0 -6 5 -8 10 -5 6 3 16 3 22 -1 9 -6 5 -10 -12 -14 -37
-9 -34 -45 3 -45 26 -1 28 2 25 35 -2 28 -8 36 -25 38 -13 2 -23 -2 -23 -8z
m40 -39 c0 -12 -28 -22 -34 -12 -3 5 -3 11 1 15 9 9 33 7 33 -3z"/>
<path d="M3112 1771 c-8 -5 -12 -21 -10 -37 2 -21 9 -30 26 -32 12 -2 22 1 22
7 0 6 -9 11 -20 11 -12 0 -20 7 -20 16 0 9 9 18 20 21 11 3 20 9 20 14 0 11
-21 11 -38 0z"/>
<path d="M3179 1778 c-6 -15 -5 -70 2 -74 5 -3 9 13 9 35 0 33 -5 52 -11 39z"/>
<path d="M3227 1773 c-11 -10 -8 -61 3 -68 22 -14 50 6 50 35 0 32 -34 53 -53
33z m43 -32 c0 -19 -23 -35 -34 -24 -14 15 -5 43 14 43 13 0 20 -7 20 -19z"/>
<path d="M3311 1735 c2 -28 3 -32 6 -13 2 14 11 32 18 38 16 13 20 8 29 -40 2
-14 3 -7 3 15 -2 36 -4 40 -29 40 -26 1 -28 -2 -27 -40z"/>
<path d="M3443 1764 c-4 -10 0 -20 10 -26 21 -11 22 -32 2 -24 -8 3 -15 1 -15
-4 0 -6 9 -10 20 -10 27 0 38 30 17 42 -10 5 -17 14 -17 19 0 6 5 7 10 4 6 -3
10 -1 10 4 0 17 -30 13 -37 -5z"/>
<path d="M3519 1778 c-6 -18 -5 -56 2 -68 6 -10 8 -1 9 28 0 23 -2 42 -5 42
-3 0 -5 -1 -6 -2z"/>
<path d="M3561 1735 c1 -37 2 -38 8 -10 3 17 13 30 21 30 8 0 18 -13 22 -30 6
-26 6 -25 5 10 -2 36 -4 40 -29 40 -26 1 -28 -2 -27 -40z"/>
<path d="M3740 1740 c0 -22 5 -40 10 -40 6 0 10 18 10 40 0 22 -4 40 -10 40
-5 0 -10 -18 -10 -40z"/>
<path d="M3791 1735 c1 -37 2 -38 8 -10 3 17 14 31 24 33 13 3 17 -4 18 -30 1
-31 2 -31 8 -8 11 34 -2 55 -33 55 -24 1 -26 -2 -25 -40z"/>
<path d="M3891 1766 c-25 -30 13 -86 40 -59 8 8 7 11 -6 10 -10 -1 -20 4 -22
11 -3 7 4 12 17 12 15 0 20 5 18 17 -4 23 -31 28 -47 9z m34 -6 c3 -5 -1 -10
-10 -10 -9 0 -13 5 -10 10 3 6 8 10 10 10 2 0 7 -4 10 -10z"/>
<path d="M3966 1765 c-3 -9 3 -19 14 -25 23 -12 27 -35 5 -26 -8 3 -15 1 -15
-4 0 -17 30 -11 37 6 4 11 -1 22 -12 30 -17 13 -14 19 8 15 4 0 7 4 7 9 0 16
-37 12 -44 -5z"/>
<path d="M4182 1771 c-18 -11 -11 -51 10 -65 13 -8 21 -7 30 2 11 11 10 12 -3
7 -9 -3 -22 1 -29 10 -11 13 -9 15 14 15 29 0 36 24 10 34 -19 7 -16 8 -32 -3z
m33 -11 c3 -5 -3 -10 -15 -10 -12 0 -18 5 -15 10 3 6 10 10 15 10 5 0 12 -4
15 -10z"/>
<path d="M2457 1593 c-6 -12 -1 -92 6 -100 4 -3 7 19 7 50 0 53 -4 67 -13 50z"/>
<path d="M3425 1590 c3 -5 8 -10 11 -10 2 0 4 5 4 10 0 6 -5 10 -11 10 -5 0
-7 -4 -4 -10z"/>
<path d="M3640 1583 c0 -16 -5 -20 -19 -16 -13 3 -21 -2 -26 -16 -11 -35 3
-60 33 -59 27 1 28 3 27 49 -1 46 -15 85 -15 42z m0 -52 c0 -24 -26 -35 -34
-14 -8 19 1 33 20 33 8 0 14 -9 14 -19z"/>
<path d="M3820 1582 c0 -13 -7 -18 -22 -18 -18 1 -24 -5 -26 -28 -2 -16 1 -33
7 -39 16 -16 26 0 12 17 -15 18 -6 36 16 36 11 0 14 -7 11 -25 -3 -14 -1 -28
3 -31 5 -3 9 20 9 50 0 31 -2 56 -5 56 -3 0 -5 -8 -5 -18z"/>
<path d="M3362 1537 c2 -33 7 -43 23 -46 19 -3 19 -2 4 15 -16 19 -15 43 3 55
5 3 0 9 -12 12 -19 5 -21 2 -18 -36z"/>
<path d="M2503 1535 c2 -36 4 -40 30 -40 25 -1 27 2 25 40 -1 36 -2 37 -5 8
-2 -18 -8 -33 -14 -33 -5 0 -12 0 -16 0 -5 -1 -11 14 -15 32 -6 31 -6 31 -5
-7z"/>
<path d="M2603 1563 c-29 -11 -8 -73 24 -73 20 0 15 17 -7 23 -23 6 -17 37 6
37 8 0 14 5 14 10 0 10 -16 12 -37 3z"/>
<path d="M2671 1525 c2 -31 3 -34 6 -12 3 16 11 31 19 34 21 8 17 19 -6 19
-17 0 -20 -6 -19 -41z"/>
<path d="M2742 1561 c-18 -11 -11 -51 10 -65 14 -8 22 -7 35 6 14 14 15 22 5
43 -12 26 -27 31 -50 16z m38 -30 c0 -28 -17 -35 -29 -13 -11 21 -6 32 16 32
7 0 13 -9 13 -19z"/>
<path d="M2913 1563 c-19 -7 -16 -60 3 -67 22 -8 34 -7 34 3 0 5 -9 11 -20 14
-11 3 -20 10 -20 17 0 7 9 14 20 17 11 3 20 9 20 14 0 10 -17 11 -37 2z"/>
<path d="M2980 1551 c-13 -26 4 -64 27 -59 25 5 40 35 27 56 -16 25 -41 26
-54 3z m45 -11 c8 -13 -14 -42 -26 -34 -5 3 -9 14 -9 25 0 20 24 26 35 9z"/>
<path d="M3072 1525 c1 -36 2 -37 5 -7 2 17 8 32 14 32 5 0 12 0 17 0 4 1 10
-14 14 -32 6 -31 6 -31 5 7 -2 36 -4 40 -29 40 -26 1 -28 -2 -26 -40z"/>
<path d="M3226 1555 c17 -13 17 -14 2 -15 -24 0 -44 -38 -24 -46 23 -9 55 14
51 36 -6 30 -14 40 -33 40 -13 0 -13 -2 4 -15z m12 -37 c-6 -18 -28 -21 -28
-4 0 9 7 16 16 16 9 0 14 -5 12 -12z"/>
<path d="M3288 1545 c-8 -19 -8 -28 2 -40 14 -17 40 -20 40 -5 0 6 -7 10 -15
10 -8 0 -15 9 -15 20 0 11 7 20 15 20 8 0 15 5 15 10 0 20 -31 9 -42 -15z"/>
<path d="M3424 1555 c-3 -8 -1 -27 4 -42 10 -27 10 -26 11 15 1 43 -5 54 -15
27z"/>
<path d="M3464 1554 c3 -9 9 -27 12 -40 4 -14 11 -23 17 -21 13 4 39 77 27 77
-5 0 -12 -15 -16 -32 l-7 -33 -14 33 c-13 32 -31 47 -19 16z"/>
<path d="M3553 1530 c0 -25 2 -35 4 -22 2 12 2 32 0 45 -2 12 -4 2 -4 -23z"/>
<path d="M3690 1560 c0 -6 5 -8 10 -5 6 3 16 3 22 -1 9 -6 5 -10 -12 -14 -37
-9 -34 -45 3 -45 26 -1 28 2 25 35 -2 28 -8 36 -25 38 -13 2 -23 -2 -23 -8z
m40 -39 c0 -12 -28 -22 -34 -12 -3 5 -3 11 1 15 9 9 33 7 33 -3z"/>
<path d="M3872 1558 c-15 -15 -15 -41 0 -56 14 -14 48 -16 48 -3 0 5 -7 8 -16
7 -9 0 -19 5 -21 12 -3 7 4 12 17 12 15 0 20 5 18 17 -4 22 -29 28 -46 11z
m33 -8 c3 -5 -1 -10 -10 -10 -9 0 -13 5 -10 10 3 6 8 10 10 10 2 0 7 -4 10
-10z"/>
<path d="M3950 1551 c0 -10 7 -21 15 -25 20 -7 19 -24 -2 -29 -17 -4 -17 -5 0
-6 25 -1 34 29 14 44 -21 15 -22 29 -2 21 8 -3 15 -1 15 4 0 6 -9 10 -20 10
-13 0 -20 -7 -20 -19z"/>
<path d="M2820 1495 c0 -8 2 -15 4 -15 2 0 6 7 10 15 3 8 1 15 -4 15 -6 0 -10
-7 -10 -15z"/>
<path d="M2455 1350 c-10 -32 4 -63 26 -57 14 4 19 0 19 -14 0 -10 4 -19 8
-19 4 0 7 23 6 52 -1 47 -3 52 -27 55 -19 3 -27 -2 -32 -17z m45 -19 c0 -11
-4 -22 -9 -25 -12 -8 -34 21 -26 34 11 17 35 11 35 -9z"/>
<path d="M2554 1335 c1 -37 3 -40 29 -40 25 -1 27 2 26 40 -1 37 -2 38 -8 10
-9 -43 -38 -45 -44 -3 -4 28 -4 27 -3 -7z"/>
<path d="M2652 1361 c-18 -11 -11 -51 10 -65 13 -8 21 -7 30 3 8 8 8 11 1 7
-14 -7 -43 3 -43 15 0 5 11 9 25 9 28 0 34 24 9 34 -19 7 -16 8 -32 -3z m33
-11 c3 -5 -3 -10 -15 -10 -12 0 -18 5 -15 10 3 6 10 10 15 10 5 0 12 -4 15
-10z"/>
<path d="M2766 1361 c-3 -5 -4 -23 -2 -40 2 -16 -2 -32 -8 -35 -17 -7 15 -27
39 -24 26 4 33 38 7 38 -29 0 -34 12 -10 24 31 16 33 46 3 46 -13 0 -26 -4
-29 -9z m34 -17 c0 -17 -22 -14 -28 4 -2 7 3 12 12 12 9 0 16 -7 16 -16z m5
-64 c-3 -5 -13 -10 -21 -10 -8 0 -14 5 -14 10 0 6 9 10 21 10 11 0 17 -4 14
-10z"/>
<path d="M2848 1345 c-8 -19 -8 -28 2 -40 13 -16 50 -21 50 -6 0 5 -7 8 -16 7
-9 0 -19 5 -21 12 -3 7 5 12 22 12 23 0 24 2 15 20 -15 27 -38 25 -52 -5z m37
5 c3 -5 -1 -10 -10 -10 -9 0 -13 5 -10 10 3 6 8 10 10 10 2 0 7 -4 10 -10z"/>
<path d="M2930 1328 c0 -21 5 -38 10 -38 6 0 10 14 10 30 0 20 5 30 15 30 10
0 15 -10 15 -30 0 -16 5 -30 10 -30 14 0 12 57 -2 67 -7 4 -23 8 -35 8 -20 1
-23 -4 -23 -37z"/>
<path d="M3030 1350 c-14 -26 3 -60 30 -60 11 0 20 4 20 9 0 5 -7 8 -16 7 -9
0 -19 5 -21 12 -3 7 5 12 21 12 28 0 33 9 14 28 -18 18 -36 15 -48 -8z m35 0
c3 -5 -1 -10 -10 -10 -9 0 -13 5 -10 10 3 6 8 10 10 10 2 0 7 -4 10 -10z"/>
<path d="M3110 1328 c0 -21 5 -38 10 -38 6 0 10 14 10 30 0 17 5 30 10 30 6 0
10 4 10 8 0 4 -9 8 -20 8 -16 0 -20 -7 -20 -38z"/>
<path d="M3204 1357 c18 -13 18 -14 -7 -21 -27 -6 -36 -29 -17 -41 6 -3 19 -3
31 0 28 9 23 68 -6 73 -20 4 -20 3 -1 -11z m14 -39 c-6 -18 -28 -21 -28 -4 0
9 7 16 16 16 9 0 14 -5 12 -12z"/>
<path d="M3278 1363 c-12 -3 -15 -12 -11 -36 7 -43 13 -47 13 -9 0 22 5 32 15
32 10 0 15 -10 15 -30 0 -16 5 -30 11 -30 6 0 9 16 7 37 -3 38 -14 46 -50 36z"/>
<path d="M3403 1330 c0 -25 2 -35 4 -22 2 12 2 32 0 45 -2 12 -4 2 -4 -23z"/>
<path d="M3440 1328 c0 -21 5 -38 10 -38 6 0 10 14 10 30 0 20 5 30 15 30 10
0 15 -10 15 -30 0 -16 5 -30 10 -30 14 0 12 57 -2 67 -7 4 -23 8 -35 8 -20 1
-23 -4 -23 -37z"/>
<path d="M3544 1362 c-6 -4 -10 -27 -9 -52 1 -48 21 -64 50 -40 21 17 19 30
-4 30 -27 0 -35 17 -12 23 10 2 20 14 24 26 4 17 1 21 -16 21 -12 0 -27 -4
-33 -8z m28 -17 c0 -5 -5 -11 -11 -13 -6 -2 -11 4 -11 13 0 9 5 15 11 13 6 -2
11 -8 11 -13z m8 -65 c0 -5 -9 -10 -20 -10 -11 0 -20 5 -20 10 0 6 9 10 20 10
11 0 20 -4 20 -10z"/>
<path d="M3621 1325 c2 -31 3 -34 6 -12 3 16 11 31 19 34 21 8 17 19 -6 19
-17 0 -20 -6 -19 -41z"/>
<path d="M3692 1361 c-18 -11 -12 -51 10 -65 13 -8 21 -7 30 3 8 8 8 11 1 7
-15 -8 -45 3 -37 15 3 5 14 9 25 9 14 0 19 6 17 17 -4 20 -27 27 -46 14z m33
-11 c3 -5 -1 -10 -9 -10 -9 0 -16 5 -16 10 0 6 4 10 9 10 6 0 13 -4 16 -10z"/>
<path d="M3765 1360 c-3 -5 3 -17 15 -27 26 -23 26 -37 -1 -30 -16 4 -19 3
-11 -5 14 -14 42 -3 42 17 0 9 -7 18 -15 21 -8 4 -15 11 -15 16 0 6 7 8 15 4
8 -3 15 -1 15 4 0 13 -37 13 -45 0z"/>
<path d="M3841 1348 c-9 -24 2 -58 19 -58 25 0 40 15 40 40 0 26 -15 40 -41
40 -5 0 -13 -10 -18 -22z m44 -8 c8 -13 -14 -42 -26 -34 -5 3 -9 14 -9 25 0
20 24 26 35 9z"/>
<path d="M3926 1355 c-3 -9 3 -19 14 -25 25 -13 26 -27 3 -33 -13 -3 -14 -5
-3 -6 8 0 22 4 30 9 13 9 12 13 -7 29 -26 22 -30 36 -8 27 8 -3 15 -1 15 4 0
16 -37 11 -44 -5z"/>
<path d="M2747 1170 c-3 -13 -11 -18 -20 -14 -20 7 -37 -25 -27 -51 4 -13 16
-20 34 -20 25 -1 26 1 26 52 0 56 -4 66 -13 33z m0 -46 c6 -16 -15 -37 -29
-28 -4 3 -8 14 -8 25 0 23 28 26 37 3z"/>
<path d="M2790 1180 c0 -5 5 -10 10 -10 6 0 10 5 10 10 0 6 -4 10 -10 10 -5 0
-10 -4 -10 -10z"/>
<path d="M3035 1180 c-3 -5 -1 -10 4 -10 6 0 11 5 11 10 0 6 -2 10 -4 10 -3 0
-8 -4 -11 -10z"/>
<path d="M3081 1140 c-1 -55 0 -56 27 -55 24 0 27 4 27 35 0 28 -4 35 -19 35
-10 0 -23 9 -27 20 -5 14 -8 2 -8 -35z m49 -20 c0 -13 -7 -20 -20 -20 -19 0
-27 20 -13 33 13 14 33 6 33 -13z"/>
<path d="M3517 1170 c4 -16 1 -20 -18 -18 -20 3 -25 -2 -27 -26 -4 -30 12 -56
25 -41 5 4 2 10 -4 12 -21 7 -16 45 5 41 10 -2 17 -12 17 -25 0 -12 3 -25 8
-29 4 -4 7 18 7 49 0 32 -4 57 -9 57 -5 0 -7 -9 -4 -20z"/>
<path d="M3560 1180 c0 -5 5 -10 10 -10 6 0 10 5 10 10 0 6 -4 10 -10 10 -5 0
-10 -4 -10 -10z"/>
<path d="M3780 1172 c0 -13 -7 -18 -22 -18 -20 1 -23 -4 -23 -34 0 -31 3 -35
28 -36 26 -1 27 1 27 52 0 30 -2 54 -5 54 -3 0 -5 -8 -5 -18z m0 -52 c0 -21
-24 -28 -35 -10 -8 14 3 30 21 30 8 0 14 -9 14 -20z"/>
<path d="M4050 1172 c0 -13 -7 -18 -22 -18 -20 1 -23 -4 -23 -34 0 -32 3 -35
30 -37 30 -1 30 -1 31 53 0 30 -4 54 -8 54 -4 0 -8 -8 -8 -18z m0 -51 c0 -28
-17 -35 -29 -13 -11 21 -6 32 16 32 7 0 13 -9 13 -19z"/>
<path d="M2461 1128 c2 -53 2 -53 8 -13 l7 40 19 -37 c27 -55 45 -49 45 13 0
30 -4 48 -10 44 -5 -3 -7 -19 -3 -35 8 -41 -10 -38 -33 5 -10 19 -22 35 -26
35 -5 0 -7 -24 -7 -52z"/>
<path d="M2908 1156 c-9 -26 8 -71 27 -74 19 -3 19 -2 3 11 -22 18 -23 43 -2
55 14 8 14 10 -4 14 -11 3 -22 1 -24 -6z"/>
<path d="M2583 1153 c-21 -8 -16 -61 7 -68 11 -3 24 -3 30 0 16 10 12 62 -6
69 -9 3 -16 6 -17 5 -1 0 -8 -3 -14 -6z m37 -33 c0 -21 -24 -28 -35 -10 -8 14
3 30 21 30 8 0 14 -9 14 -20z"/>
<path d="M2790 1120 c0 -22 5 -40 10 -40 6 0 10 18 10 40 0 22 -4 40 -10 40
-5 0 -10 -18 -10 -40z"/>
<path d="M2837 1153 c-13 -13 -7 -32 13 -38 11 -4 18 -11 14 -16 -3 -6 -12 -8
-20 -5 -8 3 -14 1 -14 -4 0 -6 9 -10 20 -10 27 0 38 29 17 45 -21 15 -22 29
-2 21 8 -3 15 -1 15 4 0 11 -33 14 -43 3z"/>
<path d="M2971 1115 c2 -31 3 -34 6 -12 3 16 11 31 19 34 21 8 17 19 -6 19
-17 0 -20 -6 -19 -41z"/>
<path d="M3034 1120 c0 -22 3 -40 8 -40 4 0 8 18 8 40 0 22 -4 40 -8 40 -4 0
-8 -18 -8 -40z"/>
<path d="M3174 1125 c1 -36 3 -40 29 -41 25 -1 27 1 25 40 -1 37 -2 38 -5 9
-3 -24 -9 -33 -23 -33 -14 0 -20 9 -23 33 -4 26 -4 24 -3 -8z"/>
<path d="M3266 1140 c3 -14 8 -35 11 -47 3 -14 1 -23 -6 -23 -6 0 -11 -4 -11
-10 0 -5 5 -10 11 -10 13 0 52 87 46 103 -3 7 -8 0 -12 -15 -4 -16 -10 -28
-14 -28 -4 0 -12 12 -19 28 -11 25 -11 25 -6 2z"/>
<path d="M3350 1145 c-19 -23 2 -65 32 -64 l23 0 -22 9 c-31 12 -29 30 2 30
27 0 32 9 13 28 -16 16 -33 15 -48 -3z m35 -5 c3 -5 -1 -10 -10 -10 -9 0 -13
5 -10 10 3 6 8 10 10 10 2 0 7 -4 10 -10z"/>
<path d="M3560 1120 c0 -22 5 -40 10 -40 6 0 10 18 10 40 0 22 -4 40 -10 40
-5 0 -10 -18 -10 -40z"/>
<path d="M3604 1144 c3 -9 9 -27 12 -40 9 -34 21 -30 39 12 18 43 18 44 6 44
-5 0 -13 -15 -17 -32 l-7 -33 -14 33 c-13 32 -31 47 -19 16z"/>
<path d="M3693 1120 c0 -25 2 -35 4 -22 2 12 2 32 0 45 -2 12 -4 2 -4 -23z"/>
<path d="M3832 1148 c-15 -15 -15 -41 0 -56 14 -14 48 -16 48 -3 0 5 -7 8 -16
7 -9 0 -19 5 -21 12 -3 7 4 12 17 12 15 0 20 5 18 17 -4 22 -29 28 -46 11z
m33 -8 c3 -5 -3 -10 -15 -10 -12 0 -18 5 -15 10 3 6 10 10 15 10 5 0 12 -4 15
-10z"/>
<path d="M3911 1116 c1 -37 2 -38 8 -11 9 43 38 45 44 3 4 -28 4 -27 3 7 -1
36 -3 40 -28 41 -26 1 -28 -1 -27 -40z"/>
<path d="M4100 1145 c-28 -34 16 -84 47 -53 14 14 15 22 5 43 -13 28 -33 32
-52 10z m40 -23 c0 -10 -3 -22 -7 -25 -10 -11 -32 13 -26 29 8 20 33 17 33 -4z"/>
<path d="M4183 1144 c-4 -10 0 -20 10 -26 21 -11 22 -32 2 -24 -8 3 -15 1 -15
-4 0 -6 9 -10 20 -10 27 0 38 30 17 42 -21 11 -22 32 -1 24 8 -3 12 -2 9 4
-10 16 -35 12 -42 -6z"/>
<path d="M4810 505 c0 -43 4 -75 10 -75 6 0 10 32 10 75 0 43 -4 75 -10 75 -6
0 -10 -32 -10 -75z"/>
<path d="M5450 565 c0 -8 5 -15 10 -15 6 0 10 7 10 15 0 8 -4 15 -10 15 -5 0
-10 -7 -10 -15z"/>
<path d="M5630 505 c0 -43 4 -75 10 -75 6 0 10 32 10 75 0 43 -4 75 -10 75 -6
0 -10 -32 -10 -75z"/>
<path d="M3260 500 l0 -70 31 0 c17 0 39 5 50 10 21 12 26 46 7 53 -10 4 -10
7 0 18 6 7 12 16 12 20 0 19 -35 39 -66 39 l-34 0 0 -70z m68 27 c3 -12 -3
-17 -21 -17 -24 0 -26 5 -18 38 3 12 36 -6 39 -21z m2 -51 c0 -8 -5 -18 -10
-21 -17 -11 -40 3 -34 20 8 19 44 20 44 1z"/>
<path d="M353 527 c-24 -11 -43 -24 -43 -27 0 -11 79 -44 87 -37 3 4 -8 12
-25 18 -40 14 -40 23 -2 39 17 7 30 16 30 21 0 11 3 12 -47 -14z"/>
<path d="M3390 496 c0 -25 6 -48 13 -53 15 -10 77 -11 78 0 1 9 1 74 0 87 -1
6 -5 10 -11 10 -5 0 -10 -18 -10 -40 0 -27 -5 -43 -15 -47 -22 -8 -29 2 -30
44 -3 55 -25 55 -25 -1z"/>
<path d="M3519 524 c-12 -14 -10 -19 14 -38 34 -27 34 -36 1 -36 -14 0 -23 -4
-19 -10 9 -14 48 -13 63 2 19 19 14 37 -13 50 -30 14 -33 28 -4 28 11 0 17 5
14 10 -9 15 -41 12 -56 -6z"/>
<path d="M3627 522 c-21 -24 -22 -56 -1 -77 18 -18 55 -17 61 2 3 7 -3 9 -16
6 -26 -7 -48 31 -30 53 6 8 20 14 31 14 10 0 16 5 13 10 -10 16 -40 12 -58 -8z"/>
<path d="M3730 530 c-12 -8 -10 -10 11 -10 40 0 43 -13 7 -24 -22 -8 -34 -18
-36 -33 -4 -25 -4 -25 51 -28 l37 -2 0 41 c0 59 -30 82 -70 56z m50 -59 c0 -6
-5 -13 -10 -16 -15 -9 -43 3 -35 15 8 13 45 13 45 1z"/>
<path d="M3840 483 c0 -63 18 -71 22 -10 2 34 7 42 23 42 16 0 21 -8 23 -42 4
-57 22 -55 22 1 0 50 -10 61 -57 61 l-33 0 0 -52z"/>
<path d="M4028 529 c-12 -6 -18 -22 -18 -45 0 -27 5 -37 24 -46 14 -6 33 -7
43 -3 15 7 13 9 -12 14 -25 5 -30 11 -30 36 0 23 5 31 23 33 12 2 22 8 22 13
0 12 -30 11 -52 -2z"/>
<path d="M4120 485 c0 -30 5 -55 10 -55 6 0 10 16 10 36 0 27 5 37 20 41 11 3
20 12 20 19 0 17 -12 18 -28 2 -9 -9 -12 -9 -12 0 0 7 -4 12 -10 12 -5 0 -10
-25 -10 -55z"/>
<path d="M4218 529 c-12 -6 -18 -22 -18 -45 0 -27 5 -37 24 -46 14 -6 32 -7
43 -2 15 7 14 8 -9 11 -14 3 -29 11 -32 19 -4 10 3 14 29 14 28 0 35 4 35 20
0 10 -9 24 -19 30 -24 12 -31 12 -53 -1z m47 -19 c4 -6 -5 -10 -20 -10 -15 0
-24 4 -20 10 3 6 12 10 20 10 8 0 17 -4 20 -10z"/>
<path d="M4330 530 c-11 -7 -7 -10 18 -10 40 0 42 -16 2 -24 -37 -7 -49 -32
-26 -54 13 -13 20 -14 35 -5 14 9 21 9 30 0 8 -8 11 2 11 40 0 37 -4 52 -16
57 -22 8 -37 7 -54 -4z m48 -62 c-7 -19 -38 -22 -38 -4 0 10 9 16 21 16 12 0
19 -5 17 -12z"/>
<path d="M4440 485 c0 -30 5 -55 10 -55 6 0 10 16 10 36 0 27 5 37 20 41 11 3
20 12 20 19 0 17 -12 18 -28 2 -9 -9 -12 -9 -12 0 0 7 -4 12 -10 12 -5 0 -10
-25 -10 -55z"/>
<path d="M4570 532 c0 -27 34 -102 46 -102 8 0 14 2 14 5 0 2 9 27 20 55 16
41 17 50 5 50 -8 0 -17 -14 -21 -35 -9 -49 -19 -51 -33 -5 -6 22 -16 40 -21
40 -6 0 -10 -4 -10 -8z"/>
<path d="M4700 530 c-11 -7 -7 -10 18 -10 17 0 32 -4 32 -10 0 -5 -8 -10 -18
-10 -10 0 -27 -6 -38 -14 -29 -22 -7 -51 40 -51 l36 0 0 46 c0 56 -29 76 -70
49z m48 -62 c-7 -19 -38 -22 -38 -4 0 10 9 16 21 16 12 0 19 -5 17 -12z"/>
<path d="M4876 518 c-21 -29 -20 -51 2 -71 24 -22 45 -21 65 1 22 24 21 55 -1
75 -25 23 -48 21 -66 -5z m52 -14 c12 -22 4 -54 -14 -54 -20 0 -34 31 -23 52
12 22 25 23 37 2z"/>
<path d="M4990 485 c0 -30 5 -55 10 -55 6 0 10 16 10 36 0 27 5 37 20 41 11 3
20 12 20 20 0 11 -4 11 -20 3 -14 -7 -20 -7 -20 0 0 5 -4 10 -10 10 -5 0 -10
-25 -10 -55z"/>
<path d="M5132 528 c-20 -20 -13 -39 18 -49 34 -12 31 -29 -6 -29 -14 0 -22
-4 -19 -10 9 -14 48 -13 63 2 19 19 14 37 -13 50 -30 14 -33 28 -4 28 11 0 17
5 14 10 -8 14 -38 13 -53 -2z"/>
<path d="M5237 522 c-22 -24 -21 -55 1 -75 24 -22 45 -21 65 1 22 24 21 55 -1
75 -24 22 -45 21 -65 -1z m52 -16 c15 -17 -3 -60 -21 -54 -23 8 -32 36 -19 52
17 20 25 20 40 2z"/>
<path d="M5356 524 c-21 -20 -20 -58 0 -79 18 -18 55 -17 62 3 2 8 -2 10 -14
5 -24 -9 -47 23 -33 48 5 11 19 19 30 19 11 0 17 5 14 10 -9 15 -42 12 -59 -6z"/>
<path d="M5450 485 c0 -30 5 -55 10 -55 6 0 10 25 10 55 0 30 -4 55 -10 55 -5
0 -10 -25 -10 -55z"/>
<path d="M5520 530 c-11 -7 -7 -10 18 -10 40 0 42 -16 2 -24 -37 -7 -49 -32
-26 -54 13 -14 20 -14 36 -4 12 7 20 8 20 2 0 -5 5 -10 10 -10 14 0 12 84 -2
98 -14 14 -38 15 -58 2z m50 -59 c0 -6 -5 -13 -10 -16 -15 -9 -43 3 -35 15 8
13 45 13 45 1z"/>
<path d="M8588 523 c17 -9 32 -20 32 -24 0 -4 -15 -12 -32 -19 -18 -7 -28 -14
-22 -16 15 -6 84 24 84 37 0 11 -61 39 -82 38 -7 0 2 -8 20 -16z"/>
<path d="M420 490 c0 -5 9 -10 20 -10 11 0 20 5 20 10 0 6 -9 10 -20 10 -11 0
-20 -4 -20 -10z"/>
<path d="M480 490 c0 -5 9 -10 20 -10 11 0 20 5 20 10 0 6 -9 10 -20 10 -11 0
-20 -4 -20 -10z"/>
<path d="M540 490 c0 -5 11 -10 25 -10 14 0 25 5 25 10 0 6 -11 10 -25 10 -14
0 -25 -4 -25 -10z"/>
<path d="M610 490 c0 -5 9 -10 20 -10 11 0 20 5 20 10 0 6 -9 10 -20 10 -11 0
-20 -4 -20 -10z"/>
<path d="M670 490 c0 -5 9 -10 20 -10 11 0 20 5 20 10 0 6 -9 10 -20 10 -11 0
-20 -4 -20 -10z"/>
<path d="M730 490 c0 -5 9 -10 19 -10 11 0 23 5 26 10 4 6 -5 10 -19 10 -14 0
-26 -4 -26 -10z"/>
<path d="M790 490 c0 -5 11 -10 25 -10 14 0 25 5 25 10 0 6 -11 10 -25 10 -14
0 -25 -4 -25 -10z"/>
<path d="M860 490 c0 -5 9 -10 20 -10 11 0 20 5 20 10 0 6 -9 10 -20 10 -11 0
-20 -4 -20 -10z"/>
<path d="M920 490 c0 -5 9 -10 19 -10 11 0 23 5 26 10 4 6 -5 10 -19 10 -14 0
-26 -4 -26 -10z"/>
<path d="M980 490 c0 -5 11 -10 25 -10 14 0 25 5 25 10 0 6 -11 10 -25 10 -14
0 -25 -4 -25 -10z"/>
<path d="M1045 490 c-4 -6 5 -10 19 -10 14 0 26 5 26 10 0 6 -9 10 -19 10 -11
0 -23 -4 -26 -10z"/>
<path d="M1110 490 c0 -5 9 -10 20 -10 11 0 20 5 20 10 0 6 -9 10 -20 10 -11
0 -20 -4 -20 -10z"/>
<path d="M1170 490 c0 -5 11 -10 25 -10 14 0 25 5 25 10 0 6 -11 10 -25 10
-14 0 -25 -4 -25 -10z"/>
<path d="M1235 490 c-4 -6 5 -10 19 -10 14 0 26 5 26 10 0 6 -9 10 -19 10 -11
0 -23 -4 -26 -10z"/>
<path d="M1300 490 c0 -5 9 -10 20 -10 11 0 20 5 20 10 0 6 -9 10 -20 10 -11
0 -20 -4 -20 -10z"/>
<path d="M1360 490 c0 -5 12 -10 26 -10 14 0 23 4 19 10 -3 6 -15 10 -26 10
-10 0 -19 -4 -19 -10z"/>
<path d="M1420 490 c0 -5 11 -10 25 -10 14 0 25 5 25 10 0 6 -11 10 -25 10
-14 0 -25 -4 -25 -10z"/>
<path d="M1490 490 c0 -5 9 -10 20 -10 11 0 20 5 20 10 0 6 -9 10 -20 10 -11
0 -20 -4 -20 -10z"/>
<path d="M1550 490 c0 -5 11 -10 25 -10 14 0 25 5 25 10 0 6 -11 10 -25 10
-14 0 -25 -4 -25 -10z"/>
<path d="M1610 490 c0 -5 11 -10 25 -10 14 0 25 5 25 10 0 6 -11 10 -25 10
-14 0 -25 -4 -25 -10z"/>
<path d="M1675 490 c3 -5 15 -10 26 -10 10 0 19 5 19 10 0 6 -12 10 -26 10
-14 0 -23 -4 -19 -10z"/>
<path d="M1740 490 c0 -5 9 -10 20 -10 11 0 20 5 20 10 0 6 -9 10 -20 10 -11
0 -20 -4 -20 -10z"/>
<path d="M1800 490 c0 -5 11 -10 25 -10 14 0 25 5 25 10 0 6 -11 10 -25 10
-14 0 -25 -4 -25 -10z"/>
<path d="M1870 490 c0 -5 9 -10 20 -10 11 0 20 5 20 10 0 6 -9 10 -20 10 -11
0 -20 -4 -20 -10z"/>
<path d="M1930 490 c0 -5 9 -10 20 -10 11 0 20 5 20 10 0 6 -9 10 -20 10 -11
0 -20 -4 -20 -10z"/>
<path d="M1990 490 c0 -5 9 -10 20 -10 11 0 20 5 20 10 0 6 -9 10 -20 10 -11
0 -20 -4 -20 -10z"/>
<path d="M2050 490 c0 -5 11 -10 25 -10 14 0 25 5 25 10 0 6 -11 10 -25 10
-14 0 -25 -4 -25 -10z"/>
<path d="M2120 490 c0 -5 9 -10 20 -10 11 0 20 5 20 10 0 6 -9 10 -20 10 -11
0 -20 -4 -20 -10z"/>
<path d="M2180 490 c0 -5 9 -10 20 -10 11 0 20 5 20 10 0 6 -9 10 -20 10 -11
0 -20 -4 -20 -10z"/>
<path d="M2240 490 c0 -5 11 -10 25 -10 14 0 25 5 25 10 0 6 -11 10 -25 10
-14 0 -25 -4 -25 -10z"/>
<path d="M2310 490 c0 -5 9 -10 20 -10 11 0 20 5 20 10 0 6 -9 10 -20 10 -11
0 -20 -4 -20 -10z"/>
<path d="M2370 490 c0 -5 9 -10 20 -10 11 0 20 5 20 10 0 6 -9 10 -20 10 -11
0 -20 -4 -20 -10z"/>
<path d="M2430 490 c0 -5 11 -10 25 -10 14 0 25 5 25 10 0 6 -11 10 -25 10
-14 0 -25 -4 -25 -10z"/>
<path d="M2500 490 c0 -5 9 -10 20 -10 11 0 20 5 20 10 0 6 -9 10 -20 10 -11
0 -20 -4 -20 -10z"/>
<path d="M2560 490 c0 -5 9 -10 20 -10 11 0 20 5 20 10 0 6 -9 10 -20 10 -11
0 -20 -4 -20 -10z"/>
<path d="M2620 490 c0 -5 12 -10 26 -10 14 0 23 4 19 10 -3 6 -15 10 -26 10
-10 0 -19 -4 -19 -10z"/>
<path d="M2680 490 c0 -5 11 -10 25 -10 14 0 25 5 25 10 0 6 -11 10 -25 10
-14 0 -25 -4 -25 -10z"/>
<path d="M2750 490 c0 -5 9 -10 20 -10 11 0 20 5 20 10 0 6 -9 10 -20 10 -11
0 -20 -4 -20 -10z"/>
<path d="M2810 490 c0 -5 9 -10 19 -10 11 0 23 5 26 10 4 6 -5 10 -19 10 -14
0 -26 -4 -26 -10z"/>
<path d="M2870 490 c0 -5 11 -10 25 -10 14 0 25 5 25 10 0 6 -11 10 -25 10
-14 0 -25 -4 -25 -10z"/>
<path d="M2935 490 c-4 -6 5 -10 19 -10 14 0 26 5 26 10 0 6 -9 10 -19 10 -11
0 -23 -4 -26 -10z"/>
<path d="M3000 490 c0 -5 9 -10 20 -10 11 0 20 5 20 10 0 6 -9 10 -20 10 -11
0 -20 -4 -20 -10z"/>
<path d="M3060 490 c0 -5 9 -10 20 -10 11 0 20 5 20 10 0 6 -9 10 -20 10 -11
0 -20 -4 -20 -10z"/>
<path d="M3125 490 c-4 -6 5 -10 19 -10 14 0 26 5 26 10 0 6 -9 10 -19 10 -11
0 -23 -4 -26 -10z"/>
<path d="M3190 490 c0 -5 9 -10 20 -10 11 0 20 5 20 10 0 6 -9 10 -20 10 -11
0 -20 -4 -20 -10z"/>
<path d="M5730 490 c0 -5 9 -10 20 -10 11 0 20 5 20 10 0 6 -9 10 -20 10 -11
0 -20 -4 -20 -10z"/>
<path d="M5790 490 c0 -5 11 -10 25 -10 14 0 25 5 25 10 0 6 -11 10 -25 10
-14 0 -25 -4 -25 -10z"/>
<path d="M5850 490 c0 -5 11 -10 25 -10 14 0 25 5 25 10 0 6 -11 10 -25 10
-14 0 -25 -4 -25 -10z"/>
<path d="M5915 490 c3 -5 15 -10 26 -10 10 0 19 5 19 10 0 6 -12 10 -26 10
-14 0 -23 -4 -19 -10z"/>
<path d="M5980 490 c0 -5 12 -10 26 -10 14 0 23 4 19 10 -3 6 -15 10 -26 10
-10 0 -19 -4 -19 -10z"/>
<path d="M6040 490 c0 -5 11 -10 25 -10 14 0 25 5 25 10 0 6 -11 10 -25 10
-14 0 -25 -4 -25 -10z"/>
<path d="M6110 490 c0 -5 9 -10 20 -10 11 0 20 5 20 10 0 6 -9 10 -20 10 -11
0 -20 -4 -20 -10z"/>
<path d="M6170 490 c0 -5 9 -10 20 -10 11 0 20 5 20 10 0 6 -9 10 -20 10 -11
0 -20 -4 -20 -10z"/>
<path d="M6230 490 c0 -5 9 -10 19 -10 11 0 23 5 26 10 4 6 -5 10 -19 10 -14
0 -26 -4 -26 -10z"/>
<path d="M6300 490 c0 -5 9 -10 20 -10 11 0 20 5 20 10 0 6 -9 10 -20 10 -11
0 -20 -4 -20 -10z"/>
<path d="M6360 490 c0 -5 9 -10 20 -10 11 0 20 5 20 10 0 6 -9 10 -20 10 -11
0 -20 -4 -20 -10z"/>
<path d="M6420 490 c0 -5 9 -10 20 -10 11 0 20 5 20 10 0 6 -9 10 -20 10 -11
0 -20 -4 -20 -10z"/>
<path d="M6480 490 c0 -5 11 -10 25 -10 14 0 25 5 25 10 0 6 -11 10 -25 10
-14 0 -25 -4 -25 -10z"/>
<path d="M6550 490 c0 -5 9 -10 20 -10 11 0 20 5 20 10 0 6 -9 10 -20 10 -11
0 -20 -4 -20 -10z"/>
<path d="M6610 490 c0 -5 9 -10 20 -10 11 0 20 5 20 10 0 6 -9 10 -20 10 -11
0 -20 -4 -20 -10z"/>
<path d="M6670 490 c0 -5 11 -10 25 -10 14 0 25 5 25 10 0 6 -11 10 -25 10
-14 0 -25 -4 -25 -10z"/>
<path d="M6740 490 c0 -5 9 -10 20 -10 11 0 20 5 20 10 0 6 -9 10 -20 10 -11
0 -20 -4 -20 -10z"/>
<path d="M6800 490 c0 -5 9 -10 20 -10 11 0 20 5 20 10 0 6 -9 10 -20 10 -11
0 -20 -4 -20 -10z"/>
<path d="M6860 490 c0 -5 12 -10 26 -10 14 0 23 4 19 10 -3 6 -15 10 -26 10
-10 0 -19 -4 -19 -10z"/>
<path d="M6920 490 c0 -5 11 -10 25 -10 14 0 25 5 25 10 0 6 -11 10 -25 10
-14 0 -25 -4 -25 -10z"/>
<path d="M6990 490 c0 -5 9 -10 20 -10 11 0 20 5 20 10 0 6 -9 10 -20 10 -11
0 -20 -4 -20 -10z"/>
<path d="M7050 490 c0 -5 9 -10 19 -10 11 0 23 5 26 10 4 6 -5 10 -19 10 -14
0 -26 -4 -26 -10z"/>
<path d="M7110 490 c0 -5 11 -10 25 -10 14 0 25 5 25 10 0 6 -11 10 -25 10
-14 0 -25 -4 -25 -10z"/>
<path d="M7175 490 c-4 -6 5 -10 19 -10 14 0 26 5 26 10 0 6 -9 10 -19 10 -11
0 -23 -4 -26 -10z"/>
<path d="M7240 490 c0 -5 9 -10 20 -10 11 0 20 5 20 10 0 6 -9 10 -20 10 -11
0 -20 -4 -20 -10z"/>
<path d="M7300 490 c0 -5 11 -10 25 -10 14 0 25 5 25 10 0 6 -11 10 -25 10
-14 0 -25 -4 -25 -10z"/>
<path d="M7365 490 c-4 -6 5 -10 19 -10 14 0 26 5 26 10 0 6 -9 10 -19 10 -11
0 -23 -4 -26 -10z"/>
<path d="M7430 490 c0 -5 9 -10 20 -10 11 0 20 5 20 10 0 6 -9 10 -20 10 -11
0 -20 -4 -20 -10z"/>
<path d="M7490 490 c0 -5 9 -10 20 -10 11 0 20 5 20 10 0 6 -9 10 -20 10 -11
0 -20 -4 -20 -10z"/>
<path d="M7550 490 c0 -5 11 -10 25 -10 14 0 25 5 25 10 0 6 -11 10 -25 10
-14 0 -25 -4 -25 -10z"/>
<path d="M7620 490 c0 -5 9 -10 20 -10 11 0 20 5 20 10 0 6 -9 10 -20 10 -11
0 -20 -4 -20 -10z"/>
<path d="M7680 490 c0 -5 12 -10 26 -10 14 0 23 4 19 10 -3 6 -15 10 -26 10
-10 0 -19 -4 -19 -10z"/>
<path d="M7740 490 c0 -5 11 -10 25 -10 14 0 25 5 25 10 0 6 -11 10 -25 10
-14 0 -25 -4 -25 -10z"/>
<path d="M7810 490 c0 -5 9 -10 20 -10 11 0 20 5 20 10 0 6 -9 10 -20 10 -11
0 -20 -4 -20 -10z"/>
<path d="M7870 490 c0 -5 9 -10 20 -10 11 0 20 5 20 10 0 6 -9 10 -20 10 -11
0 -20 -4 -20 -10z"/>
<path d="M7930 490 c0 -5 11 -10 25 -10 14 0 25 5 25 10 0 6 -11 10 -25 10
-14 0 -25 -4 -25 -10z"/>
<path d="M7995 490 c3 -5 15 -10 26 -10 10 0 19 5 19 10 0 6 -12 10 -26 10
-14 0 -23 -4 -19 -10z"/>
<path d="M8060 490 c0 -5 9 -10 20 -10 11 0 20 5 20 10 0 6 -9 10 -20 10 -11
0 -20 -4 -20 -10z"/>
<path d="M8120 490 c0 -5 9 -10 19 -10 11 0 23 5 26 10 4 6 -5 10 -19 10 -14
0 -26 -4 -26 -10z"/>
<path d="M8180 490 c0 -5 11 -10 25 -10 14 0 25 5 25 10 0 6 -11 10 -25 10
-14 0 -25 -4 -25 -10z"/>
<path d="M8250 490 c0 -5 9 -10 20 -10 11 0 20 5 20 10 0 6 -9 10 -20 10 -11
0 -20 -4 -20 -10z"/>
<path d="M8310 490 c0 -5 9 -10 20 -10 11 0 20 5 20 10 0 6 -9 10 -20 10 -11
0 -20 -4 -20 -10z"/>
<path d="M8370 490 c0 -5 11 -10 25 -10 14 0 25 5 25 10 0 6 -11 10 -25 10
-14 0 -25 -4 -25 -10z"/>
<path d="M8435 490 c-4 -6 5 -10 19 -10 14 0 26 5 26 10 0 6 -9 10 -19 10 -11
0 -23 -4 -26 -10z"/>
<path d="M8500 490 c0 -5 9 -10 20 -10 11 0 20 5 20 10 0 6 -9 10 -20 10 -11
0 -20 -4 -20 -10z"/>
<path d="M8929 1985 c-57 -18 -113 -77 -129 -135 -7 -27 -10 -165 -8 -414 l3
-372 27 -42 c15 -22 49 -54 75 -69 l48 -28 619 -3 c687 -3 691 -3 755 60 36
35 60 82 62 120 1 15 6 7 15 -22 21 -68 65 -115 130 -140 55 -20 66 -20 887
-18 l832 3 41 22 c49 26 88 74 104 129 8 27 10 149 8 411 l-3 371 -30 44 c-17
23 -51 54 -75 68 l-45 25 -820 3 c-582 2 -835 0 -872 -8 -68 -15 -136 -78
-154 -141 l-12 -44 -13 45 c-14 49 -59 101 -108 128 -28 15 -93 17 -661 19
-525 2 -638 0 -676 -12z m1331 -27 c26 -14 57 -41 75 -66 l30 -44 3 -369 3
-370 -24 -53 c-25 -55 -59 -85 -116 -104 -24 -9 -211 -12 -650 -12 l-617 0
-44 23 c-24 12 -58 39 -74 60 l-31 39 0 398 0 398 31 39 c16 21 50 48 74 61
l44 22 626 0 626 0 44 -22z m2010 0 c24 -13 58 -40 74 -61 l31 -39 3 -376 c3
-327 1 -382 -13 -419 -20 -51 -71 -98 -122 -112 -25 -7 -316 -11 -856 -11
-715 0 -822 2 -855 15 -49 21 -81 52 -103 100 -17 37 -19 72 -19 408 0 342 1
370 19 405 24 46 56 76 101 96 30 13 146 15 865 16 l831 0 44 -22z"/>
<path d="M8899 1783 c-4 -25 -5 -70 -1 -80 5 -15 42 -17 42 -3 0 6 -7 10 -15
10 -8 0 -15 5 -15 10 0 6 7 10 15 10 8 0 15 5 15 10 0 6 -7 10 -15 10 -8 0
-15 5 -15 10 0 6 7 10 15 10 8 0 15 5 15 10 0 11 -39 14 -41 3z"/>
<path d="M8991 1761 c-15 -9 -22 -59 -10 -67 5 -3 9 9 9 25 0 21 5 31 15 31
10 0 15 -10 15 -30 0 -16 5 -30 10 -30 6 0 10 14 10 30 0 42 27 40 33 -2 4
-27 4 -26 3 7 -1 38 -2 39 -37 41 -19 2 -41 -1 -48 -5z"/>
<path d="M9118 1741 c-2 -14 -1 -39 3 -56 5 -21 7 -24 8 -9 1 14 7 21 17 20
24 -2 41 30 28 52 -18 28 -51 24 -56 -7z m45 -17 c-8 -20 -33 -17 -33 4 0 10
3 22 7 25 10 11 32 -13 26 -29z"/>
<path d="M9211 1725 c2 -31 3 -34 6 -12 3 16 11 31 19 34 21 8 17 19 -6 19
-17 0 -20 -6 -19 -41z"/>
<path d="M9282 1758 c-7 -7 -12 -22 -12 -34 0 -26 36 -42 54 -24 8 8 7 10 -5
5 -9 -3 -22 1 -29 10 -11 13 -9 15 14 15 29 0 36 24 10 34 -20 8 -18 8 -32 -6z
m33 -8 c3 -5 -3 -10 -15 -10 -12 0 -18 5 -15 10 3 6 10 10 15 10 5 0 12 -4 15
-10z"/>
<path d="M9354 1758 c-4 -6 2 -19 15 -29 22 -18 13 -37 -11 -23 -10 5 -10 4
-1 -6 15 -16 43 -6 43 15 0 9 -7 18 -15 21 -8 4 -15 11 -15 16 0 6 7 8 15 4 8
-3 15 -1 15 4 0 14 -37 12 -46 -2z"/>
<path d="M9440 1760 c0 -6 4 -9 9 -5 5 3 12 1 15 -4 3 -5 -3 -11 -14 -14 -22
-6 -28 -47 -7 -47 25 0 39 18 35 46 -3 28 -38 50 -38 24z m28 -42 c-6 -18 -28
-21 -28 -4 0 9 7 16 16 16 9 0 14 -5 12 -12z"/>
<path d="M9514 1758 c-4 -6 2 -19 15 -29 22 -18 13 -37 -11 -23 -10 5 -10 4
-1 -6 15 -16 43 -6 43 15 0 9 -7 18 -15 21 -8 4 -15 11 -15 16 0 6 7 8 15 4 8
-3 15 -1 15 4 0 14 -37 12 -46 -2z"/>
<path d="M9630 1755 c-10 -12 -10 -21 -2 -40 11 -24 42 -35 42 -15 0 6 -6 9
-12 8 -7 -2 -14 7 -16 20 -2 15 2 22 12 22 9 0 16 5 16 10 0 15 -26 12 -40 -5z"/>
<path d="M9712 1758 c-27 -27 0 -77 34 -64 10 4 14 16 12 38 -3 35 -25 47 -46
26z m38 -28 c0 -11 -6 -20 -14 -20 -18 0 -29 16 -21 30 11 18 35 11 35 -10z"/>
<path d="M9791 1725 c0 -30 2 -35 8 -20 5 11 7 23 5 26 -2 4 3 12 11 19 16 13
20 8 29 -40 2 -14 3 -7 3 15 -2 36 -4 40 -29 40 -26 1 -28 -2 -27 -40z"/>
<path d="M9551 1540 c-1 -55 0 -56 27 -55 24 0 27 4 27 35 0 30 -3 35 -22 33
-15 -2 -23 4 -26 20 -2 12 -5 -3 -6 -33z m49 -19 c0 -11 -4 -22 -8 -25 -14 -9
-35 12 -29 28 9 23 37 20 37 -3z"/>
<path d="M9640 1580 c0 -5 5 -10 10 -10 6 0 10 5 10 10 0 6 -4 10 -10 10 -5 0
-10 -4 -10 -10z"/>
<path d="M9693 1535 c0 -33 2 -45 4 -27 2 18 2 45 0 60 -2 15 -4 0 -4 -33z"/>
<path d="M9820 1570 c0 -12 -5 -17 -13 -14 -19 7 -39 -20 -35 -48 2 -18 9 -23
33 -23 30 -1 31 0 30 52 0 29 -3 53 -7 53 -5 0 -8 -9 -8 -20z m0 -50 c0 -26
-15 -33 -30 -15 -10 12 -10 18 0 30 15 18 30 11 30 -15z"/>
<path d="M10000 1572 c0 -13 -7 -18 -22 -18 -18 1 -24 -5 -26 -28 -4 -29 12
-55 25 -42 4 4 1 11 -7 16 -12 7 -12 13 -4 27 14 22 29 15 29 -14 1 -12 4 -25
8 -29 4 -4 7 18 7 49 0 32 -2 57 -5 57 -3 0 -5 -8 -5 -18z"/>
<path d="M8890 1518 c0 -21 5 -38 10 -38 6 0 10 12 10 26 0 15 8 33 17 39 16
12 15 13 -10 12 -24 -2 -27 -6 -27 -39z"/>
<path d="M8961 1538 c-11 -29 4 -58 29 -58 11 0 20 4 20 9 0 5 -7 8 -16 7 -9
0 -19 5 -21 12 -3 7 5 12 21 12 28 0 33 9 14 28 -19 19 -38 14 -47 -10z m39 2
c0 -5 -7 -10 -16 -10 -8 0 -12 5 -9 10 3 6 10 10 16 10 5 0 9 -4 9 -10z"/>
<path d="M9047 1553 c-13 -13 -7 -32 13 -38 11 -4 18 -11 14 -16 -3 -6 -12 -8
-20 -5 -8 3 -14 1 -14 -5 0 -6 10 -9 22 -7 31 4 35 34 7 43 -22 7 -22 8 -4 21
15 11 16 14 4 14 -9 0 -19 -3 -22 -7z"/>
<path d="M9132 1552 c-15 -10 -23 -74 -11 -93 6 -11 9 -9 9 7 0 14 6 21 16 20
24 -2 41 30 28 51 -13 21 -25 25 -42 15z m31 -38 c-8 -20 -33 -17 -33 4 0 10
3 22 7 25 10 11 32 -13 26 -29z"/>
<path d="M9208 1535 c-10 -21 -9 -29 5 -43 31 -31 75 19 47 53 -19 22 -39 18
-52 -10z m45 -9 c6 -16 -16 -40 -26 -29 -4 3 -7 15 -7 25 0 21 25 24 33 4z"/>
<path d="M9302 1515 c1 -36 2 -37 5 -7 2 17 8 32 14 32 5 0 12 0 17 0 4 1 10
-14 14 -32 6 -31 6 -31 5 7 -2 36 -4 40 -29 40 -26 1 -28 -2 -26 -40z"/>
<path d="M9393 1544 c-4 -10 0 -20 10 -26 21 -11 22 -32 2 -24 -8 3 -15 1 -15
-5 0 -6 10 -9 22 -7 31 4 35 34 7 43 -22 7 -22 8 -4 21 17 13 17 14 2 14 -10
0 -20 -7 -24 -16z"/>
<path d="M9490 1549 l25 -11 -27 -10 c-28 -10 -37 -31 -17 -43 6 -4 13 -4 17
0 4 4 1 10 -6 12 -15 6 -6 23 13 23 8 0 12 -6 9 -14 -3 -8 0 -17 6 -21 8 -5
10 5 8 31 -3 33 -7 39 -28 41 l-25 3 25 -11z"/>
<path d="M9640 1520 c0 -22 5 -40 10 -40 6 0 10 18 10 40 0 22 -4 40 -10 40
-5 0 -10 -18 -10 -40z"/>
<path d="M9733 1520 c0 -25 2 -35 4 -22 2 12 2 32 0 45 -2 12 -4 2 -4 -23z"/>
<path d="M9890 1546 l24 -14 -24 -4 c-37 -5 -35 -43 3 -43 26 -1 28 2 25 35
-2 29 -7 35 -28 38 l-25 2 25 -14z m20 -35 c0 -5 -7 -11 -15 -15 -9 -3 -15 0
-15 9 0 8 7 15 15 15 8 0 15 -4 15 -9z"/>
<path d="M9263 1325 c0 -33 2 -45 4 -27 2 18 2 45 0 60 -2 15 -4 0 -4 -33z"/>
<path d="M9437 1374 c-3 -3 -3 -12 0 -20 4 -10 -1 -13 -17 -12 -29 4 -44 -32
-25 -59 8 -10 17 -14 22 -9 4 5 2 11 -4 13 -21 7 -16 45 5 41 10 -2 17 -12 17
-25 0 -12 3 -25 8 -29 4 -4 7 18 7 49 0 57 -1 62 -13 51z"/>
<path d="M9480 1370 c0 -5 5 -10 10 -10 6 0 10 5 10 10 0 6 -4 10 -10 10 -5 0
-10 -4 -10 -10z"/>
<path d="M9771 1330 c-1 -55 0 -56 27 -55 24 0 27 4 27 35 0 30 -3 35 -22 33
-15 -2 -23 4 -26 20 -2 12 -5 -3 -6 -33z m49 -21 c0 -23 -28 -26 -37 -3 -6 16
15 37 29 28 4 -3 8 -14 8 -25z"/>
<path d="M9347 1353 c-9 -9 -9 -81 1 -86 4 -3 7 17 7 44 0 27 0 49 -1 49 0 0
-4 -3 -7 -7z"/>
<path d="M9596 1352 c-2 -4 -1 -23 3 -42 5 -24 13 -36 26 -38 18 -3 19 -2 3 8
-20 12 -24 40 -7 57 7 7 6 12 -5 16 -8 3 -17 3 -20 -1z"/>
<path d="M8893 1334 c-4 -10 0 -20 10 -26 22 -12 22 -25 0 -32 -11 -3 -8 -4 7
-3 31 2 39 33 10 42 -11 3 -18 11 -14 16 3 5 10 7 15 4 5 -4 9 -1 9 4 0 17
-30 13 -37 -5z"/>
<path d="M8970 1335 c-15 -18 -10 -45 13 -59 15 -9 21 -7 33 8 18 25 18 31 -2
50 -19 20 -28 20 -44 1z m40 -25 c0 -21 -24 -28 -35 -10 -8 14 3 30 21 30 8 0
14 -9 14 -20z"/>
<path d="M9062 1338 c-26 -26 -9 -68 29 -68 17 0 9 18 -11 23 -23 6 -17 37 6
37 8 0 14 5 14 10 0 14 -23 13 -38 -2z"/>
<path d="M9133 1310 c0 -25 2 -35 4 -22 2 12 2 32 0 45 -2 12 -4 2 -4 -23z"/>
<path d="M9180 1340 c0 -6 5 -8 10 -5 6 3 16 3 22 -1 9 -6 5 -10 -12 -14 -28
-7 -35 -40 -10 -48 12 -4 13 -3 3 10 -14 16 -8 28 13 28 8 0 11 -6 8 -14 -3
-8 0 -17 6 -21 8 -5 10 5 8 31 -2 32 -7 40 -25 42 -13 2 -23 -2 -23 -8z"/>
<path d="M9480 1310 c0 -22 5 -40 10 -40 6 0 10 18 10 40 0 22 -4 40 -10 40
-5 0 -10 -18 -10 -40z"/>
<path d="M9524 1338 c-4 -6 2 -19 15 -29 20 -17 13 -38 -9 -24 -5 3 -10 1 -10
-4 0 -6 9 -11 20 -11 27 0 38 29 17 45 -21 15 -22 29 -2 21 8 -3 15 -1 15 4 0
14 -37 12 -46 -2z"/>
<path d="M9661 1305 c2 -31 3 -34 6 -12 3 16 11 31 19 34 21 8 17 19 -6 19
-17 0 -20 -6 -19 -41z"/>
<path d="M9733 1310 c0 -25 2 -35 4 -22 2 12 2 32 0 45 -2 12 -4 2 -4 -23z"/>
<path d="M9860 1321 c0 -33 13 -46 48 -46 19 -1 22 4 22 37 0 46 -18 51 -22 6
-2 -18 -7 -33 -13 -33 -5 0 -11 15 -13 33 -4 40 -22 43 -22 3z"/>
<path d="M9950 1345 c0 -3 7 -22 15 -42 14 -33 14 -37 -2 -50 -14 -11 -14 -13
-3 -11 13 4 58 80 60 101 1 17 -19 5 -22 -13 -4 -27 -22 -27 -26 0 -3 17 -22
30 -22 15z"/>
<path d="M10043 1333 c-3 -10 -8 -21 -10 -25 -5 -10 26 -38 43 -38 8 0 14 5
14 10 0 6 -3 9 -7 9 -19 -3 -33 2 -33 11 0 6 11 10 25 10 27 0 32 9 13 28 -17
17 -38 15 -45 -5z m37 -3 c0 -5 -7 -10 -16 -10 -8 0 -12 5 -9 10 3 6 10 10 16
10 5 0 9 -4 9 -10z"/>
<path d="M8940 1162 c0 -13 -7 -18 -22 -18 -20 1 -23 -4 -23 -34 0 -31 3 -35
28 -35 26 -1 27 1 27 52 0 29 -2 53 -5 53 -3 0 -5 -8 -5 -18z m0 -52 c0 -13
-7 -20 -20 -20 -19 0 -27 20 -13 33 13 14 33 6 33 -13z"/>
<path d="M8980 1170 c0 -5 5 -10 10 -10 6 0 10 5 10 10 0 6 -4 10 -10 10 -5 0
-10 -4 -10 -10z"/>
<path d="M9200 1163 c0 -16 -5 -20 -19 -16 -13 3 -21 -2 -26 -16 -11 -35 3
-60 33 -59 26 1 27 3 27 49 0 26 -4 51 -8 55 -4 4 -7 -2 -7 -13z m0 -52 c0
-11 -4 -22 -9 -25 -12 -8 -34 21 -26 34 11 17 35 11 35 -9z"/>
<path d="M9470 1160 c0 -12 -5 -17 -13 -14 -8 3 -20 -2 -27 -11 -20 -24 1 -63
34 -61 24 1 26 4 26 54 0 28 -4 52 -10 52 -5 0 -10 -9 -10 -20z m5 -40 c8 -13
-14 -42 -26 -34 -5 3 -9 14 -9 25 0 20 24 26 35 9z"/>
<path d="M9685 1115 c0 -29 3 -51 8 -48 9 5 9 74 -1 90 -4 6 -7 -13 -7 -42z"/>
<path d="M8989 1148 c-7 -14 -5 -78 2 -78 5 0 9 18 9 40 0 33 -5 50 -11 38z"/>
<path d="M9020 1145 c0 -11 29 -75 34 -75 5 0 36 66 36 76 0 2 -4 4 -9 4 -5 0
-12 -15 -16 -32 l-7 -33 -14 33 c-13 28 -24 41 -24 27z"/>
<path d="M9113 1110 c0 -25 2 -35 4 -22 2 12 2 32 0 45 -2 12 -4 2 -4 -23z"/>
<path d="M9250 1135 c-19 -23 2 -65 32 -64 l23 0 -22 9 c-31 12 -29 30 2 30
27 0 32 9 13 28 -16 16 -33 15 -48 -3z m35 -5 c3 -5 -1 -10 -10 -10 -9 0 -13
5 -10 10 3 6 8 10 10 10 2 0 7 -4 10 -10z"/>
<path d="M9330 1108 c0 -46 18 -51 22 -5 2 17 8 32 13 32 6 0 11 -15 13 -32 4
-41 22 -44 22 -4 0 33 -13 46 -47 46 -20 1 -23 -4 -23 -37z"/>
<path d="M9520 1131 c-13 -26 4 -64 27 -59 25 5 40 35 27 56 -16 25 -41 26
-54 3z m45 -21 c0 -8 -8 -16 -17 -18 -13 -2 -18 3 -18 18 0 15 5 20 18 18 9
-2 17 -10 17 -18z"/>
<path d="M9604 1138 c-4 -6 2 -19 14 -29 28 -22 28 -33 1 -26 -16 4 -19 3 -11
-5 14 -14 42 -3 42 17 0 9 -7 18 -15 21 -8 4 -15 11 -15 16 0 6 7 8 15 4 8 -3
15 -1 15 4 0 14 -37 12 -46 -2z"/>
<path d="M11460 1802 c0 -13 -7 -18 -22 -18 -20 1 -23 -4 -23 -34 0 -32 3 -35
30 -37 30 -1 30 -1 30 53 0 30 -3 54 -7 54 -5 0 -8 -8 -8 -18z m0 -51 c0 -11
-4 -22 -8 -25 -14 -9 -35 12 -29 28 9 23 37 20 37 -3z"/>
<path d="M11500 1810 c0 -5 5 -10 10 -10 6 0 10 5 10 10 0 6 -4 10 -10 10 -5
0 -10 -4 -10 -10z"/>
<path d="M11620 1810 c0 -5 5 -10 10 -10 6 0 10 5 10 10 0 6 -4 10 -10 10 -5
0 -10 -4 -10 -10z"/>
<path d="M11943 1765 c0 -33 2 -45 4 -27 2 18 2 45 0 60 -2 15 -4 0 -4 -33z"/>
<path d="M10540 1760 c0 -47 2 -50 25 -50 14 0 25 5 25 10 0 6 -9 10 -20 10
-27 0 -25 16 3 25 l22 8 -22 4 c-25 5 -32 23 -9 23 8 0 18 5 21 10 4 6 -5 10
-19 10 -24 0 -26 -3 -26 -50z"/>
<path d="M11197 1792 c-10 -17 6 -82 19 -82 8 0 14 5 14 10 0 6 -4 10 -10 10
-14 0 -12 48 2 52 8 3 6 7 -5 11 -9 3 -18 3 -20 -1z"/>
<path d="M10630 1780 c-15 -9 -23 -70 -9 -70 4 0 9 15 11 33 2 17 8 32 13 32
6 0 11 -15 13 -32 4 -41 22 -43 22 -3 0 42 27 40 33 -2 4 -27 4 -26 3 7 -1 38
-2 39 -37 41 -19 2 -42 -1 -49 -6z"/>
<path d="M10761 1730 c1 -32 4 -47 7 -35 4 11 16 20 27 20 16 0 20 7 20 35 0
31 -3 35 -27 35 -27 1 -28 0 -27 -55z m49 20 c0 -13 -7 -20 -20 -20 -13 0 -20
7 -20 20 0 13 7 20 20 20 13 0 20 -7 20 -20z"/>
<path d="M10851 1745 c2 -31 3 -34 6 -12 3 16 11 31 19 34 21 8 17 19 -6 19
-17 0 -20 -6 -19 -41z"/>
<path d="M10922 1778 c-15 -15 -15 -41 0 -56 15 -15 48 -16 48 -2 0 6 -3 9 -7
9 -19 -3 -33 2 -33 11 0 6 9 10 21 10 14 0 19 5 17 17 -4 22 -29 28 -46 11z
m33 -8 c3 -5 -1 -10 -9 -10 -9 0 -16 5 -16 10 0 6 4 10 9 10 6 0 13 -4 16 -10z"/>
<path d="M10994 1778 c-4 -7 2 -18 14 -26 25 -16 30 -37 7 -28 -8 3 -15 1 -15
-4 0 -15 26 -12 40 4 9 12 7 17 -9 28 -24 15 -28 33 -6 24 8 -3 15 -1 15 4 0
14 -37 12 -46 -2z"/>
<path d="M11075 1781 c-3 -6 0 -8 8 -5 8 3 18 1 21 -4 3 -5 -3 -12 -14 -15
-12 -3 -20 -14 -20 -27 0 -19 4 -21 27 -15 36 9 37 9 26 42 -10 29 -36 42 -48
24z m33 -42 c-2 -6 -8 -10 -13 -10 -5 0 -11 4 -13 10 -2 6 4 11 13 11 9 0 15
-5 13 -11z"/>
<path d="M11261 1745 c2 -31 3 -34 6 -12 3 16 11 31 19 34 21 8 17 19 -6 19
-17 0 -20 -6 -19 -41z"/>
<path d="M11330 1781 c0 -6 6 -8 14 -5 8 3 17 1 20 -4 3 -6 -6 -13 -20 -16
-35 -9 -29 -41 9 -41 26 -1 28 2 25 35 -2 28 -8 36 -25 38 -13 2 -23 -1 -23
-7z m40 -41 c0 -5 -9 -10 -21 -10 -11 0 -17 5 -14 10 3 6 13 10 21 10 8 0 14
-4 14 -10z"/>
<path d="M11500 1750 c0 -22 5 -40 10 -40 6 0 10 18 10 40 0 22 -4 40 -10 40
-5 0 -10 -18 -10 -40z"/>
<path d="M11552 1778 c-23 -23 -7 -68 25 -68 7 0 13 5 13 10 0 6 -7 10 -15 10
-8 0 -15 9 -15 20 0 11 7 20 15 20 8 0 15 5 15 10 0 14 -23 13 -38 -2z"/>
<path d="M11620 1750 c0 -22 5 -40 10 -40 6 0 10 18 10 40 0 22 -4 40 -10 40
-5 0 -10 -18 -10 -40z"/>
<path d="M11670 1775 c-28 -34 16 -84 47 -53 14 14 15 22 5 43 -13 28 -33 32
-52 10z m40 -25 c0 -11 -6 -20 -13 -20 -19 0 -27 10 -20 26 8 21 33 17 33 -6z"/>
<path d="M11769 1783 c-11 -3 -16 -14 -15 -38 1 -43 16 -47 16 -5 0 20 5 30
15 30 10 0 15 -10 15 -30 0 -16 5 -30 11 -30 6 0 9 16 7 37 -3 38 -14 46 -49
36z"/>
<path d="M11860 1779 c0 -5 4 -8 9 -4 5 3 12 1 15 -4 3 -5 -3 -11 -14 -14 -22
-6 -28 -47 -7 -47 33 1 55 42 34 68 -12 15 -37 16 -37 1z m28 -41 c-6 -18 -28
-21 -28 -4 0 9 7 16 16 16 9 0 14 -5 12 -12z"/>
<path d="M11170 1610 c0 -5 5 -10 10 -10 6 0 10 5 10 10 0 6 -4 10 -10 10 -5
0 -10 -4 -10 -10z"/>
<path d="M11930 1610 c0 -5 5 -10 10 -10 6 0 10 5 10 10 0 6 -4 10 -10 10 -5
0 -10 -4 -10 -10z"/>
<path d="M10685 1565 c3 -57 15 -71 16 -19 0 21 3 32 6 24 27 -71 24 -69 43
-25 l19 40 0 -38 c1 -21 5 -36 10 -33 12 8 8 89 -6 93 -6 2 -16 -12 -23 -32
-13 -40 -25 -38 -35 5 -11 49 -33 38 -30 -15z"/>
<path d="M10830 1580 c0 -6 4 -9 9 -5 5 3 12 1 15 -4 3 -5 -5 -12 -19 -15 -25
-6 -34 -30 -15 -41 6 -3 19 -3 31 0 16 5 19 14 17 38 -2 21 -9 33 -20 35 -10
2 -18 -2 -18 -8z m28 -41 c-2 -6 -8 -10 -13 -10 -5 0 -11 4 -13 10 -2 6 4 11
13 11 9 0 15 -5 13 -11z"/>
<path d="M10900 1582 c0 -4 5 -13 12 -20 8 -8 8 -15 -2 -27 -7 -8 -10 -19 -6
-23 4 -4 12 1 18 11 9 18 10 18 24 0 7 -10 14 -13 14 -7 0 5 -5 15 -12 22 -9
9 -9 15 0 24 18 18 14 32 -5 17 -13 -11 -17 -11 -20 -1 -5 13 -23 17 -23 4z"/>
<path d="M10990 1550 c0 -22 3 -40 8 -40 4 0 6 18 4 40 -2 22 -6 40 -8 40 -2
0 -4 -18 -4 -40z"/>
<path d="M11030 1548 c0 -21 5 -38 10 -38 6 0 10 14 10 30 0 20 5 30 15 30 10
0 15 -10 15 -30 0 -16 5 -30 11 -30 5 0 8 4 5 9 -4 5 -1 22 4 37 12 32 26 23
33 -21 3 -22 4 -19 3 10 l-1 40 -52 0 -53 0 0 -37z"/>
<path d="M11179 1583 c-6 -31 -4 -73 3 -73 4 0 8 18 8 40 0 22 -2 40 -5 40 -3
0 -6 -3 -6 -7z"/>
<path d="M11229 1581 c12 -8 12 -13 -2 -35 -22 -34 -22 -36 11 -36 21 0 24 2
12 10 -12 8 -13 13 -2 30 18 29 15 40 -10 40 -18 0 -20 -2 -9 -9z"/>
<path d="M11300 1579 c0 -5 4 -8 9 -4 5 3 12 1 15 -4 3 -5 -3 -11 -14 -14 -12
-3 -20 -14 -20 -26 0 -16 6 -20 28 -18 23 2 28 7 28 27 -1 14 -5 31 -9 38 -10
15 -37 16 -37 1z m30 -38 c0 -12 -20 -25 -27 -18 -7 7 6 27 18 27 5 0 9 -4 9
-9z"/>
<path d="M11413 1574 c-7 -19 11 -38 30 -31 8 3 17 15 20 26 4 17 1 21 -19 21
-14 0 -27 -7 -31 -16z m37 -9 c0 -8 -4 -15 -10 -15 -5 0 -10 7 -10 15 0 8 5
15 10 15 6 0 10 -7 10 -15z"/>
<path d="M11500 1580 c0 -6 5 -8 10 -5 6 3 16 3 22 -1 9 -6 5 -10 -12 -14 -37
-9 -34 -45 3 -45 26 -1 28 2 25 35 -2 28 -8 36 -25 38 -13 2 -23 -2 -23 -8z
m40 -39 c0 -12 -28 -22 -34 -12 -3 5 -3 11 1 15 9 9 33 7 33 -3z"/>
<path d="M11598 1583 c-13 -3 -18 -15 -18 -39 0 -19 5 -34 10 -34 6 0 10 14
10 30 0 20 5 30 15 30 10 0 15 -10 15 -30 0 -16 5 -30 10 -30 11 0 13 39 4 64
-6 16 -14 18 -46 9z"/>
<path d="M11685 1581 c-3 -6 0 -8 8 -5 8 3 18 1 21 -4 3 -6 -6 -13 -20 -16
-35 -9 -28 -41 9 -42 26 -1 28 1 25 35 -3 36 -28 55 -43 32z m33 -43 c-6 -18
-28 -21 -28 -4 0 9 7 16 16 16 9 0 14 -5 12 -12z"/>
<path d="M11765 1553 c1 -42 15 -56 15 -15 0 22 5 32 15 32 10 0 15 -10 15
-30 0 -16 5 -30 11 -30 6 0 9 16 7 38 -3 34 -6 37 -34 37 -28 1 -30 -2 -29
-32z"/>
<path d="M11859 1563 c-12 -33 9 -60 38 -48 16 8 16 9 -4 12 -26 5 -33 43 -9
43 8 0 18 5 21 10 3 6 -3 10 -15 10 -13 0 -24 -10 -31 -27z"/>
<path d="M11938 1578 c-2 -7 -1 -26 3 -43 6 -28 7 -26 8 13 1 42 -3 53 -11 30z"/>
<path d="M11990 1579 c0 -5 4 -8 9 -4 5 3 12 1 15 -4 3 -5 -3 -11 -14 -14 -12
-3 -20 -14 -20 -26 0 -16 6 -20 28 -18 22 2 28 7 27 27 0 14 -4 31 -8 38 -10
15 -37 16 -37 1z m30 -37 c0 -13 -12 -22 -22 -16 -10 6 -1 24 13 24 5 0 9 -4
9 -8z"/>
<path d="M12064 1578 c-4 -6 2 -19 15 -29 20 -17 13 -38 -9 -24 -5 3 -10 1
-10 -4 0 -6 9 -11 20 -11 27 0 38 29 17 45 -18 13 -24 30 -7 20 6 -3 10 -1 10
4 0 15 -27 14 -36 -1z"/>
<path d="M11407 1511 c-4 -16 1 -23 18 -27 13 -3 29 -3 34 1 16 9 13 35 -3 35
-8 0 -21 3 -29 6 -9 3 -16 -3 -20 -15z m48 -11 c-3 -5 -13 -10 -21 -10 -8 0
-14 5 -14 10 0 6 9 10 21 10 11 0 17 -4 14 -10z"/>
<path d="M10975 1400 c-3 -5 -1 -10 4 -10 6 0 11 5 11 10 0 6 -2 10 -4 10 -3
0 -8 -4 -11 -10z"/>
<path d="M11021 1360 c-1 -55 0 -56 27 -55 24 0 27 4 27 35 0 30 -3 35 -22 33
-15 -2 -23 4 -26 20 -2 12 -5 -3 -6 -33z m49 -20 c0 -21 -24 -28 -35 -10 -8
14 3 30 21 30 8 0 14 -9 14 -20z"/>
<path d="M11453 1390 c4 -15 0 -19 -17 -17 -18 2 -21 -3 -21 -33 0 -31 3 -35
28 -35 26 -1 27 1 27 52 0 32 -4 53 -11 53 -6 0 -9 -9 -6 -20z m2 -50 c0 -8
-8 -16 -17 -18 -13 -2 -18 3 -18 18 0 15 5 20 18 18 9 -2 17 -10 17 -18z"/>
<path d="M11500 1400 c0 -5 5 -10 10 -10 6 0 10 5 10 10 0 6 -4 10 -10 10 -5
0 -10 -4 -10 -10z"/>
<path d="M11720 1392 c0 -13 -7 -18 -22 -18 -20 1 -23 -4 -23 -34 0 -31 3 -35
28 -35 26 -1 27 1 27 52 0 29 -2 53 -5 53 -3 0 -5 -8 -5 -18z m0 -52 c0 -21
-24 -28 -35 -10 -8 14 3 30 21 30 8 0 14 -9 14 -20z"/>
<path d="M11990 1393 c0 -16 -5 -20 -19 -16 -13 3 -21 -2 -26 -16 -11 -35 3
-60 33 -59 26 1 27 3 27 49 -1 27 -4 51 -8 55 -4 4 -7 -2 -7 -13z m0 -52 c0
-11 -4 -22 -9 -25 -12 -8 -34 21 -26 34 11 17 35 11 35 -9z"/>
<path d="M10576 1384 c-8 -22 -7 -82 2 -87 4 -3 7 19 8 49 0 59 -1 62 -10 38z"/>
<path d="M10629 1398 c0 -2 -1 -24 -2 -51 -2 -42 0 -47 20 -47 26 0 53 25 53
50 0 24 -26 50 -51 50 -10 0 -19 -1 -20 -2z m51 -48 c0 -23 -4 -30 -20 -30
-16 0 -20 7 -20 30 0 23 4 30 20 30 16 0 20 -7 20 -30z"/>
<path d="M12205 1340 c0 -32 3 -53 7 -47 4 7 8 28 8 47 0 19 -4 40 -8 47 -4 6
-7 -15 -7 -47z"/>
<path d="M10849 1382 c-1 -4 0 -20 1 -37 2 -38 16 -53 33 -36 8 9 8 12 0 7
-16 -9 -27 32 -14 48 9 10 8 15 -4 20 -8 3 -15 2 -16 -2z"/>
<path d="M10733 1340 c0 -25 2 -35 4 -22 2 12 2 32 0 45 -2 12 -4 2 -4 -23z"/>
<path d="M10777 1373 c-13 -13 -7 -32 13 -38 11 -4 18 -11 14 -16 -3 -6 -12
-8 -20 -5 -8 3 -14 1 -14 -4 0 -6 9 -10 20 -10 27 0 38 29 17 45 -21 15 -22
29 -1 21 8 -3 12 -2 9 4 -7 11 -28 13 -38 3z"/>
<path d="M10911 1335 l1 -40 9 33 c5 17 14 32 19 32 6 0 10 4 10 8 0 4 -9 8
-20 8 -17 0 -20 -7 -19 -41z"/>
<path d="M10975 1346 c0 -19 3 -38 8 -42 4 -4 7 11 7 34 0 23 -4 42 -8 42 -4
0 -8 -15 -7 -34z"/>
<path d="M11112 1344 c3 -35 6 -39 31 -39 25 -1 27 2 26 40 -1 37 -2 38 -8 10
-8 -40 -46 -50 -39 -11 3 15 1 29 -4 32 -5 4 -8 -10 -6 -32z"/>
<path d="M11204 1359 c16 -53 18 -69 7 -69 -6 0 -11 -4 -11 -10 0 -5 5 -10 11
-10 13 0 52 87 46 103 -3 7 -8 0 -12 -15 -8 -32 -25 -37 -25 -9 0 11 -5 23
-12 27 -8 5 -9 0 -4 -17z"/>
<path d="M11292 1368 c-25 -25 -6 -68 30 -68 10 0 18 5 18 10 0 6 -3 9 -7 9
-19 -3 -33 2 -33 11 0 6 11 10 25 10 23 0 24 2 15 20 -12 23 -30 26 -48 8z
m33 -8 c3 -5 -1 -10 -10 -10 -9 0 -13 5 -10 10 3 6 8 10 10 10 2 0 7 -4 10
-10z"/>
<path d="M11500 1340 c0 -22 5 -40 10 -40 6 0 10 18 10 40 0 22 -4 40 -10 40
-5 0 -10 -18 -10 -40z"/>
<path d="M11541 1374 c-2 -18 20 -74 29 -74 10 0 34 69 26 77 -3 3 -8 -6 -12
-21 -8 -33 -17 -33 -31 2 -6 15 -11 22 -12 16z"/>
<path d="M11633 1340 c0 -25 2 -35 4 -22 2 12 2 32 0 45 -2 12 -4 2 -4 -23z"/>
<path d="M11772 1371 c-18 -11 -12 -51 10 -65 13 -8 21 -7 30 3 11 12 10 13
-4 8 -9 -3 -22 1 -28 9 -10 12 -8 14 15 14 20 0 26 4 23 17 -4 20 -27 27 -46
14z m33 -11 c3 -5 -3 -10 -15 -10 -12 0 -18 5 -15 10 3 6 10 10 15 10 5 0 12
-4 15 -10z"/>
<path d="M11851 1335 c1 -37 2 -38 8 -10 9 43 38 45 44 3 4 -28 4 -27 3 7 -1
37 -3 40 -28 40 -26 1 -28 -2 -27 -40z"/>
<path d="M12040 1365 c-26 -31 13 -82 44 -56 19 16 21 42 4 59 -16 16 -33 15
-48 -3z m40 -25 c0 -21 -24 -28 -35 -10 -8 14 3 30 21 30 8 0 14 -9 14 -20z"/>
<path d="M12127 1373 c-13 -13 -7 -32 13 -38 11 -4 18 -11 14 -16 -3 -6 -12
-8 -20 -5 -8 3 -14 1 -14 -4 0 -6 9 -10 20 -10 27 0 38 29 17 45 -22 16 -22
26 0 18 11 -4 14 -3 9 5 -8 13 -29 16 -39 5z"/>
<path d="M10280 505 c0 -43 4 -75 10 -75 6 0 10 32 10 75 0 43 -4 75 -10 75
-6 0 -10 -32 -10 -75z"/>
<path d="M11066 565 c-4 -13 -2 -14 14 -5 23 13 26 20 6 20 -8 0 -16 -7 -20
-15z"/>
<path d="M11325 570 c-3 -5 -1 -10 4 -10 6 0 11 5 11 10 0 6 -2 10 -4 10 -3 0
-8 -4 -11 -10z"/>
<path d="M9350 500 c0 -68 1 -70 26 -70 49 0 63 15 61 70 -2 56 -14 70 -59 70
-28 0 -28 0 -28 -70z m65 30 c0 -8 -10 -16 -22 -18 -18 -3 -23 2 -23 18 0 16
5 21 23 18 12 -2 22 -10 22 -18z m0 -60 c0 -8 -10 -16 -22 -18 -18 -3 -23 2
-23 18 0 16 5 21 23 18 12 -2 22 -10 22 -18z"/>
<path d="M8858 519 c-21 -11 -38 -23 -38 -27 0 -4 18 -15 40 -24 48 -20 54 -8
8 14 l-33 16 33 12 c17 7 32 16 32 21 0 11 2 12 -42 -12z"/>
<path d="M9470 496 c0 -48 19 -73 47 -61 16 6 16 8 -4 16 -19 7 -23 16 -23 49
0 22 -4 40 -10 40 -5 0 -10 -20 -10 -44z"/>
<path d="M9538 498 c-5 -47 -1 -68 13 -68 5 0 9 25 9 55 0 65 -16 74 -22 13z"/>
<path d="M9603 533 c-20 -7 -15 -41 7 -53 11 -6 20 -15 20 -20 0 -6 -9 -10
-20 -10 -11 0 -20 -4 -20 -10 0 -14 33 -12 54 3 21 15 13 44 -15 52 -25 8 -24
25 2 25 11 0 17 5 14 10 -7 11 -22 12 -42 3z"/>
<path d="M9698 529 c-26 -15 -24 -75 3 -89 11 -7 28 -8 37 -4 14 6 13 8 -8 13
-20 5 -25 13 -25 36 0 24 5 31 23 33 12 2 20 8 17 13 -8 12 -25 11 -47 -2z"/>
<path d="M9795 530 c-4 -6 5 -10 19 -10 36 0 33 -16 -4 -23 -24 -5 -30 -12
-30 -32 0 -29 23 -43 43 -26 10 8 17 7 25 -1 9 -9 12 -1 12 33 0 25 -5 50 -12
57 -15 15 -45 16 -53 2z m41 -69 c-10 -16 -36 -13 -36 3 0 17 21 27 34 16 4
-5 5 -13 2 -19z"/>
<path d="M9890 485 c0 -65 17 -74 22 -12 2 34 7 42 23 42 16 0 21 -8 23 -42 4
-56 22 -55 22 1 0 53 -21 77 -51 58 -11 -7 -19 -8 -19 -2 0 5 -4 10 -10 10 -5
0 -10 -25 -10 -55z"/>
<path d="M10067 493 c17 -51 29 -70 38 -61 14 14 44 108 35 108 -6 0 -15 -12
-21 -27 -21 -58 -22 -59 -34 -19 -6 22 -17 42 -23 44 -7 2 -6 -13 5 -45z"/>
<path d="M10185 530 c-3 -5 3 -10 14 -10 11 0 23 -4 26 -10 3 -5 -2 -10 -12
-10 -11 0 -28 -6 -39 -14 -29 -22 -7 -51 40 -52 35 -1 36 0 36 37 0 51 -45 92
-65 59z m38 -65 c-6 -16 -43 -21 -43 -5 0 11 32 30 42 24 4 -3 5 -11 1 -19z"/>
<path d="M10346 524 c-22 -21 -20 -57 4 -79 17 -15 24 -16 45 -7 46 21 28 102
-24 102 -5 0 -17 -7 -25 -16z m49 -39 c0 -23 -4 -30 -20 -30 -21 0 -31 25 -21
51 11 28 41 12 41 -21z"/>
<path d="M10450 485 c0 -30 5 -55 10 -55 6 0 10 15 10 34 0 24 7 38 23 49 12
8 19 18 15 22 -4 4 -14 2 -23 -5 -10 -8 -15 -9 -15 -1 0 6 -4 11 -10 11 -5 0
-10 -25 -10 -55z"/>
<path d="M10598 529 c-12 -6 -18 -22 -18 -45 0 -27 5 -37 24 -46 14 -6 33 -7
43 -3 15 7 13 9 -11 14 -40 8 -46 31 -9 32 15 1 32 1 36 0 12 -2 -3 42 -17 51
-15 10 -28 9 -48 -3z m47 -19 c4 -6 -5 -10 -19 -10 -14 0 -26 5 -26 10 0 6 9
10 19 10 11 0 23 -4 26 -10z"/>
<path d="M10706 527 c-12 -9 -17 -23 -14 -46 3 -39 26 -58 54 -46 17 7 17 8
-6 14 -20 5 -25 13 -25 36 0 24 5 31 23 33 12 2 20 8 17 13 -8 13 -28 11 -49
-4z"/>
<path d="M10808 529 c-12 -6 -18 -22 -18 -45 0 -27 5 -37 25 -46 49 -22 88 48
47 85 -21 19 -30 20 -54 6z m48 -33 c7 -29 -1 -46 -21 -46 -21 0 -35 31 -24
52 14 26 38 22 45 -6z"/>
<path d="M10910 483 c0 -29 5 -53 10 -53 6 0 10 18 10 40 0 27 5 43 15 47 23
8 29 -3 27 -47 -2 -22 1 -40 6 -40 13 0 19 38 12 75 -5 27 -9 30 -43 30 l-37
0 0 -52z"/>
<path d="M11036 524 c-29 -28 -11 -94 25 -94 29 0 49 22 49 55 0 49 -42 71
-74 39z m49 -39 c0 -23 -4 -30 -20 -30 -21 0 -31 25 -21 51 11 28 41 12 41
-21z"/>
<path d="M11140 483 c0 -29 5 -53 10 -53 6 0 10 15 10 33 0 41 13 62 34 54 11
-4 16 -19 16 -47 0 -53 18 -52 22 2 2 31 8 44 21 46 14 3 17 -4 17 -42 0 -25
5 -46 10 -46 6 0 10 22 10 49 0 53 -16 69 -50 51 -11 -6 -21 -6 -24 -1 -3 5
-22 9 -41 8 l-35 -1 0 -53z"/>
<path d="M11320 486 c0 -60 19 -79 21 -21 1 19 2 43 3 52 0 9 -5 18 -11 21
-10 3 -13 -12 -13 -52z"/>
<path d="M11396 527 c-12 -9 -17 -23 -14 -46 3 -39 26 -58 54 -46 17 7 17 8
-6 14 -20 5 -25 13 -25 36 0 24 5 31 23 33 12 2 20 8 17 13 -8 13 -28 11 -49
-4z"/>
<path d="M11486 524 c-29 -28 -11 -94 25 -94 29 0 49 22 49 55 0 49 -42 71
-74 39z m52 -37 c2 -18 -2 -29 -13 -33 -24 -9 -39 10 -31 41 9 35 40 30 44 -8z"/>
<path d="M12125 529 c4 -5 19 -15 33 -21 l27 -10 -32 -16 c-18 -9 -33 -20 -33
-24 0 -5 3 -7 8 -5 4 3 25 12 47 21 l39 17 -43 24 c-48 28 -55 30 -46 14z"/>
<path d="M8920 480 c0 -5 9 -10 20 -10 11 0 20 5 20 10 0 6 -9 10 -20 10 -11
0 -20 -4 -20 -10z"/>
<path d="M8980 480 c0 -5 9 -10 20 -10 11 0 20 5 20 10 0 6 -9 10 -20 10 -11
0 -20 -4 -20 -10z"/>
<path d="M9040 480 c0 -5 9 -10 20 -10 11 0 20 5 20 10 0 6 -9 10 -20 10 -11
0 -20 -4 -20 -10z"/>
<path d="M9100 480 c0 -5 9 -10 20 -10 11 0 20 5 20 10 0 6 -9 10 -20 10 -11
0 -20 -4 -20 -10z"/>
<path d="M9160 480 c0 -5 9 -10 20 -10 11 0 20 5 20 10 0 6 -9 10 -20 10 -11
0 -20 -4 -20 -10z"/>
<path d="M9220 480 c0 -5 9 -10 20 -10 11 0 20 5 20 10 0 6 -9 10 -20 10 -11
0 -20 -4 -20 -10z"/>
<path d="M9280 480 c0 -5 9 -10 20 -10 11 0 20 5 20 10 0 6 -9 10 -20 10 -11
0 -20 -4 -20 -10z"/>
<path d="M11580 480 c0 -5 9 -10 20 -10 11 0 20 5 20 10 0 6 -9 10 -20 10 -11
0 -20 -4 -20 -10z"/>
<path d="M11640 480 c0 -5 9 -10 20 -10 11 0 20 5 20 10 0 6 -9 10 -20 10 -11
0 -20 -4 -20 -10z"/>
<path d="M11700 480 c0 -5 9 -10 20 -10 11 0 20 5 20 10 0 6 -9 10 -20 10 -11
0 -20 -4 -20 -10z"/>
<path d="M11760 480 c0 -5 9 -10 20 -10 11 0 20 5 20 10 0 6 -9 10 -20 10 -11
0 -20 -4 -20 -10z"/>
<path d="M11820 480 c0 -5 9 -10 20 -10 11 0 20 5 20 10 0 6 -9 10 -20 10 -11
0 -20 -4 -20 -10z"/>
<path d="M11880 480 c0 -5 9 -10 20 -10 11 0 20 5 20 10 0 6 -9 10 -20 10 -11
0 -20 -4 -20 -10z"/>
<path d="M11940 480 c0 -5 9 -10 20 -10 11 0 20 5 20 10 0 6 -9 10 -20 10 -11
0 -20 -4 -20 -10z"/>
<path d="M12000 480 c0 -5 9 -10 20 -10 11 0 20 5 20 10 0 6 -9 10 -20 10 -11
0 -20 -4 -20 -10z"/>
<path d="M12060 480 c0 -5 12 -10 26 -10 14 0 23 4 19 10 -3 6 -15 10 -26 10
-10 0 -19 -4 -19 -10z"/>
<path d="M5410 1790 c0 -5 5 -10 10 -10 6 0 10 5 10 10 0 6 -4 10 -10 10 -5 0
-10 -4 -10 -10z"/>
<path d="M5540 1745 c0 -30 5 -55 10 -55 6 0 10 25 10 55 0 30 -4 55 -10 55
-5 0 -10 -25 -10 -55z"/>
<path d="M4520 1740 c0 -47 2 -50 25 -50 14 0 25 5 25 10 0 6 -9 10 -20 10
-11 0 -20 5 -20 10 0 6 7 10 15 10 8 0 15 5 15 10 0 6 -7 10 -15 10 -8 0 -15
5 -15 10 0 6 9 10 20 10 11 0 20 5 20 10 0 6 -11 10 -25 10 -23 0 -25 -3 -25
-50z"/>
<path d="M5636 1774 c-32 -32 -6 -88 38 -82 30 4 37 58 7 58 -23 0 -29 -16 -8
-23 6 -2 9 -8 5 -12 -4 -4 -14 -5 -23 -1 -25 9 -15 50 13 54 12 2 22 8 22 13
0 15 -37 10 -54 -7z"/>
<path d="M4609 1761 c-15 -6 -22 -71 -8 -71 5 0 9 14 9 30 0 20 5 30 15 30 10
0 15 -10 15 -30 0 -16 5 -30 10 -30 6 0 10 14 10 30 0 42 27 40 33 -2 4 -27 4
-26 3 7 -1 38 -2 39 -37 40 -19 1 -42 -1 -50 -4z"/>
<path d="M4741 1710 c1 -30 4 -45 6 -33 3 16 11 22 26 20 19 -2 22 3 22 33 0
31 -3 35 -27 35 -27 1 -28 0 -27 -55z m47 23 c-5 -26 -38 -29 -38 -4 0 15 6
21 21 21 14 0 19 -5 17 -17z"/>
<path d="M4831 1725 c2 -31 3 -34 6 -12 3 16 11 31 19 34 21 8 17 19 -6 19
-17 0 -20 -6 -19 -41z"/>
<path d="M4901 1756 c-25 -30 13 -86 40 -59 8 8 7 11 -6 10 -10 -1 -20 4 -22
11 -3 7 4 12 17 12 15 0 20 5 18 17 -4 23 -31 28 -47 9z m34 -6 c3 -5 -1 -10
-9 -10 -9 0 -16 5 -16 10 0 6 4 10 9 10 6 0 13 -4 16 -10z"/>
<path d="M4976 1755 c-3 -9 3 -19 14 -25 25 -13 26 -27 3 -33 -15 -4 -15 -5
-2 -6 9 0 22 5 28 13 10 11 7 17 -11 30 -20 14 -18 21 5 17 4 0 7 4 7 9 0 16
-37 12 -44 -5z"/>
<path d="M5060 1759 c0 -5 4 -8 9 -4 5 3 12 1 15 -4 3 -5 -3 -11 -14 -14 -22
-6 -29 -47 -7 -46 38 2 55 35 34 67 -10 15 -37 16 -37 1z m28 -40 c-2 -6 -8
-10 -13 -10 -5 0 -11 4 -13 10 -2 6 4 11 13 11 9 0 15 -5 13 -11z"/>
<path d="M5173 1754 c-4 -10 0 -20 10 -26 21 -11 22 -32 2 -24 -8 3 -15 1 -15
-4 0 -6 9 -10 20 -10 27 0 38 29 17 45 -21 15 -22 29 -2 21 8 -3 15 -1 15 4 0
17 -40 11 -47 -6z"/>
<path d="M5248 1745 c-10 -21 -9 -29 5 -43 31 -31 75 19 47 53 -19 22 -39 18
-52 -10z m47 -5 c8 -13 -14 -42 -26 -34 -5 3 -9 14 -9 25 0 20 24 26 35 9z"/>
<path d="M5342 1758 c-23 -23 -7 -68 25 -68 7 0 13 5 13 10 0 6 -6 9 -12 8 -7
-2 -14 7 -16 20 -2 15 2 22 12 22 9 0 16 5 16 10 0 14 -23 13 -38 -2z"/>
<path d="M5410 1730 c0 -22 5 -40 10 -40 6 0 10 18 10 40 0 22 -4 40 -10 40
-5 0 -10 -18 -10 -40z"/>
<path d="M5460 1760 c0 -6 5 -8 10 -5 6 3 16 3 22 -1 9 -6 5 -10 -12 -14 -37
-9 -34 -45 3 -45 26 -1 28 2 25 35 -2 28 -8 36 -25 38 -13 2 -23 -2 -23 -8z
m40 -39 c0 -12 -28 -22 -34 -12 -3 5 -3 11 1 15 9 9 33 7 33 -3z"/>
<path d="M5731 1725 l1 -40 9 33 c5 17 14 32 19 32 6 0 10 4 10 8 0 4 -9 8
-20 8 -17 0 -20 -7 -19 -41z"/>
<path d="M5800 1760 c0 -7 7 -10 15 -7 8 4 17 2 20 -2 2 -5 -7 -12 -21 -15
-28 -7 -30 -36 -4 -44 12 -4 13 -3 3 10 -14 16 -8 28 15 28 8 0 12 -6 9 -15
-4 -8 -2 -17 4 -21 7 -4 9 8 7 32 -2 32 -7 40 -25 42 -13 2 -23 -2 -23 -8z"/>
<path d="M5880 1728 c0 -46 18 -51 22 -5 4 41 21 38 29 -5 4 -18 8 -28 9 -23
5 18 8 30 9 43 2 27 30 11 34 -20 4 -27 4 -25 3 7 l-1 40 -52 0 -53 0 0 -37z"/>
<path d="M6033 1763 c-19 -7 -16 -60 3 -67 23 -9 34 -7 34 5 0 5 -4 8 -9 5 -5
-3 -14 1 -21 9 -11 13 -8 15 15 15 20 0 26 4 23 17 -3 18 -24 26 -45 16z m32
-13 c3 -5 -3 -10 -15 -10 -12 0 -18 5 -15 10 3 6 10 10 15 10 5 0 12 -4 15
-10z"/>
<path d="M6110 1750 c-15 -27 4 -60 33 -59 l22 0 -22 9 c-31 12 -29 30 2 30
27 0 32 9 13 28 -18 18 -36 15 -48 -8z m40 0 c0 -5 -7 -10 -16 -10 -8 0 -12 5
-9 10 3 6 10 10 16 10 5 0 9 -4 9 -10z"/>
<path d="M6194 1728 c1 -46 14 -50 18 -5 2 17 8 32 13 32 6 0 11 -15 13 -32 2
-18 8 -33 13 -33 6 0 9 17 7 38 -3 34 -6 37 -34 37 -29 1 -30 -1 -30 -37z"/>
<path d="M5600 1528 c0 -28 3 -48 7 -44 11 11 12 96 2 96 -5 0 -9 -23 -9 -52z"/>
<path d="M5276 1562 c-9 -14 10 -76 24 -80 12 -4 13 -2 3 9 -16 17 -17 56 -1
61 8 3 6 7 -5 11 -9 3 -18 3 -21 -1z"/>
<path d="M5343 1520 c0 -25 2 -35 4 -22 2 12 2 32 0 45 -2 12 -4 2 -4 -23z"/>
<path d="M5381 1500 c1 -30 4 -45 6 -33 3 16 11 22 26 20 19 -2 22 3 22 33 0
31 -3 35 -27 35 -27 1 -28 0 -27 -55z m49 20 c0 -21 -24 -28 -35 -10 -8 14 3
30 21 30 8 0 14 -9 14 -20z"/>
<path d="M5483 1553 c-16 -6 -17 -45 -1 -61 19 -19 38 -14 47 11 15 39 -9 65
-46 50z m37 -33 c0 -11 -6 -20 -14 -20 -18 0 -29 16 -21 30 11 18 35 11 35
-10z"/>
<path d="M4761 1330 c-1 -55 0 -56 27 -55 24 0 27 4 27 35 0 30 -3 35 -22 33
-15 -2 -23 4 -26 20 -2 12 -5 -3 -6 -33z m47 -23 c2 -12 -3 -17 -17 -17 -15 0
-21 6 -21 21 0 25 33 22 38 -4z"/>
<path d="M4521 1318 c2 -53 2 -53 8 -13 l7 40 19 -37 c27 -55 45 -49 45 13 0
33 -4 48 -11 44 -6 -4 -7 -19 -4 -36 9 -40 -8 -36 -28 6 -24 50 -37 44 -36
-17z"/>
<path d="M4642 1341 c-18 -11 -11 -51 11 -65 14 -9 21 -7 32 7 26 35 -9 81
-43 58z m38 -30 c0 -11 -4 -22 -8 -25 -14 -9 -35 12 -29 28 9 23 37 20 37 -3z"/>
<path d="M4854 1315 c1 -37 3 -40 31 -41 30 -1 30 -1 26 40 -4 39 -5 39 -10
11 -9 -43 -38 -45 -44 -3 -4 28 -4 27 -3 -7z"/>
<path d="M4947 1343 c-13 -13 -7 -32 13 -38 11 -4 18 -11 14 -16 -3 -6 -12 -8
-20 -5 -8 3 -14 1 -14 -4 0 -6 9 -10 20 -10 28 0 37 28 14 45 -17 13 -17 16
-4 25 13 8 13 10 -1 10 -9 0 -19 -3 -22 -7z"/>
<path d="M5022 1338 c-23 -23 -7 -68 25 -68 7 0 13 5 13 10 0 6 -7 10 -15 10
-8 0 -15 9 -15 20 0 11 7 20 15 20 8 0 15 5 15 10 0 14 -23 13 -38 -2z"/>
<path d="M5100 1339 c0 -5 4 -8 9 -4 5 3 12 1 15 -4 3 -5 -3 -11 -14 -14 -12
-3 -20 -14 -20 -26 0 -23 3 -24 38 -15 23 6 26 33 9 62 -10 15 -37 16 -37 1z
m30 -37 c0 -13 -12 -22 -22 -16 -10 6 -1 24 13 24 5 0 9 -4 9 -8z"/>
<path d="M5213 1308 c-1 -21 3 -38 8 -38 5 0 9 14 9 30 0 20 5 30 15 30 10 0
15 -10 15 -30 0 -16 5 -30 10 -30 6 0 10 14 10 30 0 42 27 40 33 -2 4 -27 4
-25 3 7 l-1 40 -50 0 -50 1 -2 -38z"/>
<path d="M5364 1339 c-4 -8 -3 -9 4 -5 7 4 17 4 23 0 7 -4 2 -11 -13 -18 -32
-16 -30 -41 5 -42 26 -1 28 1 25 35 -3 37 -29 54 -44 30z m36 -39 c0 -5 -7
-10 -15 -10 -8 0 -15 5 -15 10 0 6 7 10 15 10 8 0 15 -4 15 -10z"/>
<path d="M5451 1329 c8 -15 8 -24 0 -32 -17 -17 -13 -31 4 -17 12 10 18 10 30
0 17 -14 19 -7 5 20 -7 13 -7 21 0 25 5 3 10 11 10 17 0 6 -7 5 -17 -3 -13
-11 -17 -11 -20 -1 -3 6 -9 12 -14 12 -6 0 -5 -9 2 -21z"/>
<path d="M5533 1310 c0 -25 2 -35 4 -22 2 12 2 32 0 45 -2 12 -4 2 -4 -23z"/>
<path d="M5570 1308 c0 -21 5 -38 10 -38 6 0 10 14 10 30 0 20 5 30 15 30 10
0 15 -10 15 -30 0 -16 4 -30 8 -30 5 0 7 14 6 30 -2 23 2 30 16 30 14 0 20 -9
23 -32 4 -27 4 -25 3 7 l-1 40 -52 0 -53 0 0 -37z"/>
<path d="M5720 1341 c0 -6 6 -8 14 -5 8 3 17 1 20 -4 3 -6 -6 -13 -20 -16 -28
-7 -30 -36 -4 -44 12 -4 13 -3 3 10 -14 16 -8 28 15 28 8 0 12 -6 9 -15 -4 -8
-2 -17 4 -21 7 -4 9 8 7 32 -2 32 -7 40 -25 42 -13 2 -23 -1 -23 -7z"/>
<path d="M5844 1339 c-10 -17 -12 -89 -2 -95 5 -3 20 -3 34 0 29 8 33 36 5 36
-27 0 -35 17 -12 23 10 2 20 14 24 26 4 17 1 21 -18 21 -13 0 -27 -5 -31 -11z
m34 -17 c2 -7 -3 -12 -12 -12 -9 0 -16 7 -16 16 0 17 22 14 28 -4z m2 -62 c0
-5 -9 -10 -20 -10 -11 0 -20 5 -20 10 0 6 9 10 20 10 11 0 20 -4 20 -10z"/>
<path d="M5930 1339 c0 -5 4 -8 9 -4 5 3 12 1 16 -5 3 -5 0 -10 -8 -10 -20 0
-37 -23 -28 -38 5 -9 17 -11 34 -6 29 7 37 40 15 62 -15 15 -38 16 -38 1z m28
-41 c-6 -18 -28 -21 -28 -4 0 9 7 16 16 16 9 0 14 -5 12 -12z"/>
<path d="M6012 1305 c1 -36 2 -37 5 -7 3 23 9 32 23 32 14 0 20 -9 23 -32 4
-27 4 -25 3 7 -1 37 -3 40 -28 40 -26 1 -28 -2 -26 -40z"/>
<path d="M6110 1341 c0 -6 7 -8 15 -5 8 4 15 2 15 -4 0 -5 -9 -12 -21 -15 -32
-8 -21 -42 14 -42 26 -1 28 2 25 35 -2 28 -8 36 -25 38 -13 2 -23 -1 -23 -7z
m30 -46 c-7 -8 -16 -12 -21 -9 -13 8 -1 24 18 24 13 0 13 -3 3 -15z"/>
<path d="M6191 1305 c2 -28 3 -32 6 -13 2 14 11 32 18 38 16 13 20 8 29 -40 2
-14 3 -7 3 15 -2 36 -4 40 -29 40 -26 1 -28 -2 -27 -40z"/>
<path d="M6293 1343 c-19 -7 -16 -60 3 -67 22 -8 34 -7 34 3 0 5 -9 11 -21 14
-17 5 -19 9 -9 27 6 11 15 18 21 15 5 -4 9 -1 9 4 0 11 -16 13 -37 4z"/>
<path d="M6363 1310 c0 -25 2 -35 4 -22 2 12 2 32 0 45 -2 12 -4 2 -4 -23z"/>
<path d="M6410 1340 c0 -7 7 -10 15 -6 8 3 15 2 15 -3 0 -5 -9 -11 -21 -14
-32 -8 -21 -42 14 -42 26 -1 28 2 25 35 -2 28 -8 36 -25 38 -13 2 -23 -2 -23
-8z m30 -38 c0 -13 -12 -22 -22 -16 -10 6 -1 24 13 24 5 0 9 -4 9 -8z"/>
<path d="M6486 1273 c-6 -14 -5 -15 5 -6 7 7 10 15 7 18 -3 3 -9 -2 -12 -12z"/>
<path d="M4800 1161 c0 -11 -6 -18 -16 -17 -9 0 -21 -7 -28 -16 -15 -25 4 -53
38 -53 25 -1 26 1 26 52 0 29 -4 53 -10 53 -5 0 -10 -8 -10 -19z m0 -51 c0
-11 -7 -20 -15 -20 -8 0 -15 9 -15 20 0 11 7 20 15 20 8 0 15 -9 15 -20z"/>
<path d="M5090 1170 c0 -5 5 -10 10 -10 6 0 10 5 10 10 0 6 -4 10 -10 10 -5 0
-10 -4 -10 -10z"/>
<path d="M5141 1130 c-1 -55 0 -56 27 -55 24 0 27 4 27 35 0 30 -3 35 -22 33
-15 -2 -23 4 -26 20 -2 12 -5 -3 -6 -33z m44 -30 c-3 -6 -13 -10 -21 -10 -17
0 -19 37 -1 43 14 5 31 -19 22 -33z"/>
<path d="M5572 1163 c2 -12 -3 -17 -14 -15 -22 3 -38 -27 -28 -53 4 -13 16
-20 34 -20 25 -1 26 1 26 52 0 30 -5 53 -10 53 -6 0 -10 -8 -8 -17z m5 -49 c6
-16 -15 -37 -29 -28 -4 3 -8 14 -8 25 0 23 28 26 37 3z"/>
<path d="M5840 1162 c0 -13 -7 -18 -22 -18 -20 1 -23 -4 -23 -34 0 -31 3 -35
28 -36 26 -1 27 1 27 52 0 30 -2 54 -5 54 -3 0 -5 -8 -5 -18z m0 -52 c0 -13
-7 -20 -20 -20 -19 0 -27 20 -13 33 13 14 33 6 33 -13z"/>
<path d="M6110 1162 c0 -13 -7 -18 -22 -18 -20 1 -23 -4 -23 -34 0 -31 3 -35
28 -35 26 -1 27 1 27 52 0 29 -2 53 -5 53 -3 0 -5 -8 -5 -18z m0 -52 c0 -13
-7 -20 -20 -20 -19 0 -27 20 -13 33 13 14 33 6 33 -13z"/>
<path d="M4521 1118 c2 -53 2 -53 8 -13 l7 40 19 -37 c27 -55 45 -49 45 13 0
27 -4 48 -9 45 -5 -3 -7 -19 -5 -36 5 -40 -8 -38 -29 5 -24 50 -37 44 -36 -17z"/>
<path d="M6321 1139 c6 -25 6 -46 -1 -65 -9 -27 -9 -28 5 -10 19 25 19 67 0
92 -13 17 -13 16 -4 -17z"/>
<path d="M4967 1152 c-2 -4 -2 -24 0 -44 4 -26 10 -38 21 -38 12 0 13 3 4 12
-16 16 -16 55 0 60 8 3 6 7 -5 11 -9 3 -18 3 -20 -1z"/>
<path d="M4643 1143 c-14 -5 -17 -31 -7 -57 9 -24 43 -19 53 7 15 39 -9 65
-46 50z m37 -33 c0 -21 -24 -28 -35 -10 -8 14 3 30 21 30 8 0 14 -9 14 -20z"/>
<path d="M4853 1110 c0 -25 2 -35 4 -22 2 12 2 32 0 45 -2 12 -4 2 -4 -23z"/>
<path d="M4897 1143 c-13 -13 -7 -32 13 -38 11 -4 18 -11 14 -16 -3 -6 -12 -8
-20 -5 -8 3 -14 1 -14 -4 0 -6 9 -10 20 -10 28 0 37 28 14 45 -17 13 -17 16
-4 25 13 8 13 10 -1 10 -9 0 -19 -3 -22 -7z"/>
<path d="M5031 1105 c2 -31 3 -34 6 -12 3 16 11 31 19 34 21 8 17 19 -6 19
-17 0 -20 -6 -19 -41z"/>
<path d="M5099 1148 c-7 -28 -7 -78 1 -78 5 0 10 18 10 40 0 22 -2 40 -5 40
-3 0 -5 -1 -6 -2z"/>
<path d="M5233 1115 c2 -36 5 -40 30 -41 25 -1 27 1 26 40 -1 38 -2 39 -8 11
-3 -17 -13 -30 -21 -30 -8 0 -18 13 -22 30 -6 26 -6 25 -5 -10z"/>
<path d="M5321 1144 c-1 -6 4 -26 10 -44 9 -26 9 -34 -2 -41 -7 -4 -10 -11 -6
-15 4 -4 11 -3 17 2 16 16 50 104 40 104 -5 0 -12 -11 -16 -25 -8 -32 -18 -32
-31 3 -6 15 -11 22 -12 16z"/>
<path d="M5410 1135 c-18 -21 2 -65 30 -65 11 0 20 4 20 9 0 5 -7 8 -16 7 -9
0 -19 5 -21 12 -3 7 5 12 21 12 28 0 33 9 14 28 -16 16 -33 15 -48 -3z m35 -5
c3 -5 -1 -10 -10 -10 -9 0 -13 5 -10 10 3 6 8 10 10 10 2 0 7 -4 10 -10z"/>
<path d="M5623 1110 c0 -25 2 -35 4 -22 2 12 2 32 0 45 -2 12 -4 2 -4 -23z"/>
<path d="M5667 1110 c9 -22 19 -40 23 -40 4 0 14 18 23 40 8 22 11 40 6 40 -5
0 -11 -11 -15 -25 -3 -14 -10 -25 -14 -25 -4 0 -11 11 -14 25 -4 14 -10 25
-15 25 -5 0 -2 -18 6 -40z"/>
<path d="M5753 1110 c0 -25 2 -35 4 -22 2 12 2 32 0 45 -2 12 -4 2 -4 -23z"/>
<path d="M5892 1141 c-18 -11 -11 -51 10 -65 13 -8 21 -7 30 2 11 11 10 12 -3
7 -9 -3 -22 1 -29 10 -11 13 -9 15 14 15 29 0 36 24 10 34 -19 7 -16 8 -32 -3z
m33 -11 c3 -5 -3 -10 -15 -10 -12 0 -18 5 -15 10 3 6 10 10 15 10 5 0 12 -4
15 -10z"/>
<path d="M5972 1105 c1 -36 2 -37 5 -7 3 24 9 32 25 32 17 0 20 -5 16 -30 -3
-16 -1 -30 4 -30 5 0 8 17 6 38 -3 33 -6 37 -30 37 -26 1 -28 -2 -26 -40z"/>
<path d="M6160 1135 c-28 -34 16 -84 47 -53 14 14 15 22 5 43 -13 28 -33 32
-52 10z m40 -25 c0 -11 -6 -20 -13 -20 -19 0 -27 10 -20 26 8 21 33 17 33 -6z"/>
<path d="M6244 1138 c-4 -6 2 -19 15 -29 20 -17 13 -38 -9 -24 -5 3 -10 1 -10
-4 0 -6 9 -11 20 -11 27 0 38 30 17 42 -10 5 -17 14 -17 19 0 6 5 7 10 4 6 -3
10 -1 10 4 0 15 -27 14 -36 -1z"/>
<path d="M7830 1775 c0 -35 4 -54 10 -50 6 3 10 26 10 50 0 24 -4 47 -10 50
-6 4 -10 -15 -10 -50z"/>
<path d="M6805 1770 c0 -48 1 -50 28 -50 16 0 26 4 22 10 -3 6 -13 10 -21 10
-8 0 -14 5 -14 10 0 6 7 10 15 10 8 0 15 5 15 10 0 6 -7 10 -15 10 -8 0 -15 5
-15 10 0 6 6 10 14 10 8 0 18 5 21 10 4 6 -6 10 -22 10 -27 0 -28 -2 -28 -50z"/>
<path d="M7926 1804 c-33 -32 -14 -84 30 -84 28 0 37 14 29 40 -6 20 -35 28
-35 10 0 -5 5 -10 10 -10 6 0 10 -4 10 -10 0 -15 -38 -12 -43 3 -8 25 5 47 29
47 13 0 24 5 24 10 0 16 -37 12 -54 -6z"/>
<path d="M6885 1763 c1 -43 15 -56 15 -15 0 22 5 32 15 32 10 0 15 -10 15 -30
0 -16 5 -30 10 -30 6 0 10 14 10 30 0 42 27 40 33 -2 4 -27 4 -25 3 7 l-1 40
-51 0 -51 1 2 -33z"/>
<path d="M7025 1790 c-6 -10 1 -89 9 -97 3 -3 6 3 6 15 0 14 5 20 13 16 19 -7
39 20 35 48 -2 17 -10 23 -31 24 -15 1 -30 -2 -32 -6z m45 -30 c0 -11 -7 -20
-15 -20 -8 0 -15 9 -15 20 0 11 7 20 15 20 8 0 15 -9 15 -20z"/>
<path d="M7121 1755 c2 -31 3 -34 6 -12 3 16 11 31 19 34 21 8 17 19 -6 19
-17 0 -20 -6 -19 -41z"/>
<path d="M7193 1793 c-7 -2 -13 -17 -13 -33 0 -32 33 -51 54 -30 8 8 7 10 -5
5 -9 -3 -22 1 -29 10 -11 13 -9 15 15 15 20 0 26 4 23 17 -3 18 -24 26 -45 16z
m32 -13 c3 -5 -3 -10 -15 -10 -12 0 -18 5 -15 10 3 6 10 10 15 10 5 0 12 -4
15 -10z"/>
<path d="M7264 1788 c-4 -6 2 -19 15 -29 22 -18 13 -37 -11 -23 -10 5 -10 4
-1 -6 15 -16 43 -6 43 15 0 9 -7 18 -15 21 -8 4 -15 10 -15 15 0 4 7 6 15 3 8
-4 15 -1 15 5 0 15 -37 14 -46 -1z"/>
<path d="M7350 1789 c0 -5 4 -8 9 -4 5 3 12 1 16 -5 3 -5 -1 -10 -9 -10 -19 0
-40 -36 -26 -45 5 -3 21 -3 35 1 26 6 30 31 12 62 -10 15 -37 16 -37 1z m28
-40 c-2 -6 -8 -10 -13 -10 -5 0 -11 4 -13 10 -2 6 4 11 13 11 9 0 15 -5 13
-11z"/>
<path d="M7463 1784 c-4 -10 0 -20 10 -26 21 -11 22 -32 2 -24 -8 3 -15 1 -15
-4 0 -6 9 -10 20 -10 27 0 38 29 17 45 -21 15 -22 29 -1 21 8 -3 12 -2 9 4
-10 16 -35 12 -42 -6z"/>
<path d="M7540 1785 c-26 -31 13 -82 44 -56 19 16 21 42 4 59 -16 16 -33 15
-48 -3z m43 -19 c7 -16 -1 -26 -20 -26 -7 0 -13 9 -13 20 0 23 25 27 33 6z"/>
<path d="M7632 1788 c-17 -17 -15 -55 4 -62 23 -9 34 -7 34 4 0 6 -7 10 -15
10 -8 0 -15 9 -15 20 0 11 7 20 15 20 8 0 15 5 15 10 0 14 -23 13 -38 -2z"/>
<path d="M7703 1760 c0 -25 2 -35 4 -22 2 12 2 32 0 45 -2 12 -4 2 -4 -23z"/>
<path d="M7750 1790 c0 -6 5 -8 10 -5 6 3 16 3 22 -1 9 -6 5 -10 -12 -14 -37
-9 -34 -45 3 -45 26 -1 28 2 25 35 -2 28 -8 36 -25 38 -13 2 -23 -2 -23 -8z
m34 -39 c3 -5 -1 -11 -9 -15 -9 -3 -15 0 -15 9 0 16 16 20 24 6z"/>
<path d="M8021 1755 c2 -31 3 -34 6 -12 3 16 11 31 19 34 21 8 17 19 -6 19
-17 0 -20 -6 -19 -41z"/>
<path d="M8090 1790 c0 -6 5 -8 10 -5 6 3 16 3 22 -1 9 -6 5 -10 -12 -14 -37
-9 -34 -45 3 -45 26 -1 28 2 25 35 -2 28 -8 36 -25 38 -13 2 -23 -2 -23 -8z
m30 -38 c0 -13 -12 -22 -22 -16 -10 6 -1 24 13 24 5 0 9 -4 9 -8z"/>
<path d="M8170 1758 c0 -21 4 -38 9 -38 4 0 6 10 4 23 -3 14 2 29 11 36 17 15
21 9 29 -39 4 -20 5 -19 6 8 1 33 30 48 32 17 3 -28 4 -33 12 -42 5 -4 7 10 5
32 l-3 40 -52 0 -53 0 0 -37z"/>
<path d="M8322 1791 c-18 -11 -11 -51 10 -65 13 -8 21 -7 30 2 11 11 10 12 -3
7 -9 -3 -22 1 -29 10 -11 13 -9 15 14 15 29 0 36 24 10 34 -19 7 -16 8 -32 -3z
m33 -11 c3 -5 -3 -10 -15 -10 -12 0 -18 5 -15 10 3 6 10 10 15 10 5 0 12 -4
15 -10z"/>
<path d="M8398 1775 c-8 -19 -8 -28 2 -40 14 -17 50 -21 50 -5 0 6 -3 9 -7 9
-19 -3 -33 2 -33 11 0 6 11 10 25 10 27 0 32 9 13 28 -19 19 -37 14 -50 -13z
m37 5 c3 -5 -1 -10 -10 -10 -9 0 -13 5 -10 10 3 6 8 10 10 10 2 0 7 -4 10 -10z"/>
<path d="M8480 1758 c0 -21 5 -38 10 -38 6 0 10 14 10 30 0 20 5 30 15 30 10
0 15 -10 15 -30 0 -16 5 -30 10 -30 12 0 13 49 2 67 -4 6 -19 10 -35 10 -24
-2 -27 -6 -27 -39z"/>
<path d="M7520 1610 c0 -5 5 -10 10 -10 6 0 10 5 10 10 0 6 -4 10 -10 10 -5 0
-10 -4 -10 -10z"/>
<path d="M7785 1560 c0 -28 3 -50 8 -50 4 0 7 23 7 50 0 28 -3 50 -7 50 -5 0
-8 -23 -8 -50z"/>
<path d="M7830 1560 c0 -27 5 -50 10 -50 6 0 10 23 10 50 0 28 -4 50 -10 50
-5 0 -10 -22 -10 -50z"/>
<path d="M7462 1557 c2 -33 7 -43 23 -46 19 -3 19 -2 4 15 -16 19 -15 43 3 55
5 3 0 9 -12 12 -19 5 -21 2 -18 -36z"/>
<path d="M7520 1550 c0 -22 5 -40 10 -40 6 0 10 18 10 40 0 22 -4 40 -10 40
-5 0 -10 -18 -10 -40z"/>
<path d="M7571 1530 c1 -30 4 -45 6 -33 3 16 11 22 26 20 19 -2 22 3 22 33 0
31 -3 35 -27 35 -27 1 -28 0 -27 -55z m44 20 c0 -8 -8 -16 -17 -18 -13 -2 -18
3 -18 18 0 15 5 20 18 18 9 -2 17 -10 17 -18z"/>
<path d="M7660 1575 c-15 -19 1 -65 23 -65 34 0 52 62 21 74 -23 9 -30 8 -44
-9z m43 -19 c6 -16 -16 -40 -26 -29 -4 3 -7 15 -7 25 0 21 25 24 33 4z"/>
<path d="M7440 1392 c0 -13 -7 -18 -22 -18 -20 1 -23 -4 -23 -34 0 -31 3 -35
28 -36 26 -1 27 1 27 52 0 30 -2 54 -5 54 -3 0 -5 -8 -5 -18z m0 -52 c0 -13
-7 -20 -20 -20 -19 0 -27 20 -13 33 13 14 33 6 33 -13z"/>
<path d="M7613 1390 c4 -17 2 -20 -13 -15 -13 4 -22 -1 -30 -15 -15 -28 2 -55
34 -55 25 -1 26 2 26 52 0 32 -4 53 -11 53 -6 0 -9 -9 -6 -20z m2 -50 c0 -8
-8 -16 -17 -18 -13 -2 -18 3 -18 18 0 15 5 20 18 18 9 -2 17 -10 17 -18z"/>
<path d="M8190 1356 c0 -53 1 -55 26 -53 35 3 53 30 38 55 -7 9 -19 16 -28 16
-10 -1 -16 6 -16 17 0 11 -4 19 -10 19 -5 0 -10 -24 -10 -54z m50 -16 c0 -11
-7 -20 -15 -20 -8 0 -15 9 -15 20 0 11 7 20 15 20 8 0 15 -9 15 -20z"/>
<path d="M6832 1350 c3 -47 4 -50 31 -50 16 0 26 4 22 10 -3 6 -13 10 -21 10
-8 0 -14 5 -14 10 0 6 7 10 15 10 8 0 15 5 15 10 0 6 -7 10 -15 10 -8 0 -15 5
-15 10 0 6 7 10 15 10 8 0 15 5 15 10 0 6 -11 10 -25 10 -24 0 -25 -3 -23 -50z"/>
<path d="M6928 1373 c-13 -3 -17 -12 -14 -34 4 -41 16 -49 16 -11 0 22 5 32
15 32 10 0 15 -10 15 -30 0 -16 5 -30 10 -30 6 0 10 14 10 30 0 42 27 40 33
-2 4 -27 4 -26 3 7 -1 38 -2 39 -36 41 -19 0 -43 -1 -52 -3z"/>
<path d="M7061 1320 c1 -32 4 -47 7 -35 4 11 16 20 27 20 16 0 20 7 20 35 0
31 -3 35 -27 35 -27 1 -28 0 -27 -55z m44 20 c0 -8 -8 -16 -17 -18 -13 -2 -18
3 -18 18 0 15 5 20 18 18 9 -2 17 -10 17 -18z"/>
<path d="M7151 1335 c2 -31 3 -34 6 -12 3 16 11 31 19 34 21 8 17 19 -6 19
-17 0 -20 -6 -19 -41z"/>
<path d="M7223 1373 c-7 -2 -13 -17 -13 -33 0 -32 34 -51 54 -30 8 10 7 12 -6
7 -9 -3 -22 1 -28 9 -10 12 -8 14 15 14 20 0 26 4 23 17 -3 18 -24 26 -45 16z
m32 -13 c3 -5 -3 -10 -15 -10 -12 0 -18 5 -15 10 3 6 10 10 15 10 5 0 12 -4
15 -10z"/>
<path d="M7302 1335 c1 -36 2 -37 5 -7 3 23 9 32 23 32 14 0 20 -9 23 -32 4
-27 4 -25 3 7 -1 37 -3 40 -28 40 -26 1 -28 -2 -26 -40z"/>
<path d="M7492 1368 c-15 -15 -15 -41 0 -56 14 -14 48 -16 48 -3 0 5 -7 8 -16
7 -9 0 -19 5 -21 12 -3 7 4 12 17 12 15 0 20 5 18 17 -4 22 -29 28 -46 11z
m33 -8 c3 -5 -1 -10 -10 -10 -9 0 -13 5 -10 10 3 6 8 10 10 10 2 0 7 -4 10
-10z"/>
<path d="M7673 1373 c-19 -7 -16 -60 3 -67 25 -10 33 -7 44 14 19 36 -10 69
-47 53z m37 -33 c0 -11 -6 -20 -14 -20 -18 0 -29 16 -21 30 11 18 35 11 35
-10z"/>
<path d="M7750 1338 c0 -21 5 -38 10 -38 6 0 10 14 10 30 0 20 5 30 15 30 8 0
15 4 15 9 0 5 -11 8 -25 7 -22 -1 -25 -6 -25 -38z"/>
<path d="M7822 1368 c-25 -25 -6 -68 30 -68 10 0 18 5 18 10 0 6 -7 10 -16 8
-10 -2 -19 3 -21 10 -3 7 5 12 21 12 14 0 26 4 26 8 0 12 -22 32 -35 32 -6 0
-16 -5 -23 -12z m33 -8 c3 -5 -1 -10 -10 -10 -9 0 -13 5 -10 10 3 6 8 10 10
10 2 0 7 -4 10 -10z"/>
<path d="M7903 1364 c-4 -10 0 -20 10 -26 21 -11 22 -32 2 -24 -8 3 -15 1 -15
-5 0 -6 10 -9 22 -7 30 4 35 34 8 43 -11 3 -18 11 -14 16 3 5 10 7 15 4 5 -4
9 -1 9 4 0 17 -30 13 -37 -5z"/>
<path d="M8010 1323 c0 -29 5 -53 10 -53 6 0 10 9 10 19 0 11 6 18 16 17 9 0
21 7 28 17 15 24 -4 52 -38 52 -25 1 -26 -1 -26 -52z m50 17 c0 -11 -7 -20
-15 -20 -8 0 -15 9 -15 20 0 11 7 20 15 20 8 0 15 -9 15 -20z"/>
<path d="M8113 1373 c-19 -7 -16 -60 3 -67 25 -10 33 -7 44 14 19 36 -10 69
-47 53z m37 -33 c0 -11 -6 -20 -14 -20 -18 0 -29 16 -21 30 11 18 35 11 35
-10z"/>
<path d="M8300 1372 c-15 -7 -21 -55 -7 -68 4 -4 7 7 7 24 0 22 5 32 15 32 8
0 15 5 15 10 0 11 -8 12 -30 2z"/>
<path d="M8354 1366 c-11 -29 1 -61 24 -64 12 -2 22 1 22 6 0 5 -7 9 -16 8 -9
0 -19 5 -21 12 -3 7 5 12 21 12 28 0 33 9 14 28 -16 16 -37 15 -44 -2z m36 -6
c0 -5 -7 -10 -16 -10 -8 0 -12 5 -9 10 3 6 10 10 16 10 5 0 9 -4 9 -10z"/>
<path d="M8437 1373 c-13 -13 -7 -32 13 -38 11 -4 18 -11 14 -16 -3 -6 -12 -8
-20 -5 -8 3 -14 1 -14 -4 0 -6 9 -10 20 -10 29 0 38 30 14 47 -16 12 -17 15
-4 23 13 8 13 10 -1 10 -9 0 -19 -3 -22 -7z"/>
<path d="M7250 1200 c0 -5 5 -10 10 -10 6 0 10 5 10 10 0 6 -4 10 -10 10 -5 0
-10 -4 -10 -10z"/>
<path d="M7301 1160 c-1 -55 0 -56 27 -55 24 0 27 4 27 35 0 28 -4 35 -20 35
-11 0 -23 9 -27 20 -3 12 -6 -3 -7 -35z m49 -20 c0 -13 -7 -20 -20 -20 -19 0
-27 20 -13 33 13 14 33 6 33 -13z"/>
<path d="M7737 1189 c5 -18 3 -20 -15 -15 -15 5 -24 1 -32 -14 -15 -28 2 -55
34 -55 25 -1 26 2 26 52 0 29 -4 53 -9 53 -5 0 -7 -10 -4 -21z m-2 -39 c8 -13
-14 -42 -26 -34 -5 3 -9 14 -9 25 0 20 24 26 35 9z"/>
<path d="M7780 1200 c0 -5 5 -10 10 -10 6 0 10 5 10 10 0 6 -4 10 -10 10 -5 0
-10 -4 -10 -10z"/>
<path d="M8000 1192 c0 -13 -7 -18 -22 -18 -20 1 -23 -4 -23 -34 0 -31 3 -35
28 -36 26 -1 27 1 27 52 0 30 -2 54 -5 54 -3 0 -5 -8 -5 -18z m0 -52 c0 -11
-6 -20 -14 -20 -18 0 -29 16 -21 30 11 18 35 11 35 -10z"/>
<path d="M8270 1191 c0 -14 -5 -18 -20 -14 -14 4 -21 -1 -26 -21 -9 -38 1 -55
34 -54 28 1 29 3 31 54 1 33 -2 54 -8 54 -6 0 -11 -9 -11 -19z m0 -51 c0 -21
-24 -28 -35 -10 -8 14 3 30 21 30 8 0 14 -9 14 -20z"/>
<path d="M6860 1181 c-17 -32 -10 -101 10 -101 5 0 3 14 -3 30 -8 22 -8 38 0
60 13 34 9 40 -7 11z"/>
<path d="M6910 1150 c0 -39 4 -50 16 -50 31 0 54 20 54 48 0 34 -16 52 -47 52
-21 0 -23 -4 -23 -50z m54 15 c8 -23 -4 -45 -25 -45 -14 0 -19 7 -19 30 0 23
5 30 19 30 10 0 21 -7 25 -15z"/>
<path d="M8483 1171 c9 -24 9 -38 0 -62 -10 -26 -10 -29 3 -19 8 7 14 29 14
50 0 21 -6 43 -14 50 -13 10 -13 7 -3 -19z"/>
<path d="M7127 1184 c-2 -2 -1 -21 2 -41 5 -27 12 -39 26 -42 19 -3 19 -3 3
16 -22 24 -23 39 -2 51 14 8 14 10 -4 14 -12 3 -23 4 -25 2z"/>
<path d="M7010 1140 c0 -22 3 -40 8 -40 4 0 6 18 4 40 -2 22 -6 40 -8 40 -2 0
-4 -18 -4 -40z"/>
<path d="M7057 1173 c-13 -13 -7 -32 13 -38 11 -4 18 -11 14 -16 -3 -6 -12 -8
-20 -5 -8 3 -14 1 -14 -4 0 -6 9 -10 20 -10 27 0 38 29 17 45 -22 16 -21 22 1
28 14 4 13 5 -4 6 -11 0 -24 -2 -27 -6z"/>
<path d="M7191 1135 c2 -31 3 -34 6 -12 3 16 11 31 19 34 21 8 17 19 -6 19
-17 0 -20 -6 -19 -41z"/>
<path d="M7257 1173 c-11 -10 -8 -73 3 -73 6 0 10 18 10 40 0 41 -2 45 -13 33z"/>
<path d="M7393 1145 c2 -36 5 -40 30 -41 25 -1 27 1 25 40 -1 38 -2 38 -5 8
-5 -42 -35 -40 -45 3 -6 26 -6 25 -5 -10z"/>
<path d="M7485 1160 c3 -14 8 -35 11 -47 4 -14 2 -23 -5 -23 -6 0 -11 -4 -11
-10 0 -5 5 -10 11 -10 13 0 52 87 46 103 -3 7 -8 0 -12 -15 -4 -16 -10 -28
-14 -28 -4 0 -12 12 -19 28 -11 25 -11 26 -7 2z"/>
<path d="M7570 1160 c-15 -27 4 -60 33 -59 l22 0 -22 9 c-31 12 -29 30 2 30
27 0 32 9 13 28 -18 18 -36 15 -48 -8z m35 0 c3 -5 -1 -10 -10 -10 -9 0 -13 5
-10 10 3 6 8 10 10 10 2 0 7 -4 10 -10z"/>
<path d="M7780 1140 c0 -22 5 -40 10 -40 6 0 10 18 10 40 0 22 -4 40 -10 40
-5 0 -10 -18 -10 -40z"/>
<path d="M7824 1164 c3 -9 9 -27 12 -40 9 -33 25 -26 40 19 15 42 3 51 -13 10
l-10 -28 -11 28 c-12 28 -29 39 -18 11z"/>
<path d="M7913 1140 c0 -25 2 -35 4 -22 2 12 2 32 0 45 -2 12 -4 2 -4 -23z"/>
<path d="M8052 1168 c-15 -15 -15 -41 0 -56 14 -14 48 -16 48 -3 0 5 -7 8 -16
7 -9 0 -19 5 -21 12 -3 7 4 12 17 12 15 0 20 5 18 17 -4 22 -29 28 -46 11z
m33 -8 c3 -5 -1 -10 -10 -10 -9 0 -13 5 -10 10 3 6 8 10 10 10 2 0 7 -4 10
-10z"/>
<path d="M8131 1135 c2 -28 3 -32 6 -13 2 14 11 32 18 38 16 13 20 8 29 -40 2
-14 3 -7 3 15 -2 36 -4 40 -29 40 -26 1 -28 -2 -27 -40z"/>
<path d="M8322 1168 c-23 -23 -7 -68 25 -68 21 0 35 37 23 60 -12 23 -30 26
-48 8z m36 -30 c-2 -13 -7 -23 -13 -23 -5 0 -11 10 -13 23 -2 15 2 22 13 22
11 0 15 -7 13 -22z"/>
<path d="M8407 1173 c-13 -13 -7 -32 13 -38 11 -4 18 -11 14 -16 -3 -6 -12 -8
-20 -5 -8 3 -14 1 -14 -4 0 -6 9 -10 20 -10 27 0 38 29 17 45 -21 15 -22 29
-1 21 8 -3 12 -2 9 4 -7 11 -28 13 -38 3z"/>
</g>
</svg>
